{
.appVersion = "3148";
.formatVersion = 3;
axes = (
{
name = Weight;
tag = wght;
}
);
date = "2021-01-03 15:06:52 +0000";
familyName = "Harley Grotesk";
featurePrefixes = (
{
automatic = 1;
code = "languagesystem DFLT dflt;

languagesystem latn dflt;
";
name = Languagesystems;
}
);
features = (
{
automatic = 1;
code = "feature dnom;
";
tag = aalt;
},
{
automatic = 1;
code = "lookup ccmp_latn_1 {
	sub fi by f i;
	sub fl by f l;
} ccmp_latn_1;

script latn;
lookup ccmp_latn_1;
";
tag = ccmp;
},
{
automatic = 1;
code = "sub zero by zero.dnom;
sub one by one.dnom;
sub two by two.dnom;
sub three by three.dnom;
sub four by four.dnom;
sub five by five.dnom;
sub six by six.dnom;
sub seven by seven.dnom;
sub eight by eight.dnom;
sub nine by nine.dnom;
";
tag = dnom;
},
{
automatic = 1;
code = "lookupflag IgnoreMarks;
sub W W W by W_W_W;
sub f f j by f_f_j;
sub f f t by f_f_t;
sub w w w by w_w_w;
sub W W by W_W;
sub f j by f_j;
sub f t by f_t;
sub r t by r_t;
sub t t by t_t;
sub w w by w_w;
";
tag = dlig;
},
{
automatic = 1;
code = "lookupflag IgnoreMarks;
sub f f i by f_f_i;
sub f f l by f_f_l;
sub f f by f_f;
sub f i by fi;
sub f l by fl;
";
tag = liga;
}
);
fontMaster = (
{
axesValues = (
100
);
guides = (
{
locked = 1;
name = "Small Fig Bottom";
pos = (362,150);
},
{
locked = 1;
name = "Small Fig Top";
pos = (334,550);
},
{
angle = 180;
locked = 1;
name = "Small Fig Overshoot";
pos = (423,144);
},
{
locked = 1;
name = "Small Fig Overshoot";
pos = (418,555);
},
{
locked = 1;
pos = (71,-7);
},
{
locked = 1;
pos = (-2,507);
},
{
locked = 1;
pos = (-3,707);
}
);
iconName = Light;
id = "18A01495-E50D-4F2B-A1D8-5C332C731D93";
metricValues = (
{
pos = 800;
},
{
over = 10;
pos = 700;
},
{
over = 10;
pos = 500;
},
{
over = -10;
},
{
over = -10;
pos = -200;
},
{
}
);
name = Thin;
userData = {
GSCornerRadius = 150;
GSOffsetHorizontal = 5;
GSOffsetVertical = 5;
};
},
{
axesValues = (
400
);
guides = (
{
locked = 1;
name = "Small Fig Bottom";
pos = (362,150);
},
{
locked = 1;

glyphs = (
{
color = 9;
glyphname = A;
kernLeft = A;
kernRight = A;
lastChange = "2023-01-14 20:57:58 +0000";
layers = (
{
layerId = "30E869CF-9A31-4D47-9626-61B8364FC2DA";
shapes = (
{
closed = 1;
nodes = (
(107,0,l),
(349,611,l),
(595,0,l),
(685,0,l),
(402,700,l),
(299,700,l),
(17,0,l)
);
},
{
closed = 1;
nodes = (
(554,191,l),
(554,271,l),
(157,271,l),
(157,191,l)
);
}
);
width = 700;
},
{
layerId = "18A01495-E50D-4F2B-A1D8-5C332C731D93";
shapes = (
{
closed = 1;
nodes = (
(67,0,l),
(338,651,l),
(612,0,l),
(657,0,l),
(363,700,l),
(315,700,l),
(22,0,l)
);
},
{
closed = 1;
nodes = (
(529,222,l),
(529,262,l),
(149,262,l),
(149,222,l)
);
}
);
width = 679;
},
{
background = {
shapes = (
{
closed = 1;
nodes = (
(206,0,l),
(379,520,l),
(552,0,l),
(754,0,l),
(504,700,l),
(259,700,l),
(9,0,l)
);
},
{
closed = 1;
nodes = (
(558,140,l),
(558,310,l),
(189,310,l),
(189,140,l)
);
}
);
};
layerId = "9D32FE6F-9470-45EF-9689-909A6F5CE504";
shapes = (
{
closed = 1;
nodes = (
(206,0,l),
(379,520,l),
(552,0,l),
(754,0,l),
(504,700,l),
(259,700,l),
(9,0,l)
);
},
{
closed = 1;
nodes = (
(558,140,l),
(558,310,l),
(189,310,l),
(189,140,l)
);
}
);
width = 763;
}
);
note = A;
unicode = 65;
},
{
color = 9;
glyphname = B;
lastChange = "2023-01-10 12:34:14 +0000";
layers = (
{
background = {
shapes = (
{
closed = 1;
nodes = (
(378,0,ls),
(528,0,o),
(618,71,o),
(618,196,cs),
(618,286,o),
(562,349,o),
(490,365,c),
(552,386,o),
(593,444,o),
(593,514,cs),
(593,636,o),
(507,700,o),
(365,700,cs),
(88,700,l),
(88,0,l)
);
},
{
closed = 1;
nodes = (
(178,319,l),
(374,319,ls),
(466,319,o),
(526,285,o),
(526,199,cs),
(526,117,o),
(466,80,o),
(373,80,cs),
(178,80,l)
);
},
{
closed = 1;
nodes = (
(178,620,l),
(362,620,ls),
(446,620,o),
(501,586,o),
(501,509,cs),
(501,433,o),
(448,399,o),
(362,399,cs),
(178,399,l)
);
}
);
};
layerId = "30E869CF-9A31-4D47-9626-61B8364FC2DA";
shapes = (
{
closed = 1;
nodes = (
(403,0,ls),
(513,0,o),
(608,74,o),
(608,190,cs),
(608,278,o),
(558,343,o),
(479,356,c),
(545,381,o),
(593,436,o),
(593,515,cs),
(593,630,o),
(503,700,o),
(393,700,cs),
(88,700,l),
(88,0,l)
);
},
{
closed = 1;
nodes = (
(178,315,l),
(393,315,ls),
(468,315,o),
(518,275,o),
(518,200,cs),
(518,120,o),
(468,80,o),
(393,80,cs),
(178,80,l)
);
},
{
closed = 1;
nodes = (
(178,620,l),
(387,620,ls),
(457,620,o),
(502,580,o),
(502,505,cs),
(502,435,o),
(457,395,o),
(387,395,cs),
(178,395,l)
);
}
);
width = 672;
},
{
background = {
shapes = (
{
closed = 1;
nodes = (
(361,0,ls),
(504,0,o),
(593,68,o),
(593,189,cs),
(593,282,o),
(533,351,o),
(446,366,c),
(519,386,o),
(565,447,o),
(565,524,cs),
(565,642,o),
(479,700,o),
(350,700,cs),
(96,700,l),
(96,0,l)
);
},
{
closed = 1;
nodes = (
(141,342,l),
(359,342,ls),
(469,342,o),
(548,289,o),
(548,190,cs),
(548,89,o),
(471,39,o),
(359,39,cs),
(141,39,l)
);
},
{
closed = 1;
nodes = (
(141,661,l),
(347,661,ls),
(448,661,o),
(520,616,o),
(520,523,cs),
(520,431,o),
(450,382,o),
(347,382,cs),
(141,382,l)
);
}
);
};
layerId = "18A01495-E50D-4F2B-A1D8-5C332C731D93";
shapes = (
{
closed = 1;
nodes = (
(381,0,ls),
(493,0,o),
(582,73,o),
(582,193,cs),
(582,298,o),
(510,345,o),
(455,355,c),
(514,372,o),
(567,437,o),
(567,517,cs),
(567,632,o),
(484,700,o),
(374,700,cs),
(97,700,l),
(97,0,l)
);
},
{
closed = 1;
nodes = (
(142,335,l),
(379,335,ls),
(472,335,o),
(537,285,o),
(537,191,cs),
(537,88,o),
(470,40,o),
(378,40,cs),
(142,40,l)
);
},
{
closed = 1;
nodes = (
(142,660,l),
(378,660,ls),
(461,660,o),
(522,611,o),
(522,516,cs),
(522,424,o),
(461,375,o),
(371,375,cs),
(142,375,l)
);
}
);
width = 653;
},
{
background = {
shapes = (
{
closed = 1;
nodes = (
(401,0,ls),
(560,0,o),
(665,66,o),
(665,199,cs),
(665,281,o),
(618,338,o),
(546,362,c),
(604,386,o),
(647,438,o),
(647,518,cs),
(647,633,o),
(564,700,o),
(410,700,cs),
(65,700,l),
(65,0,l)
);
},
{
closed = 1;
nodes = (
(254,290,l),
(373,290,ls),
(435,290,o),
(471,266,o),
(471,215,cs),
(471,164,o),
(435,141,o),
(372,141,cs),
(254,141,l)
);
},
{
closed = 1;
nodes = (
(254,560,l),
(363,560,ls),
(422,560,o),
(454,537,o),
(454,490,cs),
(454,439,o),
(422,417,o),
(363,417,cs),
(254,417,l)
);
}
);
};
layerId = "9D32FE6F-9470-45EF-9689-909A6F5CE504";
shapes = (
{
closed = 1;
nodes = (
(441,0,ls),
(585,0,o),
(666,90,o),
(666,210,cs),
(666,278,o),
(637,332,o),
(571,367,c),
(616,398,o),
(641,437,o),
(641,500,cs),
(641,620,o),
(546,700,o),
(416,700,cs),
(66,700,l),
(66,0,l)
);
},
{
closed = 1;
nodes = (
(266,280,l),
(394,280,ls),
(438,280,o),
(466,261,o),
(466,220,cs),
(466,179,o),
(438,159,o),
(394,159,cs),
(266,159,l)
);
},
{
closed = 1;
nodes = (
(266,540,l),
(374,540,ls),
(418,540,o),
(440,521,o),
(440,485,cs),
(440,450,o),
(418,430,o),
(374,430,cs),
(266,430,l)
);
}
);
width = 700;
}
);
note = B;
unicode = 66;
},
{
color = 9;
glyphname = C;
kernLeft = C;
kernRight = C;
lastChange = "2023-01-12 12:58:03 +0000";
layers = (
{
background = {
shapes = (
{
closed = 1;
nodes = (
(535,-10,o),
(654,84,o),
(679,231,c),
(586,231,l),
(561,130,o),
(480,70,o),
(377,70,cs),
(235,70,o),
(135,187,o),
(135,351,cs),
(135,514,o),
(233,630,o),
(377,630,cs),
(479,630,o),
(563,571,o),
(586,470,c),
(679,470,l),
(657,616,o),
(534,710,o),
(377,710,cs),
(184,710,o),
(45,561,o),
(45,351,cs),
(45,141,o),
(181,-10,o),
(377,-10,cs)
);
}
);
};
layerId = "30E869CF-9A31-4D47-9626-61B8364FC2DA";
shapes = (
{
closed = 1;
nodes = (
(547,-10,o),
(668,78,o),
(691,235,c),
(605,235,l),
(585,131,o),
(500,70,o),
(385,70,cs),
(232,70,o),
(135,179,o),
(135,349,c),
(135,515,o),
(240,630,o),
(386,630,cs),
(505,630,o),
(579,572,o),
(597,478,c),
(683,478,l),
(663,629,o),
(543,710,o),
(385,710,cs),
(191,710,o),
(45,562,o),
(45,349,c),
(45,130,o),
(174,-10,o),
(384,-10,cs)
);
}
);
width = 736;
},
{
background = {
shapes = (
{
closed = 1;
nodes = (
(522,-10,o),
(631,85,o),
(662,221,c),
(617,221,l),
(586,101,o),
(488,30,o),
(374,30,cs),
(217,30,o),
(97,163,o),
(97,350,cs),
(97,538,o),
(216,670,o),
(374,670,cs),
(488,670,o),
(589,599,o),
(617,480,c),
(662,480,l),
(636,614,o),
(523,710,o),
(374,710,cs),
(188,710,o),
(52,559,o),
(52,350,cs),
(52,143,o),
(186,-10,o),
(374,-10,cs)
);
}
);
};
layerId = "18A01495-E50D-4F2B-A1D8-5C332C731D93";
shapes = (
{
closed = 1;
nodes = (
(530,-10,o),
(645,72,o),
(672,224,c),
(623,224,l),
(597,99,o),
(504,30,o),
(377,30,cs),
(203,30,o),
(96,153,o),
(96,350,cs),
(96,539,o),
(213,670,o),
(379,670,cs),
(513,670,o),
(590,605,o),
(613,491,c),
(663,491,l),
(641,635,o),
(525,710,o),
(379,710,cs),
(193,710,o),
(51,562,o),
(51,349,cs),
(51,132,o),
(177,-10,o),
(377,-10,cs)
);
}
);
width = 711;
},
{
background = {
shapes = (
{
closed = 1;
nodes = (
(574,-10,o),
(716,94,o),
(734,258,c),
(536,258,l),
(521,195,o),
(469,153,o),
(392,153,cs),
(294,153,o),
(230,238,o),
(230,353,cs),
(230,464,o),
(292,549,o),
(392,549,cs),
(469,549,o),
(523,506,o),
(536,444,c),
(733,444,l),
(714,627,o),
(552,710,o),
(392,710,cs),
(163,710,o),
(30,550,o),
(30,353,cs),
(30,125,o),
(188,-10,o),
(391,-10,cs)
);
}
);
};
guides = (
{
pos = (7,350);
}
);
layerId = "9D32FE6F-9470-45EF-9689-909A6F5CE504";
shapes = (
{
closed = 1;
nodes = (
(597,-10,o),
(720,89,o),
(731,261,c),
(530,260,l),
(516,196,o),
(467,159,o),
(394,160,cs),
(291,161,o),
(230,229,o),
(230,350,cs),
(230,472,o),
(290,540,o),
(394,540,cs),
(468,540,o),
(514,506,o),
(527,440,c),
(727,440,l),
(711,618,o),
(596,710,o),
(394,710,cs),
(177,710,o),
(30,564,o),
(30,350,cs),
(30,119,o),
(161,-10,o),
(394,-10,cs)
);
}
);
width = 761;
}
);
note = C;
unicode = 67;
},
{
color = 9;
glyphname = D;
kernRight = D;
lastChange = "2023-01-14 20:54:28 +0000";
layers = (
{
background = {
shapes = (
{
closed = 1;
nodes = (
(320,0,ls),
(539,0,o),
(673,136,o),
(673,351,cs),
(673,570,o),
(542,700,o),
(320,700,cs),
(87,700,l),
(87,0,l)
);
},
{
closed = 1;
nodes = (
(177,620,l),
(309,620,ls),
(479,620,o),
(575,519,o),
(575,351,cs),
(575,186,o),
(480,80,o),
(309,80,cs),
(177,80,l)
);
}
);
};
layerId = "30E869CF-9A31-4D47-9626-61B8364FC2DA";
shapes = (
{
closed = 1;
nodes = (
(320,0,ls),
(539,0,o),
(673,136,o),
(673,351,cs),
(673,570,o),
(542,700,o),
(320,700,cs),
(87,700,l),
(87,0,l)
);
},
{
closed = 1;
nodes = (
(177,620,l),
(309,620,ls),
(479,620,o),
(575,519,o),
(575,351,cs),
(575,186,o),
(480,80,o),
(309,80,cs),
(177,80,l)
);
}
);
width = 721;
},
{
background = {
shapes = (
{
closed = 1;
nodes = (
(307,0,ls),
(499,0,o),
(654,121,o),
(654,352,cs),
(654,556,o),
(532,700,o),
(307,700,cs),
(96,700,l),
(96,0,l)
);
},
{
closed = 1;
nodes = (
(141,660,l),
(303,660,ls),
(496,660,o),
(609,538,o),
(609,352,cs),
(609,169,o),
(498,40,o),
(303,40,cs),
(141,40,l)
);
}
);
};
layerId = "18A01495-E50D-4F2B-A1D8-5C332C731D93";
shapes = (
{
closed = 1;
nodes = (
(307,0,ls),
(499,0,o),
(654,121,o),
(654,352,cs),
(654,556,o),
(532,700,o),
(307,700,cs),
(96,700,l),
(96,0,l)
);
},
{
closed = 1;
nodes = (
(141,660,l),
(303,660,ls),
(496,660,o),
(609,538,o),
(609,352,cs),
(609,169,o),
(498,40,o),
(303,40,cs),
(141,40,l)
);
}
);
width = 706;
},
{
background = {
shapes = (
{
closed = 1;
nodes = (
(348,-2,ls),
(571,-2,o),
(727,126,o),
(727,352,cs),
(727,579,o),
(581,698,o),
(358,698,cs),
(67,698,l),
(67,-2,l)
);
},
{
closed = 1;
nodes = (
(267,528,l),
(347,528,ls),
(440,528,o),
(528,479,o),
(528,352,cs),
(528,225,o),
(440,168,o),
(347,168,cs),
(267,168,l)
);
}
);
};
layerId = "9D32FE6F-9470-45EF-9689-909A6F5CE504";
shapes = (
{
closed = 1;
nodes = (
(348,-2,ls),
(571,-2,o),
(727,127,o),
(727,352,cs),
(727,577,o),
(581,698,o),
(358,698,cs),
(67,698,l),
(67,-2,l)
);
},
{
closed = 1;
nodes = (
(267,528,l),
(347,528,ls),
(442,528,o),
(528,472,o),
(528,352,cs),
(528,232,o),
(442,168,o),
(347,168,cs),
(267,168,l)
);
}
);
width = 756;
}
);
note = D;
unicode = 68;
},
{
color = 9;
glyphname = E;
kernRight = E;
lastChange = "2023-01-10 12:34:14 +0000";
layers = (
{
background = {
shapes = (
{
closed = 1;
nodes = (
(579,0,l),
(579,80,l),
(178,80,l),
(178,321,l),
(542,321,l),
(542,401,l),
(178,401,l),
(178,621,l),
(573,621,l),
(573,700,l),
(88,700,l),
(88,0,l)
);
}
);
};
layerId = "30E869CF-9A31-4D47-9626-61B8364FC2DA";
shapes = (
{
closed = 1;
nodes = (
(579,0,l),
(579,80,l),
(178,80,l),
(178,321,l),
(542,321,l),
(542,401,l),
(178,401,l),
(178,621,l),
(573,621,l),
(573,700,l),
(88,700,l),
(88,0,l)
);
}
);
width = 632;
},
{
background = {
shapes = (
{
closed = 1;
nodes = (
(564,0,l),
(564,40,l),
(141,40,l),
(141,339,l),
(527,339,l),
(527,379,l),
(141,379,l),
(141,660,l),
(558,660,l),
(558,700,l),
(96,700,l),
(96,0,l)
);
}
);
};
layerId = "18A01495-E50D-4F2B-A1D8-5C332C731D93";
shapes = (
{
closed = 1;
nodes = (
(564,0,l),
(564,40,l),
(141,40,l),
(141,339,l),
(527,339,l),
(527,379,l),
(141,379,l),
(141,660,l),
(558,660,l),
(558,700,l),
(96,700,l),
(96,0,l)
);
}
);
width = 618;
},
{
layerId = "9D32FE6F-9470-45EF-9689-909A6F5CE504";
shapes = (
{
closed = 1;
nodes = (
(605,0,l),
(605,170,l),
(265,170,l),
(265,275,l),
(566,275,l),
(566,445,l),
(265,445,l),
(265,530,l),
(597,530,l),
(597,700,l),
(65,700,l),
(65,0,l)
);
}
);
width = 650;
}
);
note = E;
unicode = 69;
},
{
color = 9;
glyphname = F;
lastChange = "2023-01-10 12:34:14 +0000";
layers = (
{
background = {
shapes = (
{
closed = 1;
nodes = (
(178,0,l),
(178,315,l),
(506,315,l),
(506,394,l),
(178,394,l),
(178,621,l),
(545,621,l),
(545,700,l),
(88,700,l),
(88,0,l)
);
}
);
};
layerId = "30E869CF-9A31-4D47-9626-61B8364FC2DA";
shapes = (
{
closed = 1;
nodes = (
(178,0,l),
(178,315,l),
(506,315,l),
(506,394,l),
(178,394,l),
(178,621,l),
(545,621,l),
(545,700,l),
(88,700,l),
(88,0,l)
);
}
);
width = 580;
},
{
background = {
shapes = (
{
closed = 1;
nodes = (
(141,0,l),
(141,340,l),
(487,340,l),
(487,380,l),
(141,380,l),
(141,660,l),
(527,660,l),
(527,700,l),
(96,700,l),
(96,0,l)
);
}
);
};
layerId = "18A01495-E50D-4F2B-A1D8-5C332C731D93";
shapes = (
{
closed = 1;
nodes = (
(141,0,l),
(141,340,l),
(487,340,l),
(487,380,l),
(141,380,l),
(141,660,l),
(527,660,l),
(527,700,l),
(96,700,l),
(96,0,l)
);
}
);
width = 560;
},
{
background = {
shapes = (
{
closed = 1;
nodes = (
(256,0,l),
(256,250,l),
(546,250,l),
(546,405,l),
(256,405,l),
(256,539,l),
(580,539,l),
(580,700,l),
(65,700,l),
(65,0,l)
);
}
);
};
layerId = "9D32FE6F-9470-45EF-9689-909A6F5CE504";
shapes = (
{
closed = 1;
nodes = (
(265,0,l),
(265,242,l),
(546,242,l),
(546,412,l),
(265,412,l),
(265,530,l),
(580,530,l),
(580,700,l),
(65,700,l),
(65,0,l)
);
}
);
width = 609;
}
);
note = F;
unicode = 70;
},
{
color = 9;
glyphname = G;
kernLeft = C;
kernRight = G;
lastChange = "2023-01-12 12:37:52 +0000";
layers = (
{
background = {
shapes = (
{
closed = 1;
nodes = (
(479,-10,o),
(564,37,o),
(611,112,c),
(611,0,l),
(693,0,l),
(693,359,l),
(393,359,l),
(393,279,l),
(609,279,l),
(609,276,ls),
(609,144,o),
(495,70,o),
(382,70,cs),
(240,70,o),
(143,186,o),
(143,351,cs),
(143,514,o),
(241,630,o),
(387,630,cs),
(485,630,o),
(573,575,o),
(596,478,c),
(689,478,l),
(665,626,o),
(536,710,o),
(387,710,cs),
(188,710,o),
(48,563,o),
(48,351,cs),
(48,147,o),
(177,-10,o),
(374,-10,cs)
);
}
);
};
layerId = "30E869CF-9A31-4D47-9626-61B8364FC2DA";
shapes = (
{
closed = 1;
nodes = (
(495,-10,o),
(574,27,o),
(620,98,c),
(620,6,l),
(700,6,l),
(700,354,l),
(417,354,l),
(417,274,l),
(614,274,l),
(614,272,ls),
(614,147,o),
(531,70,o),
(393,70,cs),
(232,70,o),
(140,180,o),
(140,353,cs),
(140,516,o),
(244,627,o),
(394,630,cs),
(508,632,o),
(581,581,o),
(600,491,c),
(685,491,l),
(663,633,o),
(551,710,o),
(393,710,cs),
(196,710,o),
(50,560,o),
(50,353,cs),
(50,130,o),
(181,-10,o),
(390,-10,cs)
);
}
);
width = 768;
},
{
background = {
shapes = (
{
closed = 1;
nodes = (
(493,-10,o),
(587,55,o),
(628,153,c),
(628,0,l),
(668,0,l),
(668,339,l),
(378,339,l),
(378,299,l),
(628,299,l),
(628,294,ls),
(628,126,o),
(517,30,o),
(374,30,cs),
(223,30,o),
(95,150,o),
(95,350,cs),
(95,526,o),
(201,670,o),
(375,670,cs),
(487,670,o),
(587,608,o),
(617,490,c),
(662,490,l),
(633,627,o),
(514,710,o),
(375,710,cs),
(173,710,o),
(50,546,o),
(50,350,cs),
(50,130,o),
(194,-10,o),
(373,-10,cs)
);
}
);
};
layerId = "18A01495-E50D-4F2B-A1D8-5C332C731D93";
shapes = (
{
closed = 1;
nodes = (
(496,-10,o),
(584,33,o),
(630,128,c),
(630,0,l),
(670,0,l),
(670,339,l),
(378,339,l),
(378,299,l),
(630,299,l),
(630,294,ls),
(630,126,o),
(524,30,o),
(374,30,cs),
(199,30,o),
(95,150,o),
(95,350,cs),
(95,530,o),
(205,670,o),
(375,670,cs),
(505,670,o),
(600,601,o),
(619,490,c),
(664,490,l),
(640,625,o),
(540,710,o),
(375,710,cs),
(173,710,o),
(50,546,o),
(50,350,cs),
(50,130,o),
(168,-10,o),
(373,-10,cs)
);
}
);
width = 750;
},
{
background = {
shapes = (
{
closed = 1;
nodes = (
(466,-12,o),
(538,23,o),
(586,78,c),
(586,0,l),
(750,0,l),
(750,391,l),
(421,391,l),
(421,252,l),
(571,252,l),
(570,248,ls),
(553,182,o),
(489,143,o),
(413,143,cs),
(306,143,o),
(237,223,o),
(237,350,cs),
(237,469,o),
(301,554,o),
(411,554,cs),
(476,554,o),
(534,526,o),
(551,467,c),
(748,467,l),
(724,628,o),
(575,710,o),
(409,710,cs),
(173,710,o),
(38,555,o),
(38,350,cs),
(38,125,o),
(193,-12,o),
(372,-12,cs)
);
}
);
};
guides = (
{
pos = (351,540);
},
{
pos = (360,160);
}
);
layerId = "9D32FE6F-9470-45EF-9689-909A6F5CE504";
shapes = (
{
closed = 1;
nodes = (
(478,-10,o),
(542,21,o),
(584,62,c),
(584,0,l),
(749,0,l),
(749,391,l),
(415,391,l),
(415,246,l),
(551,246,l),
(548,240,ls),
(524,188,o),
(468,160,o),
(396,160,cs),
(288,160,o),
(230,234,o),
(230,350,cs),
(230,466,o),
(288,540,o),
(396,540,cs),
(482,540,o),
(521,502,o),
(532,447,c),
(732,447,l),
(721,633,o),
(571,710,o),
(396,710,cs),
(165,710,o),
(30,555,o),
(30,350,cs),
(30,145,o),
(160,-10,o),
(396,-10,cs)
);
}
);
width = 804;
}
);
note = G;
unicode = 71;
},
{
color = 9;
glyphname = H;
lastChange = "2023-01-10 12:34:14 +0000";
layers = (
{
background = {
shapes = (
{
closed = 1;
nodes = (
(180,0,l),
(180,324,l),
(570,324,l),
(570,0,l),
(660,0,l),
(660,700,l),
(570,700,l),
(570,404,l),
(180,404,l),
(180,700,l),
(90,700,l),
(90,0,l)
);
}
);
};
layerId = "30E869CF-9A31-4D47-9626-61B8364FC2DA";
shapes = (
{
closed = 1;
nodes = (
(180,0,l),
(180,324,l),
(570,324,l),
(570,0,l),
(660,0,l),
(660,700,l),
(570,700,l),
(570,404,l),
(180,404,l),
(180,700,l),
(90,700,l),
(90,0,l)
);
}
);
width = 750;
},
{
background = {
shapes = (
{
closed = 1;
nodes = (
(140,0,l),
(140,344,l),
(580,344,l),
(580,0,l),
(625,0,l),
(625,700,l),
(580,700,l),
(580,384,l),
(140,384,l),
(140,700,l),
(95,700,l),
(95,0,l)
);
}
);
};
layerId = "18A01495-E50D-4F2B-A1D8-5C332C731D93";
shapes = (
{
closed = 1;
nodes = (
(140,0,l),
(140,344,l),
(580,344,l),
(580,0,l),
(625,0,l),
(625,700,l),
(580,700,l),
(580,384,l),
(140,384,l),
(140,700,l),
(95,700,l),
(95,0,l)
);
}
);
width = 720;
},
{
background = {
shapes = (
{
closed = 1;
nodes = (
(258,0,l),
(258,275,l),
(530,275,l),
(530,0,l),
(724,0,l),
(724,700,l),
(530,700,l),
(530,437,l),
(258,437,l),
(258,700,l),
(65,700,l),
(65,0,l)
);
}
);
};
layerId = "9D32FE6F-9470-45EF-9689-909A6F5CE504";
shapes = (
{
closed = 1;
nodes = (
(265,0,l),
(265,271,l),
(524,271,l),
(524,0,l),
(724,0,l),
(724,700,l),
(524,700,l),
(524,441,l),
(265,441,l),
(265,700,l),
(65,700,l),
(65,0,l)
);
}
);
width = 788;
}
);
note = H;
unicode = 72;
},
{
color = 9;
glyphname = I;
lastChange = "2023-01-10 12:34:14 +0000";
layers = (
{
background = {
shapes = (
{
closed = 1;
nodes = (
(180,0,l),
(180,700,l),
(90,700,l),
(90,0,l)
);
}
);
};
layerId = "30E869CF-9A31-4D47-9626-61B8364FC2DA";
shapes = (
{
closed = 1;
nodes = (
(180,0,l),
(180,700,l),
(90,700,l),
(90,0,l)
);
}
);
width = 270;
},
{
background = {
shapes = (
{
closed = 1;
nodes = (
(140,0,l),
(140,700,l),
(95,700,l),
(95,0,l)
);
}
);
};
layerId = "18A01495-E50D-4F2B-A1D8-5C332C731D93";
shapes = (
{
closed = 1;
nodes = (
(140,0,l),
(140,700,l),
(95,700,l),
(95,0,l)
);
}
);
width = 235;
},
{
background = {
shapes = (
{
closed = 1;
nodes = (
(261,0,l),
(261,700,l),
(68,700,l),
(68,0,l)
);
}
);
};
layerId = "9D32FE6F-9470-45EF-9689-909A6F5CE504";
shapes = (
{
closed = 1;
nodes = (
(265,0,l),
(265,700,l),
(65,700,l),
(65,0,l)
);
}
);
width = 330;
}
);
note = I;
unicode = 73;
},
{
color = 9;
glyphname = J;
kernLeft = J;
kernRight = J;
lastChange = "2023-01-10 12:34:14 +0000";
layers = (
{
background = {
shapes = (
{
closed = 1;
nodes = (
(415,-10,o),
(494,87,o),
(494,221,cs),
(494,700,l),
(404,700,l),
(404,222,ls),
(404,127,o),
(350,70,o),
(264,70,cs),
(172,70,o),
(125,127,o),
(120,228,c),
(30,228,l),
(38,72,o),
(121,-10,o),
(264,-10,cs)
);
}
);
};
layerId = "30E869CF-9A31-4D47-9626-61B8364FC2DA";
shapes = (
{
closed = 1;
nodes = (
(415,-10,o),
(494,87,o),
(494,221,cs),
(494,700,l),
(404,700,l),
(404,222,ls),
(404,127,o),
(350,70,o),
(264,70,cs),
(176,70,o),
(120,121,o),
(120,213,cs),
(120,228,l),
(30,228,l),
(30,213,ls),
(30,65,o),
(125,-10,o),
(264,-10,cs)
);
}
);
width = 572;
},
{
background = {
shapes = (
{
closed = 1;
nodes = (
(386,-10,o),
(467,76,o),
(467,210,cs),
(467,700,l),
(422,700,l),
(422,211,ls),
(422,104,o),
(361,30,o),
(255,30,cs),
(156,30,o),
(92,89,o),
(83,208,c),
(38,208,l),
(48,80,o),
(119,-10,o),
(255,-10,cs)
);
}
);
};
layerId = "18A01495-E50D-4F2B-A1D8-5C332C731D93";
shapes = (
{
closed = 1;
nodes = (
(386,-10,o),
(467,76,o),
(467,210,cs),
(467,700,l),
(422,700,l),
(422,211,ls),
(422,104,o),
(361,30,o),
(255,30,cs),
(159,30,o),
(83,85,o),
(83,198,cs),
(83,208,l),
(38,208,l),
(38,198,ls),
(38,74,o),
(123,-10,o),
(255,-10,cs)
);
}
);
width = 551;
},
{
background = {
shapes = (
{
closed = 1;
nodes = (
(473,-13,o),
(584,74,o),
(584,263,cs),
(584,700,l),
(391,700,l),
(391,263,ls),
(391,194,o),
(361,151,o),
(301,151,cs),
(237,151,o),
(210,195,o),
(208,276,c),
(17,276,l),
(26,85,o),
(118,-13,o),
(301,-13,cs)
);
}
);
};
layerId = "9D32FE6F-9470-45EF-9689-909A6F5CE504";
shapes = (
{
closed = 1;
nodes = (
(473,-13,o),
(584,74,o),
(584,263,cs),
(584,700,l),
(391,700,l),
(391,263,ls),
(391,194,o),
(361,151,o),
(301,151,cs),
(241,151,o),
(208,185,o),
(208,256,cs),
(208,276,l),
(17,276,l),
(17,256,ls),
(17,75,o),
(123,-13,o),
(301,-13,cs)
);
}
);
width = 642;
}
);
note = J;
unicode = 74;
},
{
color = 5;
glyphname = K;
kernRight = K;
lastChange = "2023-01-10 12:34:14 +0000";
layers = (
{
background = {
shapes = (
{
closed = 1;
nodes = (
(178,0,l),
(178,229,l),
(308,358,l),
(546,0,l),
(656,0,l),
(374,420,l),
(656,700,l),
(541,700,l),
(178,339,l),
(178,700,l),
(88,700,l),
(88,0,l)
);
}
);
};
layerId = "30E869CF-9A31-4D47-9626-61B8364FC2DA";
shapes = (
{
closed = 1;
nodes = (
(178,0,l),
(178,229,l),
(308,358,l),
(546,0,l),
(656,0,l),
(374,420,l),
(656,700,l),
(541,700,l),
(178,339,l),
(178,700,l),
(88,700,l),
(88,0,l)
);
}
);
width = 673;
},
{
background = {
shapes = (
{
closed = 1;
nodes = (
(141,0,l),
(141,243,l),
(293,391,l),
(563,0,l),
(618,0,l),
(324,421,l),
(617,700,l),
(557,700,l),
(141,298,l),
(141,700,l),
(96,700,l),
(96,0,l)
);
}
);
};
layerId = "18A01495-E50D-4F2B-A1D8-5C332C731D93";
shapes = (
{
closed = 1;
nodes = (
(141,0,l),
(141,243,l),
(293,391,l),
(563,0,l),
(618,0,l),
(324,421,l),
(617,700,l),
(557,700,l),
(141,298,l),
(141,700,l),
(96,700,l),
(96,0,l)
);
}
);
width = 642;
},
{
background = {
shapes = (
{
closed = 1;
nodes = (
(255,0,l),
(255,171,l),
(352,280,l),
(519,0,l),
(741,0,l),
(489,416,l),
(739,700,l),
(506,700,l),
(255,407,l),
(255,700,l),
(65,700,l),
(65,0,l)
);
}
);
};
layerId = "9D32FE6F-9470-45EF-9689-909A6F5CE504";
shapes = (
{
closed = 1;
nodes = (
(255,0,l),
(255,171,l),
(352,280,l),
(519,0,l),
(741,0,l),
(489,416,l),
(739,700,l),
(506,700,l),
(255,407,l),
(255,700,l),
(65,700,l),
(65,0,l)
);
}
);
width = 750;
}
);
note = K;
unicode = 75;
},
{
color = 9;
glyphname = L;
kernRight = L;
lastChange = "2023-01-10 12:34:14 +0000";
layers = (
{
background = {
shapes = (
{
closed = 1;
nodes = (
(536,0,l),
(536,80,l),
(178,80,l),
(178,700,l),
(88,700,l),
(88,0,l)
);
}
);
};
layerId = "30E869CF-9A31-4D47-9626-61B8364FC2DA";
shapes = (
{
closed = 1;
nodes = (
(536,0,l),
(536,80,l),
(178,80,l),
(178,700,l),
(88,700,l),
(88,0,l)
);
}
);
width = 566;
},
{
background = {
shapes = (
{
closed = 1;
nodes = (
(521,0,l),
(521,40,l),
(139,40,l),
(139,700,l),
(96,700,l),
(96,0,l)
);
}
);
};
layerId = "18A01495-E50D-4F2B-A1D8-5C332C731D93";
shapes = (
{
closed = 1;
nodes = (
(521,0,l),
(521,40,l),
(139,40,l),
(139,700,l),
(96,700,l),
(96,0,l)
);
}
);
width = 551;
},
{
background = {
shapes = (
{
closed = 1;
nodes = (
(576,0,l),
(576,163,l),
(258,163,l),
(258,700,l),
(65,700,l),
(65,0,l)
);
}
);
};
layerId = "9D32FE6F-9470-45EF-9689-909A6F5CE504";
shapes = (
{
closed = 1;
nodes = (
(576,0,l),
(576,170,l),
(265,170,l),
(265,700,l),
(65,700,l),
(65,0,l)
);
}
);
width = 602;
}
);
note = L;
unicode = 76;
},
{
color = 9;
glyphname = M;
lastChange = "2023-01-12 12:54:48 +0000";
layers = (
{
background = {
shapes = (
{
closed = 1;
nodes = (
(180,0,l),
(180,622,l),
(407,0,l),
(507,0,l),
(735,624,l),
(735,0,l),
(825,0,l),
(825,700,l),
(682,700,l),
(459,94,l),
(236,700,l),
(90,700,l),
(90,0,l)
);
}
);
};
layerId = "30E869CF-9A31-4D47-9626-61B8364FC2DA";
shapes = (
{
closed = 1;
nodes = (
(180,0,l),
(180,622,l),
(407,0,l),
(507,0,l),
(735,624,l),
(735,0,l),
(825,0,l),
(825,700,l),
(672,700,l),
(459,122,l),
(246,700,l),
(90,700,l),
(90,0,l)
);
}
);
width = 915;
},
{
background = {
shapes = (
{
closed = 1;
nodes = (
(140,0,l),
(140,657,l),
(418,0,l),
(468,0,l),
(746,657,l),
(746,0,l),
(791,0,l),
(791,700,l),
(724,700,l),
(443,48,l),
(163,700,l),
(95,700,l),
(95,0,l)
);
}
);
};
layerId = "18A01495-E50D-4F2B-A1D8-5C332C731D93";
shapes = (
{
closed = 1;
nodes = (
(140,0,l),
(140,657,l),
(418,0,l),
(468,0,l),
(746,657,l),
(746,0,l),
(791,0,l),
(791,700,l),
(717,700,l),
(443,65,l),
(170,700,l),
(95,700,l),
(95,0,l)
);
}
);
width = 886;
},
{
background = {
shapes = (
{
closed = 1;
nodes = (
(246,0,l),
(246,510,l),
(401,0,l),
(567,0,l),
(722,511,l),
(722,0,l),
(904,0,l),
(904,700,l),
(627,700,l),
(486,229,l),
(345,700,l),
(65,700,l),
(65,0,l)
);
}
);
};
layerId = "9D32FE6F-9470-45EF-9689-909A6F5CE504";
shapes = (
{
closed = 1;
nodes = (
(265,0,l),
(265,382,l),
(381,0,l),
(587,0,l),
(704,386,l),
(704,0,l),
(904,0,l),
(904,700,l),
(607,700,l),
(486,296,l),
(365,700,l),
(65,700,l),
(65,0,l)
);
}
);
width = 968;
}
);
note = M;
unicode = 77;
},
{
color = 9;
glyphname = N;
lastChange = "2023-01-12 12:54:48 +0000";
layers = (
{
background = {
shapes = (
{
closed = 1;
nodes = (
(180,0,l),
(180,592,l),
(548,0,l),
(668,0,l),
(668,700,l),
(578,700,l),
(578,108,l),
(210,700,l),
(90,700,l),
(90,0,l)
);
}
);
};
layerId = "30E869CF-9A31-4D47-9626-61B8364FC2DA";
shapes = (
{
closed = 1;
nodes = (
(180,0,l),
(180,583,l),
(543,0,l),
(668,0,l),
(668,700,l),
(578,700,l),
(578,117,l),
(215,700,l),
(90,700,l),
(90,0,l)
);
}
);
width = 758;
},
{
background = {
shapes = (
{
closed = 1;
nodes = (
(140,0,l),
(140,646,l),
(582,0,l),
(642,0,l),
(642,700,l),
(597,700,l),
(597,54,l),
(155,700,l),
(95,700,l),
(95,0,l)
);
}
);
};
layerId = "18A01495-E50D-4F2B-A1D8-5C332C731D93";
shapes = (
{
closed = 1;
nodes = (
(140,0,l),
(140,644,l),
(580,0,l),
(642,0,l),
(642,700,l),
(597,700,l),
(597,58,l),
(158,700,l),
(95,700,l),
(95,0,l)
);
}
);
width = 737;
},
{
background = {
shapes = (
{
closed = 1;
nodes = (
(250,0,l),
(250,446,l),
(506,0,l),
(730,0,l),
(730,700,l),
(544,700,l),
(544,253,l),
(288,700,l),
(65,700,l),
(65,0,l)
);
}
);
};
layerId = "9D32FE6F-9470-45EF-9689-909A6F5CE504";
shapes = (
{
closed = 1;
nodes = (
(265,0,l),
(265,386,l),
(486,0,l),
(730,0,l),
(730,700,l),
(530,700,l),
(530,312,l),
(308,700,l),
(65,700,l),
(65,0,l)
);
}
);
width = 794;
}
);
note = N;
unicode = 78;
},
{
color = 9;
glyphname = O;
kernLeft = C;
kernRight = D;
lastChange = "2023-01-11 13:52:36 +0000";
layers = (
{
background = {
shapes = (
{
closed = 1;
nodes = (
(586,-10,o),
(727,140,o),
(727,352,cs),
(727,564,o),
(588,710,o),
(387,710,cs),
(189,710,o),
(48,564,o),
(48,352,cs),
(48,140,o),
(187,-10,o),
(387,-10,cs)
);
},
{
closed = 1;
nodes = (
(242,70,o),
(138,182,o),
(138,352,cs),
(138,520,o),
(240,630,o),
(387,630,cs),
(533,630,o),
(637,521,o),
(637,352,cs),
(637,183,o),
(534,70,o),
(387,70,cs)
);
}
);
};
layerId = "30E869CF-9A31-4D47-9626-61B8364FC2DA";
shapes = (
{
closed = 1;
nodes = (
(586,-10,o),
(727,140,o),
(727,352,cs),
(727,564,o),
(588,710,o),
(387,710,cs),
(189,710,o),
(48,564,o),
(48,352,cs),
(48,140,o),
(187,-10,o),
(387,-10,cs)
);
},
{
closed = 1;
nodes = (
(242,70,o),
(138,182,o),
(138,352,cs),
(138,520,o),
(240,630,o),
(387,630,cs),
(533,630,o),
(637,521,o),
(637,352,cs),
(637,183,o),
(534,70,o),
(387,70,cs)
);
}
);
width = 775;
},
{
background = {
shapes = (
{
closed = 1;
nodes = (
(587,-10,o),
(713,155,o),
(713,350,cs),
(713,574,o),
(562,710,o),
(382,710,cs),
(177,710,o),
(52,546,o),
(52,350,cs),
(52,129,o),
(201,-10,o),
(382,-10,cs)
);
},
{
closed = 1;
nodes = (
(233,32,o),
(97,148,o),
(97,350,cs),
(97,528,o),
(208,670,o),
(382,670,cs),
(532,670,o),
(668,556,o),
(668,350,cs),
(668,175,o),
(558,32,o),
(382,32,cs)
);
}
);
};
layerId = "18A01495-E50D-4F2B-A1D8-5C332C731D93";
shapes = (
{
closed = 1;
nodes = (
(587,-10,o),
(713,155,o),
(713,350,cs),
(713,574,o),
(562,710,o),
(382,710,cs),
(177,710,o),
(52,546,o),
(52,350,cs),
(52,129,o),
(201,-10,o),
(382,-10,cs)
);
},
{
closed = 1;
nodes = (
(233,32,o),
(97,148,o),
(97,350,cs),
(97,528,o),
(208,670,o),
(382,670,cs),
(532,670,o),
(668,556,o),
(668,350,cs),
(668,175,o),
(558,32,o),
(382,32,cs)
);
}
);
width = 765;
},
{
background = {
shapes = (
{
closed = 1;
nodes = (
(624,-13,o),
(764,140,o),
(764,350,cs),
(764,552,o),
(632,710,o),
(397,710,cs),
(196,710,o),
(30,581,o),
(30,350,cs),
(30,149,o),
(161,-13,o),
(397,-13,cs)
);
},
{
closed = 1;
nodes = (
(295,150,o),
(230,233,o),
(230,350,cs),
(230,466,o),
(294,549,o),
(397,549,cs),
(498,549,o),
(564,466,o),
(564,350,cs),
(564,234,o),
(500,150,o),
(397,150,cs)
);
}
);
};
layerId = "9D32FE6F-9470-45EF-9689-909A6F5CE504";
shapes = (
{
closed = 1;
nodes = (
(611,-13,o),
(765,125,o),
(765,350,cs),
(765,575,o),
(611,710,o),
(395,710,cs),
(179,710,o),
(25,575,o),
(25,350,cs),
(25,125,o),
(179,-13,o),
(395,-13,cs)
);
},
{
closed = 1;
nodes = (
(279,157,o),
(225,245,o),
(225,350,cs),
(225,455,o),
(279,540,o),
(395,540,cs),
(511,540,o),
(565,455,o),
(565,350,cs),
(565,245,o),
(511,157,o),
(395,157,cs)
);
}
);
width = 794;
}
);
note = O;
unicode = 79;
},
{
color = 9;
glyphname = P;
lastChange = "2023-01-11 13:51:00 +0000";
layers = (
{
background = {
shapes = (
{
closed = 1;
nodes = (
(178,0,l),
(178,272,l),
(350,272,ls),
(504,272,o),
(600,344,o),
(600,487,cs),
(600,628,o),
(507,700,o),
(351,700,cs),
(88,700,l),
(88,0,l)
);
},
{
closed = 1;
nodes = (
(178,620,l),
(350,620,ls),
(454,620,o),
(510,575,o),
(510,486,cs),
(510,397,o),
(456,352,o),
(350,352,cs),
(178,352,l)
);
}
);
};
guides = (
{
angle = 180;
pos = (250,264);
}
);
layerId = "30E869CF-9A31-4D47-9626-61B8364FC2DA";
shapes = (
{
closed = 1;
nodes = (
(364,264,ls),
(501,264,o),
(601,344,o),
(601,482,cs),
(601,619,o),
(501,700,o),
(364,700,cs),
(174,700,l),
(174,620,l),
(347,620,ls),
(452,620,o),
(511,571,o),
(511,482,cs),
(511,393,o),
(452,344,o),
(347,344,cs),
(174,344,l),
(174,264,l)
);
},
{
closed = 1;
nodes = (
(179,0,l),
(179,700,l),
(89,700,l),
(89,0,l)
);
}
);
width = 632;
},
{
background = {
shapes = (
{
closed = 1;
nodes = (
(141,0,l),
(141,292,l),
(342,292,ls),
(493,292,o),
(574,366,o),
(574,495,cs),
(574,624,o),
(495,700,o),
(343,700,cs),
(96,700,l),
(96,0,l)
);
},
{
closed = 1;
nodes = (
(141,660,l),
(342,660,ls),
(468,660,o),
(529,600,o),
(529,495,cs),
(529,392,o),
(469,332,o),
(342,332,cs),
(141,332,l)
);
}
);
};
layerId = "18A01495-E50D-4F2B-A1D8-5C332C731D93";
shapes = (
{
closed = 1;
nodes = (
(352,281,ls),
(483,281,o),
(576,360,o),
(576,490,c),
(576,619,o),
(483,700,o),
(352,700,cs),
(130,700,l),
(130,660,l),
(354,660,ls),
(465,660,o),
(531,604,o),
(531,489,cs),
(531,375,o),
(461,321,o),
(349,321,cs),
(130,321,l),
(130,281,l)
);
},
{
closed = 1;
nodes = (
(141,0,l),
(141,700,l),
(96,700,l),
(96,0,l)
);
}
);
width = 612;
},
{
background = {
shapes = (
{
closed = 1;
nodes = (
(257,0,l),
(257,221,l),
(377,221,ls),
(542,221,o),
(653,297,o),
(653,462,cs),
(653,633,o),
(533,700,o),
(377,700,cs),
(65,700,l),
(65,0,l)
);
},
{
closed = 1;
nodes = (
(257,552,l),
(350,552,ls),
(419,552,o),
(456,522,o),
(456,460,cs),
(456,399,o),
(421,369,o),
(350,369,cs),
(257,369,l)
);
}
);
};
layerId = "9D32FE6F-9470-45EF-9689-909A6F5CE504";
shapes = (
{
closed = 1;
nodes = (
(407,232,ls),
(560,232,o),
(653,320,o),
(653,467,cs),
(653,613,o),
(561,700,o),
(407,700,cs),
(179,700,l),
(179,540,l),
(377,539,ls),
(423,539,o),
(455,509,o),
(455,467,cs),
(455,424,o),
(423,392,o),
(377,392,cs),
(179,392,l),
(179,232,l)
);
},
{
closed = 1;
nodes = (
(265,0,l),
(265,700,l),
(65,700,l),
(65,0,l)
);
}
);
width = 672;
}
);
note = P;
unicode = 80;
},
{
color = 9;
glyphname = Q;
kernLeft = C;
lastChange = "2023-01-12 12:54:42 +0000";
layers = (
{
background = {
shapes = (
{
closed = 1;
nodes = (
(668,-18,l),
(591,75,l),
(517,30,l),
(603,-72,l)
);
},
{
ref = O;
}
);
};
guides = (
{
angle = 131.4965;
pos = (581,108);
},
{
angle = -48.6127;
pos = (528,63);
}
);
layerId = "30E869CF-9A31-4D47-9626-61B8364FC2DA";
shapes = (
{
closed = 1;
nodes = (
(696,-22,l),
(579,111,l),
(526,66,l),
(643,-68,l)
);
},
{
ref = O;
}
);
width = 775;
},
{
background = {
shapes = (
{
closed = 1;
nodes = (
(649,-26,l),
(574,64,l),
(536,39,l),
(614,-55,l)
);
},
{
ref = O;
}
);
};
guides = (
{
angle = 132.6997;
pos = (583,96);
},
{
angle = -47.3003;
pos = (549,63);
}
);
layerId = "18A01495-E50D-4F2B-A1D8-5C332C731D93";
shapes = (
{
closed = 1;
nodes = (
(696,-27,l),
(583,96,l),
(549,63,l),
(662,-60,l)
);
},
{
ref = O;
}
);
width = 765;
},
{
background = {
shapes = (
{
closed = 1;
nodes = (
(750,-39,l),
(643,93,l),
(502,19,l),
(593,-88,l)
);
},
{
ref = O;
}
);
};
guides = (
{
angle = 126.4018;
pos = (629,168);
},
{
angle = -53.5982;
pos = (483,61);
}
);
layerId = "9D32FE6F-9470-45EF-9689-909A6F5CE504";
shapes = (
{
closed = 1;
nodes = (
(752,0,l),
(614,189,l),
(468,82,l),
(606,-107,l)
);
},
{
ref = O;
}
);
width = 795;
}
);
note = Q;
unicode = 81;
},
{
color = 9;
glyphname = R;
kernRight = R;
lastChange = "2023-01-14 21:09:39 +0000";
layers = (
{
background = {
shapes = (
{
closed = 1;
nodes = (
(178,0,l),
(178,295,l),
(376,295,ls),
(548,295,o),
(619,388,o),
(619,498,cs),
(619,628,o),
(529,700,o),
(383,700,cs),
(88,700,l),
(88,0,l)
);
},
{
closed = 1;
nodes = (
(643,0,l),
(455,319,l),
(357,309,l),
(539,0,l)
);
},
{
closed = 1;
nodes = (
(178,620,l),
(379,620,ls),
(471,620,o),
(529,581,o),
(529,497,cs),
(529,415,o),
(472,375,o),
(379,375,cs),
(178,375,l)
);
}
);
};
layerId = "30E869CF-9A31-4D47-9626-61B8364FC2DA";
shapes = (
{
closed = 1;
nodes = (
(643,0,l),
(455,319,l),
(357,309,l),
(539,0,l)
);
},
{
closed = 1;
nodes = (
(178,0,l),
(178,700,l),
(88,700,l),
(88,0,l)
);
},
{
closed = 1;
nodes = (
(399,295,ls),
(526,295,o),
(619,369,o),
(619,497,cs),
(619,625,o),
(526,700,o),
(399,700,cs),
(152,700,l),
(152,620,l),
(377,620,ls),
(474,620,o),
(529,574,o),
(529,497,cs),
(529,421,o),
(474,375,o),
(377,375,cs),
(152,375,l),
(152,295,l)
);
}
);
width = 682;
},
{
background = {
shapes = (
{
closed = 1;
nodes = (
(141,0,l),
(141,318,l),
(381,318,ls),
(516,318,o),
(595,400,o),
(595,509,cs),
(595,624,o),
(515,700,o),
(375,700,cs),
(96,700,l),
(96,0,l)
);
},
{
closed = 1;
nodes = (
(617,0,l),
(414,331,l),
(366,328,l),
(567,0,l)
);
},
{
closed = 1;
nodes = (
(141,660,l),
(372,660,ls),
(485,660,o),
(550,604,o),
(550,509,cs),
(550,415,o),
(487,358,o),
(372,358,cs),
(141,358,l)
);
}
);
};
layerId = "18A01495-E50D-4F2B-A1D8-5C332C731D93";
shapes = (
{
closed = 1;
nodes = (
(617,0,l),
(414,331,l),
(366,328,l),
(567,0,l)
);
},
{
closed = 1;
nodes = (
(141,700,l),
(96,700,l),
(96,0,l),
(141,0,l)
);
},
{
closed = 1;
nodes = (
(390,317,ls),
(510,317,o),
(595,390,o),
(595,508,cs),
(595,626,o),
(510,700,o),
(390,700,cs),
(127,700,l),
(127,660,l),
(388,660,ls),
(489,660,o),
(550,609,o),
(550,507,cs),
(550,406,o),
(486,357,o),
(383,357,cs),
(127,357,l),
(127,317,l)
);
}
);
width = 661;
},
{
background = {
shapes = (
{
closed = 1;
nodes = (
(255,0,l),
(255,243,l),
(381,243,ls),
(630,243,o),
(669,381,o),
(669,479,cs),
(669,622,o),
(574,700,o),
(402,700,cs),
(65,700,l),
(65,0,l)
);
},
{
closed = 1;
nodes = (
(694,0,l),
(536,295,l),
(346,257,l),
(480,0,l)
);
},
{
closed = 1;
nodes = (
(255,552,l),
(374,552,ls),
(435,552,o),
(472,524,o),
(472,468,cs),
(472,413,o),
(436,386,o),
(374,386,cs),
(255,386,l)
);
}
);
};
layerId = "9D32FE6F-9470-45EF-9689-909A6F5CE504";
shapes = (
{
closed = 1;
nodes = (
(679,0,l),
(500,335,l),
(294,335,l),
(463,0,l)
);
},
{
closed = 1;
nodes = (
(265,0,l),
(265,700,l),
(65,700,l),
(65,0,l)
);
},
{
closed = 1;
nodes = (
(429,243,ls),
(579,243,o),
(669,329,o),
(669,472,cs),
(669,615,o),
(580,700,o),
(429,700,cs),
(207,700,l),
(207,530,l),
(412,529,ls),
(447,529,o),
(472,505,o),
(472,472,cs),
(472,439,o),
(447,413,o),
(412,413,cs),
(207,413,l),
(207,243,l)
);
}
);
width = 715;
}
);
note = R;
unicode = 82;
},
{
color = 9;
glyphname = S;
kernLeft = S;
kernRight = S;
lastChange = "2023-01-14 21:35:21 +0000";
layers = (
{
background = {
shapes = (
{
closed = 1;
nodes = (
(475,-10,o),
(588,67,o),
(588,193,cs),
(588,298,o),
(517,355,o),
(403,382,cs),
(266,414,ls),
(192,431,o),
(154,461,o),
(154,516,cs),
(154,586,o),
(228,630,o),
(315,630,cs),
(405,630,o),
(473,587,o),
(483,502,c),
(573,502,l),
(565,634,o),
(456,710,o),
(314,710,cs),
(176,710,o),
(64,631,o),
(64,512,cs),
(64,412,o),
(130,353,o),
(239,328,cs),
(372,297,ls),
(451,279,o),
(498,246,o),
(498,188,cs),
(498,116,o),
(424,70,o),
(324,70,cs),
(220,70,o),
(142,120,o),
(132,212,c),
(42,212,l),
(52,69,o),
(162,-10,o),
(323,-10,cs)
);
}
);
};
guides = (
{
angle = 73.6861;
pos = (255,377);
},
{
angle = 73.6861;
pos = (392,364);
}
);
layerId = "30E869CF-9A31-4D47-9626-61B8364FC2DA";
shapes = (
{
closed = 1;
nodes = (
(475,-10,o),
(588,67,o),
(588,193,cs),
(588,298,o),
(517,355,o),
(398,383,cs),
(266,414,ls),
(192,431,o),
(154,461,o),
(154,516,cs),
(154,586,o),
(228,630,o),
(315,630,cs),
(405,630,o),
(473,587,o),
(483,502,c),
(573,502,l),
(565,634,o),
(456,710,o),
(314,710,cs),
(176,710,o),
(64,631,o),
(64,512,cs),
(64,412,o),
(130,354,o),
(241,328,cs),
(372,297,ls),
(451,278,o),
(498,246,o),
(498,188,cs),
(498,116,o),
(424,70,o),
(324,70,cs),
(220,70,o),
(142,120,o),
(132,212,c),
(42,212,l),
(52,69,o),
(162,-10,o),
(323,-10,cs)
);
}
);
width = 636;
},
{
background = {
shapes = (
{
closed = 1;
nodes = (
(441,-10,o),
(566,55,o),
(566,182,cs),
(566,282,o),
(493,330,o),
(389,356,cs),
(249,391,ls),
(173,410,o),
(116,446,o),
(116,523,cs),
(116,610,o),
(201,670,o),
(310,670,cs),
(416,670,o),
(496,615,o),
(506,508,c),
(551,508,l),
(541,636,o),
(444,710,o),
(310,710,cs),
(172,710,o),
(71,629,o),
(71,522,cs),
(71,425,o),
(136,376,o),
(237,350,cs),
(375,315,ls),
(450,296,o),
(521,264,o),
(521,180,cs),
(521,78,o),
(418,30,o),
(311,30,cs),
(189,30,o),
(103,86,o),
(93,203,c),
(48,203,l),
(59,60,o),
(164,-10,o),
(311,-10,cs)
);
}
);
};
guides = (
{
angle = 73.6862;
pos = (243,373);
},
{
angle = 73.6862;
pos = (383,338);
}
);
layerId = "18A01495-E50D-4F2B-A1D8-5C332C731D93";
shapes = (
{
closed = 1;
nodes = (
(441,-10,o),
(566,55,o),
(566,182,cs),
(566,284,o),
(493,332,o),
(389,358,cs),
(249,393,ls),
(173,412,o),
(116,448,o),
(116,523,cs),
(116,610,o),
(201,670,o),
(310,670,cs),
(416,670,o),
(496,615,o),
(506,508,c),
(551,508,l),
(541,636,o),
(444,710,o),
(310,710,cs),
(172,710,o),
(71,629,o),
(71,522,cs),
(71,427,o),
(136,377,o),
(237,352,cs),
(377,317,ls),
(450,299,o),
(521,266,o),
(521,180,cs),
(521,78,o),
(418,30,o),
(311,30,cs),
(189,30,o),
(103,86,o),
(93,203,c),
(48,203,l),
(59,60,o),
(164,-10,o),
(311,-10,cs)
);
}
);
width = 619;
},
{
background = {
shapes = (
{
closed = 1;
nodes = (
(494,-13,o),
(641,61,o),
(641,215,cs),
(641,338,o),
(554,398,o),
(424,424,cs),
(311,447,ls),
(256,458,o),
(228,473,o),
(228,508,cs),
(228,544,o),
(267,571,o),
(323,571,cs),
(385,571,o),
(433,544,o),
(440,484,c),
(629,484,l),
(619,650,o),
(474,710,o),
(324,710,cs),
(158,710,o),
(38,621,o),
(38,490,cs),
(38,371,o),
(123,311,o),
(250,285,cs),
(360,263,ls),
(417,251,o),
(449,234,o),
(449,197,cs),
(449,151,o),
(403,129,o),
(343,129,cs),
(274,129,o),
(219,162,o),
(213,232,c),
(24,232,l),
(33,82,o),
(142,-13,o),
(340,-13,cs)
);
}
);
};
guides = (
{
angle = 90;
pos = (644,513);
},
{
angle = 90;
pos = (28,507);
},
{
angle = 73.6861;
pos = (393,338);
},
{
angle = 73.6861;
pos = (292,357);
}
);
layerId = "9D32FE6F-9470-45EF-9689-909A6F5CE504";
shapes = (
{
closed = 1;
nodes = (
(543,-10,o),
(630,95,o),
(630,220,cs),
(630,350,o),
(530,394,o),
(417,420,cs),
(317,443,ls),
(263,455,o),
(245,464,o),
(245,495,cs),
(245,525,o),
(277,545,o),
(324,545,cs),
(387,545,o),
(421,521,o),
(427,474,c),
(619,474,l),
(610,622,o),
(501,711,o),
(331,711,cs),
(176,711,o),
(45,632,o),
(45,492,cs),
(45,367,o),
(134,316,o),
(271,284,cs),
(370,261,ls),
(415,251,o),
(430,232,o),
(430,208,cs),
(430,171,o),
(396,155,o),
(348,155,cs),
(278,155,o),
(233,185,o),
(230,251,c),
(30,251,l),
(35,92,o),
(157,-10,o),
(342,-10,cs)
);
}
);
width = 665;
}
);
note = S;
unicode = 83;
},
{
color = 9;
glyphname = T;
kernLeft = T;
kernRight = T;
lastChange = "2023-01-14 21:36:25 +0000";
layers = (
{
background = {
shapes = (
{
closed = 1;
nodes = (
(361,0,l),
(361,620,l),
(603,620,l),
(603,700,l),
(27,700,l),
(27,620,l),
(271,620,l),
(271,0,l)
);
}
);
};
layerId = "30E869CF-9A31-4D47-9626-61B8364FC2DA";
shapes = (
{
closed = 1;
nodes = (
(361,0,l),
(361,620,l),
(603,620,l),
(603,700,l),
(27,700,l),
(27,620,l),
(271,620,l),
(271,0,l)
);
}
);
width = 630;
},
{
background = {
shapes = (
{
closed = 1;
nodes = (
(334,0,l),
(334,660,l),
(595,660,l),
(595,700,l),
(28,700,l),
(28,660,l),
(289,660,l),
(289,0,l)
);
}
);
};
layerId = "18A01495-E50D-4F2B-A1D8-5C332C731D93";
shapes = (
{
closed = 1;
nodes = (
(334,0,l),
(334,660,l),
(595,660,l),
(595,700,l),
(28,700,l),
(28,660,l),
(289,660,l),
(289,0,l)
);
}
);
width = 622;
},
{
background = {
shapes = (
{
closed = 1;
nodes = (
(426,0,l),
(426,538,l),
(637,538,l),
(637,700,l),
(22,700,l),
(22,538,l),
(233,538,l),
(233,0,l)
);
}
);
};
layerId = "9D32FE6F-9470-45EF-9689-909A6F5CE504";
shapes = (
{
closed = 1;
nodes = (
(430,0,l),
(430,530,l),
(640,530,l),
(640,700,l),
(20,700,l),
(20,530,l),
(230,530,l),
(230,0,l)
);
}
);
width = 660;
}
);
note = T;
unicode = 84;
},
{
color = 9;
glyphname = U;
kernLeft = U;
kernRight = U;
lastChange = "2023-01-15 13:19:31 +0000";
layers = (
{
background = {
shapes = (
{
closed = 1;
nodes = (
(515,-10,o),
(629,92,o),
(629,273,cs),
(629,700,l),
(539,700,l),
(539,272,ls),
(539,147,o),
(469,70,o),
(352,70,cs),
(238,70,o),
(165,147,o),
(165,273,cs),
(165,700,l),
(75,700,l),
(75,272,ls),
(75,93,o),
(187,-10,o),
(352,-10,cs)
);
}
);
};
layerId = "30E869CF-9A31-4D47-9626-61B8364FC2DA";
shapes = (
{
closed = 1;
nodes = (
(515,-10,o),
(629,92,o),
(629,273,cs),
(629,700,l),
(539,700,l),
(539,272,ls),
(539,147,o),
(469,70,o),
(352,70,cs),
(238,70,o),
(165,147,o),
(165,273,cs),
(165,700,l),
(75,700,l),
(75,272,ls),
(75,93,o),
(187,-10,o),
(352,-10,cs)
);
}
);
width = 704;
},
{
background = {
shapes = (
{
closed = 1;
nodes = (
(504,-10,o),
(604,102,o),
(604,262,cs),
(604,700,l),
(559,700,l),
(559,264,ls),
(559,121,o),
(472,30,o),
(343,30,cs),
(215,30,o),
(126,120,o),
(126,264,cs),
(126,700,l),
(81,700,l),
(81,262,ls),
(81,88,o),
(193,-10,o),
(343,-10,cs)
);
}
);
};
layerId = "18A01495-E50D-4F2B-A1D8-5C332C731D93";
shapes = (
{
closed = 1;
nodes = (
(504,-10,o),
(604,102,o),
(604,262,cs),
(604,700,l),
(559,700,l),
(559,264,ls),
(559,121,o),
(472,30,o),
(343,30,cs),
(215,30,o),
(126,120,o),
(126,264,cs),
(126,700,l),
(81,700,l),
(81,262,ls),
(81,88,o),
(193,-10,o),
(343,-10,cs)
);
}
);
width = 685;
},
{
background = {
shapes = (
{
closed = 1;
nodes = (
(567,-12,o),
(703,75,o),
(703,286,cs),
(703,700,l),
(510,700,l),
(510,291,ls),
(510,203,o),
(466,151,o),
(388,151,cs),
(311,151,o),
(265,202,o),
(265,292,cs),
(265,700,l),
(72,700,l),
(72,286,ls),
(72,98,o),
(180,-12,o),
(387,-12,cs)
);
}
);
};
layerId = "9D32FE6F-9470-45EF-9689-909A6F5CE504";
shapes = (
{
closed = 1;
nodes = (
(572,-12,o),
(708,75,o),
(708,286,cs),
(708,700,l),
(508,700,l),
(508,298,ls),
(508,210,o),
(464,158,o),
(383,158,cs),
(302,158,o),
(258,210,o),
(258,298,cs),
(258,700,l),
(58,700,l),
(58,286,ls),
(58,75,o),
(194,-12,o),
(383,-12,cs)
);
}
);
width = 766;
}
);
note = U;
unicode = 85;
},
{
color = 9;
glyphname = V;
lastChange = "2023-01-15 13:26:56 +0000";
layers = (
{
background = {
shapes = (
{
closed = 1;
nodes = (
(383,0,l),
(641,700,l),
(546,700,l),
(328,99,l),
(111,700,l),
(16,700,l),
(273,0,l)
);
}
);
};
layerId = "30E869CF-9A31-4D47-9626-61B8364FC2DA";
shapes = (
{
closed = 1;
nodes = (
(383,0,l),
(641,700,l),
(546,700,l),
(328,99,l),
(111,700,l),
(16,700,l),
(273,0,l)
);
}
);
width = 657;
},
{
background = {
shapes = (
{
closed = 1;
nodes = (
(338,0,l),
(609,700,l),
(564,700,l),
(313,49,l),
(65,700,l),
(20,700,l),
(288,0,l)
);
}
);
};
guides = (
{
angle = 248.9506;
pos = (437,377);
},
{
angle = 68.8364;
pos = (474,350);
}
);
layerId = "18A01495-E50D-4F2B-A1D8-5C332C731D93";
shapes = (
{
closed = 1;
nodes = (
(340,0,l),
(610,700,l),
(560,700,l),
(315,60,l),
(70,700,l),
(20,700,l),
(290,0,l)
);
}
);
width = 630;
},
{
background = {
shapes = (
{
closed = 1;
nodes = (
(455,0,l),
(697,700,l),
(499,700,l),
(344,209,l),
(188,700,l),
(-17,700,l),
(224,0,l)
);
}
);
};
guides = (
{
angle = 70.8803;
pos = (579,342);
},
{
angle = 250.854;
pos = (390,407);
}
);
layerId = "9D32FE6F-9470-45EF-9689-909A6F5CE504";
shapes = (
{
closed = 1;
nodes = (
(460,0,l),
(703,700,l),
(492,700,l),
(354,259,l),
(216,700,l),
(5,700,l),
(248,0,l)
);
}
);
width = 708;
}
);
note = V;
unicode = 86;
},
{
color = 5;
glyphname = W;
kernLeft = W;
kernRight = W;
lastChange = "2023-01-10 12:34:14 +0000";
layers = (
{
background = {
shapes = (
{
closed = 1;
nodes = (
(328,0,l),
(492,597,l),
(656,0,l),
(764,0,l),
(962,700,l),
(873,700,l),
(710,106,l),
(547,700,l),
(441,700,l),
(278,106,l),
(115,700,l),
(22,700,l),
(220,0,l)
);
}
);
};
layerId = "30E869CF-9A31-4D47-9626-61B8364FC2DA";
shapes = (
{
closed = 1;
nodes = (
(328,0,l),
(492,597,l),
(656,0,l),
(764,0,l),
(962,700,l),
(873,700,l),
(710,106,l),
(547,700,l),
(441,700,l),
(278,106,l),
(115,700,l),
(22,700,l),
(220,0,l)
);
}
);
width = 984;
},
{
background = {
shapes = (
{
closed = 1;
nodes = (
(294,0,l),
(486,646,l),
(678,0,l),
(728,0,l),
(945,700,l),
(902,700,l),
(703,52,l),
(512,700,l),
(462,700,l),
(270,52,l),
(71,700,l),
(26,700,l),
(243,0,l)
);
}
);
};
layerId = "18A01495-E50D-4F2B-A1D8-5C332C731D93";
shapes = (
{
closed = 1;
nodes = (
(294,0,l),
(486,646,l),
(678,0,l),
(728,0,l),
(945,700,l),
(902,700,l),
(703,52,l),
(512,700,l),
(462,700,l),
(270,52,l),
(71,700,l),
(26,700,l),
(243,0,l)
);
}
);
width = 971;
},
{
background = {
shapes = (
{
closed = 1;
nodes = (
(407,0,l),
(530,476,l),
(654,0,l),
(860,0,l),
(1045,700,l),
(857,700,l),
(744,234,l),
(625,700,l),
(440,700,l),
(322,238,l),
(208,700,l),
(14,700,l),
(200,0,l)
);
}
);
};
layerId = "9D32FE6F-9470-45EF-9689-909A6F5CE504";
shapes = (
{
closed = 1;
nodes = (
(407,0,l),
(530,476,l),
(654,0,l),
(860,0,l),
(1045,700,l),
(857,700,l),
(744,234,l),
(625,700,l),
(440,700,l),
(322,238,l),
(208,700,l),
(14,700,l),
(200,0,l)
);
}
);
width = 1060;
}
);
note = W;
unicode = 87;
},
{
color = 5;
glyphname = X;
kernLeft = X;
kernRight = X;
lastChange = "2023-01-10 12:34:14 +0000";
layers = (
{
background = {
shapes = (
{
closed = 1;
nodes = (
(121,0,l),
(328,284,l),
(531,0,l),
(643,0,l),
(384,354,l),
(638,700,l),
(531,700,l),
(330,419,l),
(131,700,l),
(20,700,l),
(274,349,l),
(14,0,l)
);
}
);
};
layerId = "30E869CF-9A31-4D47-9626-61B8364FC2DA";
shapes = (
{
closed = 1;
nodes = (
(121,0,l),
(328,284,l),
(531,0,l),
(643,0,l),
(384,354,l),
(638,700,l),
(531,700,l),
(330,419,l),
(131,700,l),
(20,700,l),
(274,349,l),
(14,0,l)
);
}
);
width = 657;
},
{
background = {
shapes = (
{
closed = 1;
nodes = (
(75,0,l),
(319,317,l),
(561,0,l),
(614,0,l),
(346,350,l),
(612,700,l),
(560,700,l),
(320,381,l),
(79,700,l),
(26,700,l),
(292,348,l),
(23,0,l)
);
}
);
};
layerId = "18A01495-E50D-4F2B-A1D8-5C332C731D93";
shapes = (
{
closed = 1;
nodes = (
(75,0,l),
(319,317,l),
(561,0,l),
(614,0,l),
(346,350,l),
(612,700,l),
(560,700,l),
(320,381,l),
(79,700,l),
(26,700,l),
(292,348,l),
(23,0,l)
);
}
);
width = 636;
},
{
background = {
shapes = (
{
closed = 1;
nodes = (
(226,0,l),
(366,214,l),
(507,0,l),
(737,0,l),
(493,355,l),
(730,700,l),
(512,700,l),
(376,490,l),
(242,700,l),
(12,700,l),
(249,352,l),
(8,0,l)
);
}
);
};
layerId = "9D32FE6F-9470-45EF-9689-909A6F5CE504";
shapes = (
{
closed = 1;
nodes = (
(226,0,l),
(366,214,l),
(507,0,l),
(737,0,l),
(493,355,l),
(730,700,l),
(512,700,l),
(376,490,l),
(242,700,l),
(12,700,l),
(249,352,l),
(8,0,l)
);
}
);
width = 744;
}
);
note = X;
unicode = 88;
},
{
color = 5;
glyphname = Y;
kernLeft = Y;
kernRight = Y;
lastChange = "2023-01-10 12:34:14 +0000";
layers = (
{
background = {
shapes = (
{
closed = 1;
nodes = (
(356,0,l),
(356,266,l),
(622,700,l),
(517,700,l),
(310,355,l),
(104,700,l),
(-1,700,l),
(265,266,l),
(265,0,l)
);
}
);
};
layerId = "30E869CF-9A31-4D47-9626-61B8364FC2DA";
shapes = (
{
closed = 1;
nodes = (
(356,0,l),
(356,266,l),
(622,700,l),
(517,700,l),
(310,355,l),
(104,700,l),
(-1,700,l),
(265,266,l),
(265,0,l)
);
}
);
width = 621;
},
{
background = {
shapes = (
{
closed = 1;
nodes = (
(325,0,l),
(325,268,l),
(596,700,l),
(546,700,l),
(303,309,l),
(60,700,l),
(10,700,l),
(280,268,l),
(280,0,l)
);
}
);
};
layerId = "18A01495-E50D-4F2B-A1D8-5C332C731D93";
shapes = (
{
closed = 1;
nodes = (
(325,0,l),
(325,268,l),
(596,700,l),
(546,700,l),
(303,309,l),
(60,700,l),
(10,700,l),
(280,268,l),
(280,0,l)
);
}
);
width = 605;
},
{
background = {
shapes = (
{
closed = 1;
nodes = (
(446,0,l),
(446,256,l),
(710,700,l),
(496,700,l),
(354,441,l),
(211,700,l),
(-11,700,l),
(253,256,l),
(253,0,l)
);
}
);
};
layerId = "9D32FE6F-9470-45EF-9689-909A6F5CE504";
shapes = (
{
closed = 1;
nodes = (
(446,0,l),
(446,256,l),
(710,700,l),
(496,700,l),
(354,441,l),
(211,700,l),
(-11,700,l),
(253,256,l),
(253,0,l)
);
}
);
width = 699;
}
);
note = Y;
unicode = 89;
},
{
color = 5;
glyphname = Z;
kernLeft = Z;
kernRight = Z;
lastChange = "2023-01-10 12:34:14 +0000";
layers = (
{
background = {
shapes = (
{
closed = 1;
nodes = (
(592,0,l),
(592,80,l),
(152,80,l),
(581,622,l),
(581,700,l),
(63,700,l),
(63,620,l),
(471,620,l),
(42,78,l),
(42,0,l)
);
}
);
};
layerId = "30E869CF-9A31-4D47-9626-61B8364FC2DA";
shapes = (
{
closed = 1;
nodes = (
(592,0,l),
(592,80,l),
(152,80,l),
(581,622,l),
(581,700,l),
(63,700,l),
(63,620,l),
(471,620,l),
(42,78,l),
(42,0,l)
);
}
);
width = 632;
},
{
background = {
shapes = (
{
closed = 1;
nodes = (
(575,0,l),
(575,40,l),
(89,40,l),
(564,658,l),
(564,700,l),
(60,700,l),
(60,660,l),
(513,660,l),
(38,42,l),
(38,0,l)
);
}
);
};
layerId = "18A01495-E50D-4F2B-A1D8-5C332C731D93";
shapes = (
{
closed = 1;
nodes = (
(575,0,l),
(575,40,l),
(89,40,l),
(564,658,l),
(564,700,l),
(60,700,l),
(60,660,l),
(513,660,l),
(38,42,l),
(38,0,l)
);
}
);
width = 612;
},
{
background = {
shapes = (
{
closed = 1;
nodes = (
(644,0,l),
(644,162,l),
(284,162,l),
(630,546,l),
(630,700,l),
(57,700,l),
(57,539,l),
(389,539,l),
(42,155,l),
(42,0,l)
);
}
);
};
layerId = "9D32FE6F-9470-45EF-9689-909A6F5CE504";
shapes = (
{
closed = 1;
nodes = (
(644,0,l),
(644,162,l),
(284,162,l),
(630,546,l),
(630,700,l),
(57,700,l),
(57,539,l),
(389,539,l),
(42,155,l),
(42,0,l)
);
}
);
width = 686;
}
);
note = Z;
unicode = 90;
},
{
color = 5;
glyphname = J.ss01;
kernLeft = J;
kernRight = J;
lastChange = "2023-01-10 12:34:14 +0000";
layers = (
{
background = {
shapes = (
{
closed = 1;
nodes = (
(241,-10,o),
(320,87,o),
(320,221,cs),
(320,700,l),
(230,700,l),
(230,222,ls),
(230,127,o),
(176,70,o),
(90,70,cs),
(-2,70,o),
(-49,127,o),
(-54,228,c),
(-144,228,l),
(-136,72,o),
(-53,-10,o),
(90,-10,cs)
);
}
);
};
layerId = "30E869CF-9A31-4D47-9626-61B8364FC2DA";
shapes = (
{
closed = 1;
nodes = (
(152,0,ls),
(257,0,o),
(320,63,o),
(320,168,cs),
(320,700,l),
(230,700,l),
(230,174,ls),
(230,105,o),
(205,80,o),
(136,80,cs),
(30,80,l),
(30,0,l)
);
}
);
width = 398;
},
{
background = {
shapes = (
{
closed = 1;
nodes = (
(252,-10,o),
(333,76,o),
(333,210,cs),
(333,700,l),
(288,700,l),
(288,211,ls),
(288,104,o),
(227,30,o),
(121,30,cs),
(22,30,o),
(-42,89,o),
(-51,208,c),
(-96,208,l),
(-86,80,o),
(-15,-10,o),
(121,-10,cs)
);
}
);
};
layerId = "18A01495-E50D-4F2B-A1D8-5C332C731D93";
shapes = (
{
closed = 1;
nodes = (
(158,0,ls),
(268,0,o),
(333,63,o),
(333,170,cs),
(333,700,l),
(288,700,l),
(288,170,ls),
(288,86,o),
(242,40,o),
(158,40,cs),
(38,40,l),
(38,0,l)
);
}
);
width = 417;
},
{
background = {
shapes = (
{
closed = 1;
nodes = (
(304,-13,o),
(415,74,o),
(415,263,cs),
(415,700,l),
(222,700,l),
(222,263,ls),
(222,194,o),
(192,151,o),
(132,151,cs),
(68,151,o),
(41,195,o),
(39,276,c),
(-152,276,l),
(-143,85,o),
(-51,-13,o),
(132,-13,cs)
);
}
);
};
layerId = "9D32FE6F-9470-45EF-9689-909A6F5CE504";
shapes = (
{
closed = 1;
nodes = (
(252,0,ls),
(350,0,o),
(415,65,o),
(415,163,cs),
(415,700,l),
(222,700,l),
(222,219,ls),
(222,184,o),
(202,164,o),
(167,164,cs),
(17,164,l),
(17,0,l)
);
}
);
width = 473;
}
);
metricLeft = J;
metricRight = J;
note = J;
},
{
color = 4;
export = 0;
glyphname = Eth;
lastChange = "2022-06-23 21:16:37 +0000";
layers = (
{
color = 5;
layerId = "18A01495-E50D-4F2B-A1D8-5C332C731D93";
shapes = (
{
closed = 1;
nodes = (
(295,331,l),
(295,371,l),
(35,371,l),
(35,331,l)
);
},
{
pos = (46,0);
ref = D;
}
);
width = 752;
},
{
layerId = "30E869CF-9A31-4D47-9626-61B8364FC2DA";
shapes = (
{
closed = 1;
nodes = (
(314,311,l),
(314,391,l),
(25,391,l),
(25,311,l)
);
},
{
pos = (35,0);
ref = D;
}
);
width = 756;
},
{
layerId = "9D32FE6F-9470-45EF-9689-909A6F5CE504";
shapes = (
{
closed = 1;
nodes = (
(368,265,l),
(368,425,l),
(17,425,l),
(17,265,l)
);
},
{
pos = (24,0);
ref = D;
}
);
width = 780;
}
);
unicode = 208;
},
{
color = 5;
export = 0;
glyphname = OE;
lastChange = "2023-01-10 12:34:14 +0000";
layers = (
{
guides = (
{
pos = (585,660);
},
{
pos = (591,40);
},
{
angle = 90;
pos = (547,517);
}
);
layerId = "18A01495-E50D-4F2B-A1D8-5C332C731D93";
shapes = (
{
closed = 1;
nodes = (
(970,0,l),
(970,40,l),
(547,40,l),
(547,339,l),
(933,339,l),
(933,379,l),
(547,379,l),
(547,660,l),
(964,660,l),
(964,700,l),
(382,700,ls),
(177,700,o),
(52,536,o),
(52,350,cs),
(52,139,o),
(201,0,o),
(382,0,cs)
);
},
{
closed = 1;
nodes = (
(233,40,o),
(97,156,o),
(97,350,cs),
(97,518,o),
(208,660,o),
(382,660,cs),
(502,660,l),
(502,40,l),
(382,40,ls)
);
}
);
width = 1024;
},
{
layerId = "30E869CF-9A31-4D47-9626-61B8364FC2DA";
shapes = (
{
closed = 1;
nodes = (
(999,0,l),
(999,80,l),
(598,80,l),
(598,321,l),
(962,321,l),
(962,401,l),
(598,401,l),
(598,621,l),
(993,621,l),
(993,700,l),
(387,700,ls),
(189,700,o),
(48,553,o),
(48,352,cs),
(48,150,o),
(187,0,o),
(387,0,cs)
);
},
{
closed = 1;
nodes = (
(242,80,o),
(138,192,o),
(138,352,cs),
(138,511,o),
(240,621,o),
(387,621,cs),
(508,621,l),
(508,80,l),
(387,80,ls)
);
}
);
width = 1052;
},
{
guides = (
{
pos = (1333,155);
},
{
angle = 180;
pos = (1329,545);
}
);
layerId = "9D32FE6F-9470-45EF-9689-909A6F5CE504";
shapes = (
{
closed = 1;
nodes = (
(1038,0,l),
(1038,160,l),
(687,160,l),
(687,280,l),
(999,280,l),
(999,429,l),
(687,429,l),
(687,540,l),
(1030,540,l),
(1030,700,l),
(397,700,ls),
(196,700,o),
(30,571,o),
(30,350,cs),
(30,162,o),
(161,0,o),
(397,0,cs)
);
},
{
closed = 1;
nodes = (
(295,160,o),
(230,243,o),
(230,350,cs),
(230,457,o),
(294,540,o),
(397,540,cs),
(498,540,l),
(498,160,l),
(397,160,ls)
);
}
);
width = 1083;
}
);
metricLeft = O;
metricRight = E;
unicode = 338;
},
{
color = 5;
export = 0;
glyphname = Thorn;
lastChange = "2023-01-10 12:34:14 +0000";
layers = (
{
background = {
shapes = (
{
closed = 1;
nodes = (
(178,0,l),
(178,272,l),
(350,272,ls),
(504,272,o),
(600,344,o),
(600,487,cs),
(600,628,o),
(507,700,o),
(351,700,cs),
(88,700,l),
(88,0,l)
);
},
{
closed = 1;
nodes = (
(178,620,l),
(350,620,ls),
(454,620,o),
(510,575,o),
(510,486,cs),
(510,397,o),
(456,352,o),
(350,352,cs),
(178,352,l)
);
}
);
};
layerId = "30E869CF-9A31-4D47-9626-61B8364FC2DA";
shapes = (
{
closed = 1;
nodes = (
(350,114,ls),
(504,114,o),
(600,186,o),
(600,329,cs),
(600,470,o),
(507,542,o),
(351,542,cs),
(162,542,l),
(162,462,l),
(350,462,ls),
(454,462,o),
(510,417,o),
(510,328,cs),
(510,239,o),
(456,194,o),
(350,194,cs),
(162,194,l),
(162,114,l)
);
},
{
closed = 1;
nodes = (
(178,0,l),
(178,700,l),
(88,700,l),
(88,0,l)
);
}
);
width = 632;
},
{
background = {
shapes = (
{
closed = 1;
nodes = (
(141,0,l),
(141,291,l),
(338,291,ls),
(487,291,o),
(574,365,o),
(574,495,cs),
(574,624,o),
(489,700,o),
(339,700,cs),
(96,700,l),
(96,0,l)
);
},
{
closed = 1;
nodes = (
(141,660,l),
(338,660,ls),
(462,660,o),
(529,600,o),
(529,495,cs),
(529,392,o),
(463,332,o),
(338,332,cs),
(141,332,l)
);
}
);
};
layerId = "18A01495-E50D-4F2B-A1D8-5C332C731D93";
shapes = (
{
closed = 1;
nodes = (
(338,123,ls),
(487,123,o),
(574,197,o),
(574,327,cs),
(574,456,o),
(489,532,o),
(339,532,cs),
(131,532,l),
(131,492,l),
(338,492,ls),
(462,492,o),
(529,432,o),
(529,327,cs),
(529,224,o),
(463,164,o),
(338,164,cs),
(131,164,l),
(131,123,l)
);
},
{
closed = 1;
nodes = (
(141,0,l),
(141,700,l),
(96,700,l),
(96,0,l)
);
}
);
width = 612;
},
{
background = {
shapes = (
{
closed = 1;
nodes = (
(257,0,l),
(257,221,l),
(377,221,ls),
(542,221,o),
(653,297,o),
(653,462,cs),
(653,633,o),
(533,700,o),
(377,700,cs),
(65,700,l),
(65,0,l)
);
},
{
closed = 1;
nodes = (
(257,552,l),
(350,552,ls),
(419,552,o),
(456,522,o),
(456,460,cs),
(456,399,o),
(421,369,o),
(350,369,cs),
(257,369,l)
);
}
);
};
layerId = "9D32FE6F-9470-45EF-9689-909A6F5CE504";
shapes = (
{
closed = 1;
nodes = (
(377,91,ls),
(542,91,o),
(653,167,o),
(653,332,cs),
(653,503,o),
(533,570,o),
(377,570,cs),
(241,570,l),
(241,422,l),
(350,422,ls),
(419,422,o),
(456,392,o),
(456,330,cs),
(456,269,o),
(421,239,o),
(350,239,cs),
(241,239,l),
(241,91,l)
);
},
{
closed = 1;
nodes = (
(257,0,l),
(257,700,l),
(65,700,l),
(65,0,l)
);
}
);
width = 672;
}
);
metricLeft = P;
metricRight = P;
note = P;
unicode = 222;
},
{
color = 5;
export = 0;
glyphname = Germandbls;
lastChange = "2023-01-10 12:34:14 +0000";
layers = (
{
background = {
shapes = (
{
closed = 1;
nodes = (
(378,0,ls),
(528,0,o),
(618,71,o),
(618,196,cs),
(618,286,o),
(562,349,o),
(490,365,c),
(552,386,o),
(593,444,o),
(593,514,cs),
(593,636,o),
(507,700,o),
(365,700,cs),
(88,700,l),
(88,0,l)
);
},
{
closed = 1;
nodes = (
(178,319,l),
(374,319,ls),
(466,319,o),
(526,285,o),
(526,199,cs),
(526,117,o),
(466,80,o),
(373,80,cs),
(178,80,l)
);
},
{
closed = 1;
nodes = (
(178,620,l),
(362,620,ls),
(446,620,o),
(501,586,o),
(501,509,cs),
(501,433,o),
(448,399,o),
(362,399,cs),
(178,399,l)
);
}
);
};
layerId = "30E869CF-9A31-4D47-9626-61B8364FC2DA";
shapes = (
{
closed = 1;
nodes = (
(178,0,l),
(178,620,l),
(362,620,ls),
(446,620,o),
(501,586,o),
(501,509,cs),
(501,433,o),
(448,399,o),
(362,399,cs),
(268,399,l),
(268,319,l),
(374,319,ls),
(466,319,o),
(526,285,o),
(526,199,cs),
(526,117,o),
(466,80,o),
(373,80,cs),
(268,80,l),
(268,0,l),
(378,0,ls),
(528,0,o),
(618,71,o),
(618,196,cs),
(618,286,o),
(562,349,o),
(490,365,c),
(552,386,o),
(593,444,o),
(593,514,cs),
(593,636,o),
(507,700,o),
(365,700,cs),
(88,700,l),
(88,0,l)
);
}
);
width = 672;
},
{
background = {
shapes = (
{
closed = 1;
nodes = (
(361,0,ls),
(504,0,o),
(593,68,o),
(593,189,cs),
(593,282,o),
(533,351,o),
(446,366,c),
(519,386,o),
(565,447,o),
(565,524,cs),
(565,642,o),
(479,700,o),
(350,700,cs),
(96,700,l),
(96,0,l)
);
},
{
closed = 1;
nodes = (
(141,342,l),
(359,342,ls),
(469,342,o),
(548,289,o),
(548,190,cs),
(548,89,o),
(471,39,o),
(359,39,cs),
(141,39,l)
);
},
{
closed = 1;
nodes = (
(141,661,l),
(347,661,ls),
(448,661,o),
(520,616,o),
(520,523,cs),
(520,431,o),
(450,382,o),
(347,382,cs),
(141,382,l)
);
}
);
};
layerId = "18A01495-E50D-4F2B-A1D8-5C332C731D93";
shapes = (
{
closed = 1;
nodes = (
(141,0,l),
(141,661,l),
(347,661,ls),
(448,661,o),
(520,616,o),
(520,523,cs),
(520,431,o),
(450,382,o),
(347,382,cs),
(251,382,l),
(251,342,l),
(359,342,ls),
(469,342,o),
(548,289,o),
(548,190,cs),
(548,89,o),
(471,39,o),
(359,39,cs),
(251,39,l),
(251,0,l),
(361,0,ls),
(504,0,o),
(593,68,o),
(593,189,cs),
(593,282,o),
(533,351,o),
(446,366,c),
(519,386,o),
(565,447,o),
(565,524,cs),
(565,642,o),
(479,700,o),
(350,700,cs),
(96,700,l),
(96,0,l)
);
}
);
width = 653;
},
{
background = {
shapes = (
{
closed = 1;
nodes = (
(401,0,ls),
(560,0,o),
(665,66,o),
(665,199,cs),
(665,281,o),
(618,338,o),
(546,362,c),
(604,386,o),
(647,438,o),
(647,518,cs),
(647,633,o),
(564,700,o),
(410,700,cs),
(65,700,l),
(65,0,l)
);
},
{
closed = 1;
nodes = (
(254,290,l),
(373,290,ls),
(435,290,o),
(471,266,o),
(471,215,cs),
(471,164,o),
(435,141,o),
(372,141,cs),
(254,141,l)
);
},
{
closed = 1;
nodes = (
(254,560,l),
(363,560,ls),
(422,560,o),
(454,537,o),
(454,490,cs),
(454,439,o),
(422,417,o),
(363,417,cs),
(254,417,l)
);
}
);
};
layerId = "9D32FE6F-9470-45EF-9689-909A6F5CE504";
shapes = (
{
closed = 1;
nodes = (
(254,0,l),
(254,560,l),
(363,560,ls),
(422,560,o),
(454,537,o),
(454,490,cs),
(454,439,o),
(422,417,o),
(363,417,cs),
(315,417,l),
(315,290,l),
(373,290,ls),
(435,290,o),
(471,266,o),
(471,215,cs),
(471,164,o),
(435,141,o),
(372,141,cs),
(315,141,l),
(315,0,l),
(401,0,ls),
(560,0,o),
(665,66,o),
(665,199,cs),
(665,281,o),
(618,338,o),
(546,362,c),
(604,386,o),
(647,438,o),
(647,518,cs),
(647,633,o),
(564,700,o),
(410,700,cs),
(65,700,l),
(65,0,l)
);
}
);
width = 700;
}
);
metricLeft = B;
metricRight = B;
note = B;
unicode = 7838;
},
{
color = 5;
export = 0;
glyphname = Q.ss01;
kernLeft = C;
lastChange = "2022-06-23 21:16:27 +0000";
layers = (
{
background = {
shapes = (
{
closed = 1;
nodes = (
(727,-80,l),
(727,0,l),
(648,0,ls),
(601,0,o),
(582,18,o),
(566,66,c),
(484,23,l),
(520,-50,o),
(556,-80,o),
(624,-80,cs)
);
},
{
ref = O;
}
);
};
guides = (
{
angle = 90;
pos = (727,206);
}
);
layerId = "30E869CF-9A31-4D47-9626-61B8364FC2DA";
shapes = (
{
closed = 1;
nodes = (
(727,-80,l),
(727,0,l),
(648,0,ls),
(601,0,o),
(582,18,o),
(566,66,c),
(484,23,l),
(520,-50,o),
(556,-80,o),
(624,-80,cs)
);
},
{
ref = O;
}
);
width = 775;
},
{
background = {
shapes = (
{
closed = 1;
nodes = (
(712,-42,l),
(712,0,l),
(618,0,ls),
(577,0,o),
(557,14,o),
(542,50,c),
(499,33,l),
(531,-20,o),
(566,-42,o),
(624,-42,cs)
);
},
{
ref = O;
}
);
};
color = 4;
guides = (
{
angle = 90;
pos = (712,213);
}
);
layerId = "18A01495-E50D-4F2B-A1D8-5C332C731D93";
shapes = (
{
closed = 1;
nodes = (
(712,-42,l),
(712,0,l),
(618,0,ls),
(577,0,o),
(557,14,o),
(542,50,c),
(499,33,l),
(531,-20,o),
(566,-42,o),
(624,-42,cs)
);
},
{
ref = O;
}
);
width = 765;
},
{
background = {
shapes = (
{
closed = 1;
nodes = (
(764,-143,l),
(764,3,l),
(652,3,ls),
(614,3,o),
(591,19,o),
(584,51,c),
(424,-10,l),
(456,-99,o),
(523,-143,o),
(625,-143,cs)
);
},
{
ref = O;
}
);
};
guides = (
{
angle = 90;
pos = (764,233);
}
);
layerId = "9D32FE6F-9470-45EF-9689-909A6F5CE504";
shapes = (
{
closed = 1;
nodes = (
(764,-143,l),
(764,3,l),
(652,3,ls),
(614,3,o),
(591,19,o),
(584,51,c),
(424,-10,l),
(456,-99,o),
(523,-143,o),
(625,-143,cs)
);
},
{
ref = O;
}
);
width = 795;
}
);
note = Q;
},
{
color = 5;
export = 0;
glyphname = A.ss03;
kernLeft = A;
kernRight = A;
lastChange = "2022-06-23 21:15:49 +0000";
layers = (
{
background = {
shapes = (
{
closed = 1;
nodes = (
(107,0,l),
(183,192,l),
(518,192,l),
(595,0,l),
(685,0,l),
(425,643,ls),
(411,679,o),
(382,700,o),
(351,700,cs),
(319,700,o),
(290,679,o),
(276,643,cs),
(17,0,l)
);
},
{
closed = 1;
nodes = (
(342,606,ls),
(344,612,o),
(354,612,o),
(356,606,cs),
(486,270,l),
(214,270,l)
);
}
);
};
layerId = "30E869CF-9A31-4D47-9626-61B8364FC2DA";
shapes = (
{
closed = 1;
nodes = (
(107,0,l),
(183,192,l),
(518,192,l),
(595,0,l),
(685,0,l),
(425,643,ls),
(411,679,o),
(382,700,o),
(351,700,cs),
(319,700,o),
(290,679,o),
(276,643,cs),
(17,0,l)
);
},
{
closed = 1;
nodes = (
(342,606,ls),
(344,612,o),
(354,612,o),
(356,606,cs),
(486,270,l),
(214,270,l)
);
}
);
width = 700;
},
{
background = {
shapes = (
{
closed = 1;
nodes = (
(67,0,l),
(160,223,l),
(518,223,l),
(612,0,l),
(657,0,l),
(379,662,ls),
(368,689,o),
(355,700,o),
(339,700,cs),
(323,700,o),
(310,688,o),
(299,661,cs),
(22,0,l)
);
},
{
closed = 1;
nodes = (
(333,645,ls),
(335,651,o),
(341,651,o),
(343,645,cs),
(502,262,l),
(176,262,l)
);
}
);
};
layerId = "18A01495-E50D-4F2B-A1D8-5C332C731D93";
shapes = (
{
closed = 1;
nodes = (
(67,0,l),
(160,223,l),
(518,223,l),
(612,0,l),
(657,0,l),
(379,662,ls),
(368,689,o),
(355,700,o),
(339,700,cs),
(323,700,o),
(310,688,o),
(299,661,cs),
(22,0,l)
);
},
{
closed = 1;
nodes = (
(333,645,ls),
(335,651,o),
(341,651,o),
(343,645,cs),
(502,262,l),
(176,262,l)
);
}
);
width = 679;
},
{
background = {
shapes = (
{
closed = 1;
nodes = (
(206,0,l),
(245,123,l),
(512,123,l),
(552,0,l),
(754,0,l),
(559,547,ls),
(522,651,o),
(465,700,o),
(382,700,cs),
(299,700,o),
(241,651,o),
(204,547,cs),
(9,0,l)
);
},
{
closed = 1;
nodes = (
(363,517,ls),
(370,540,o),
(389,540,o),
(395,517,cs),
(463,273,l),
(294,273,l)
);
}
);
};
layerId = "9D32FE6F-9470-45EF-9689-909A6F5CE504";
shapes = (
{
closed = 1;
nodes = (
(206,0,l),
(245,123,l),
(512,123,l),
(552,0,l),
(754,0,l),
(559,547,ls),
(522,651,o),
(465,700,o),
(382,700,cs),
(299,700,o),
(241,651,o),
(204,547,cs),
(9,0,l)
);
},
{
closed = 1;
nodes = (
(363,517,ls),
(370,540,o),
(389,540,o),
(395,517,cs),
(463,273,l),
(294,273,l)
);
}
);
width = 763;
}
);
note = A;
},
{
color = 5;
export = 0;
glyphname = G.ss03;
kernLeft = C;
kernRight = G;
lastChange = "2022-06-23 21:15:49 +0000";
layers = (
{
background = {
shapes = (
{
closed = 1;
nodes = (
(479,-10,o),
(564,37,o),
(611,112,c),
(611,0,l),
(693,0,l),
(693,359,l),
(393,359,l),
(393,279,l),
(609,279,l),
(609,276,ls),
(609,144,o),
(495,70,o),
(382,70,cs),
(240,70,o),
(143,186,o),
(143,351,cs),
(143,514,o),
(241,630,o),
(387,630,cs),
(485,630,o),
(573,575,o),
(596,478,c),
(689,478,l),
(665,626,o),
(536,710,o),
(387,710,cs),
(188,710,o),
(48,563,o),
(48,351,cs),
(48,147,o),
(177,-10,o),
(374,-10,cs)
);
}
);
};
layerId = "30E869CF-9A31-4D47-9626-61B8364FC2DA";
shapes = (
{
closed = 1;
nodes = (
(479,-10,o),
(564,37,o),
(611,112,c),
(611,0,l),
(693,0,l),
(693,284,ls),
(693,332,o),
(666,359,o),
(618,359,cs),
(393,359,l),
(393,279,l),
(609,279,l),
(609,276,ls),
(609,144,o),
(495,70,o),
(382,70,cs),
(240,70,o),
(143,186,o),
(143,351,cs),
(143,514,o),
(241,630,o),
(387,630,cs),
(485,630,o),
(573,575,o),
(596,478,c),
(689,478,l),
(665,626,o),
(536,710,o),
(387,710,cs),
(188,710,o),
(48,563,o),
(48,351,cs),
(48,147,o),
(177,-10,o),
(374,-10,cs)
);
}
);
width = 768;
},
{
background = {
shapes = (
{
closed = 1;
nodes = (
(495,-10,o),
(589,55,o),
(630,153,c),
(630,0,l),
(670,0,l),
(670,339,l),
(380,339,l),
(380,299,l),
(630,299,l),
(630,294,ls),
(630,126,o),
(519,30,o),
(376,30,cs),
(225,30,o),
(97,150,o),
(97,350,cs),
(97,526,o),
(203,670,o),
(377,670,cs),
(489,670,o),
(589,608,o),
(619,490,c),
(664,490,l),
(635,627,o),
(516,710,o),
(377,710,cs),
(175,710,o),
(52,546,o),
(52,350,cs),
(52,130,o),
(196,-10,o),
(375,-10,cs)
);
}
);
};
layerId = "18A01495-E50D-4F2B-A1D8-5C332C731D93";
shapes = (
{
closed = 1;
nodes = (
(495,-10,o),
(589,55,o),
(630,153,c),
(630,0,l),
(670,0,l),
(670,294,ls),
(670,323,o),
(654,339,o),
(625,339,cs),
(380,339,l),
(380,299,l),
(630,299,l),
(630,294,ls),
(630,126,o),
(519,30,o),
(376,30,cs),
(225,30,o),
(97,150,o),
(97,350,cs),
(97,526,o),
(203,670,o),
(377,670,cs),
(489,670,o),
(589,608,o),
(619,490,c),
(664,490,l),
(635,627,o),
(516,710,o),
(377,710,cs),
(175,710,o),
(52,546,o),
(52,350,cs),
(52,130,o),
(196,-10,o),
(375,-10,cs)
);
}
);
width = 752;
},
{
background = {
shapes = (
{
closed = 1;
nodes = (
(458,-12,o),
(530,23,o),
(578,78,c),
(578,0,l),
(742,0,l),
(742,391,l),
(413,391,l),
(413,252,l),
(563,252,l),
(562,248,ls),
(545,182,o),
(481,143,o),
(405,143,cs),
(298,143,o),
(229,223,o),
(229,350,cs),
(229,469,o),
(293,554,o),
(403,554,cs),
(468,554,o),
(526,526,o),
(543,467,c),
(740,467,l),
(716,628,o),
(567,710,o),
(401,710,cs),
(165,710,o),
(30,555,o),
(30,350,cs),
(30,125,o),
(185,-12,o),
(364,-12,cs)
);
}
);
};
layerId = "9D32FE6F-9470-45EF-9689-909A6F5CE504";
shapes = (
{
closed = 1;
nodes = (
(458,-12,o),
(530,23,o),
(578,78,c),
(578,0,l),
(742,0,l),
(742,291,ls),
(742,356,o),
(707,391,o),
(642,391,cs),
(413,391,l),
(413,252,l),
(563,252,l),
(562,248,ls),
(545,182,o),
(481,143,o),
(405,143,cs),
(298,143,o),
(229,223,o),
(229,350,cs),
(229,469,o),
(293,554,o),
(403,554,cs),
(468,554,o),
(526,526,o),
(543,467,c),
(740,467,l),
(716,628,o),
(567,710,o),
(401,710,cs),
(165,710,o),
(30,555,o),
(30,350,cs),
(30,125,o),
(185,-12,o),
(364,-12,cs)
);
}
);
width = 799;
}
);
note = G;
},
{
color = 5;
export = 0;
glyphname = A.ss04;
kernLeft = AE;
kernRight = H;
lastChange = "2022-06-23 21:15:49 +0000";
layers = (
{
background = {
shapes = (
{
closed = 1;
nodes = (
(89,0,l),
(223,211,l),
(493,211,l),
(493,0,l),
(583,0,l),
(583,700,l),
(439,700,l),
(-11,0,l)
);
},
{
closed = 1;
nodes = (
(493,632,l),
(493,288,l),
(272,288,l)
);
}
);
};
layerId = "30E869CF-9A31-4D47-9626-61B8364FC2DA";
shapes = (
{
closed = 1;
nodes = (
(89,0,l),
(223,211,l),
(493,211,l),
(493,0,l),
(583,0,l),
(583,700,l),
(439,700,l),
(-11,0,l)
);
},
{
closed = 1;
nodes = (
(493,632,l),
(493,288,l),
(272,288,l)
);
}
);
width = 665;
},
{
background = {
shapes = (
{
closed = 1;
nodes = (
(41,0,l),
(213,241,l),
(503,241,l),
(503,0,l),
(548,0,l),
(548,700,l),
(486,700,l),
(-4,0,l)
);
},
{
closed = 1;
nodes = (
(503,658,l),
(503,281,l),
(237,281,l)
);
}
);
};
layerId = "18A01495-E50D-4F2B-A1D8-5C332C731D93";
shapes = (
{
closed = 1;
nodes = (
(41,0,l),
(213,241,l),
(503,241,l),
(503,0,l),
(548,0,l),
(548,700,l),
(486,700,l),
(-4,0,l)
);
},
{
closed = 1;
nodes = (
(503,658,l),
(503,281,l),
(237,281,l)
);
}
);
width = 635;
},
{
background = {
shapes = (
{
closed = 1;
nodes = (
(201,0,l),
(265,122,l),
(542,122,l),
(542,0,l),
(738,0,l),
(738,700,l),
(388,700,l),
(-10,0,l)
);
},
{
closed = 1;
nodes = (
(542,595,l),
(542,282,l),
(358,282,l)
);
}
);
};
layerId = "9D32FE6F-9470-45EF-9689-909A6F5CE504";
shapes = (
{
closed = 1;
nodes = (
(201,0,l),
(265,122,l),
(542,122,l),
(542,0,l),
(738,0,l),
(738,700,l),
(388,700,l),
(-10,0,l)
);
},
{
closed = 1;
nodes = (
(542,595,l),
(542,282,l),
(358,282,l)
);
}
);
width = 815;
}
);
note = A.liga;
},
{
color = 5;
export = 0;
glyphname = V.ss04;
kernLeft = B;
kernRight = V.liga;
lastChange = "2022-06-23 21:15:49 +0000";
layers = (
{
background = {
shapes = (
{
closed = 1;
nodes = (
(227,0,l),
(676,700,l),
(573,700,l),
(173,72,l),
(173,700,l),
(83,700,l),
(83,0,l)
);
}
);
};
layerId = "30E869CF-9A31-4D47-9626-61B8364FC2DA";
shapes = (
{
closed = 1;
nodes = (
(227,0,l),
(676,700,l),
(573,700,l),
(173,72,l),
(173,700,l),
(83,700,l),
(83,0,l)
);
}
);
width = 665;
},
{
background = {
shapes = (
{
closed = 1;
nodes = (
(150,0,l),
(639,700,l),
(590,700,l),
(130,40,l),
(130,700,l),
(88,700,l),
(88,0,l)
);
}
);
};
layerId = "18A01495-E50D-4F2B-A1D8-5C332C731D93";
shapes = (
{
closed = 1;
nodes = (
(150,0,l),
(639,700,l),
(590,700,l),
(130,40,l),
(130,700,l),
(88,700,l),
(88,0,l)
);
}
);
width = 635;
},
{
background = {
shapes = (
{
closed = 1;
nodes = (
(432,0,l),
(830,700,l),
(567,700,l),
(290,193,l),
(290,700,l),
(52,700,l),
(52,0,l)
);
}
);
};
layerId = "9D32FE6F-9470-45EF-9689-909A6F5CE504";
shapes = (
{
closed = 1;
nodes = (
(432,0,l),
(830,700,l),
(567,700,l),
(290,193,l),
(290,700,l),
(52,700,l),
(52,0,l)
);
}
);
width = 815;
}
);
note = V.liga;
},
{
color = 4;
glyphname = W_W;
kernLeft = W;
kernRight = W;
lastChange = "2022-05-29 18:29:24 +0000";
layers = (
{
background = {
shapes = (
{
closed = 1;
nodes = (
(328,0,l),
(492,597,l),
(656,0,l),
(764,0,l),
(919,549,l),
(1070,0,l),
(1178,0,l),
(1376,700,l),
(1287,700,l),
(1124,106,l),
(962,700,l),
(873,700,l),
(710,106,l),
(547,700,l),
(441,700,l),
(278,106,l),
(115,700,l),
(22,700,l),
(220,0,l)
);
}
);
};
layerId = "30E869CF-9A31-4D47-9626-61B8364FC2DA";
shapes = (
{
closed = 1;
nodes = (
(328,0,l),
(492,597,l),
(656,0,l),
(764,0,l),
(919,549,l),
(1070,0,l),
(1178,0,l),
(1376,700,l),
(1287,700,l),
(1124,106,l),
(962,700,l),
(873,700,l),
(710,106,l),
(547,700,l),
(441,700,l),
(278,106,l),
(115,700,l),
(22,700,l),
(220,0,l)
);
}
);
width = 1398;
},
{
background = {
shapes = (
{
closed = 1;
nodes = (
(294,0,l),
(486,646,l),
(678,0,l),
(728,0,l),
(927,643,l),
(1118,0,l),
(1168,0,l),
(1385,700,l),
(1342,700,l),
(1143,52,l),
(952,700,l),
(902,700,l),
(703,52,l),
(512,700,l),
(462,700,l),
(270,52,l),
(71,700,l),
(26,700,l),
(243,0,l)
);
}
);
};
layerId = "18A01495-E50D-4F2B-A1D8-5C332C731D93";
shapes = (
{
closed = 1;
nodes = (
(294,0,l),
(486,646,l),
(678,0,l),
(728,0,l),
(927,643,l),
(1118,0,l),
(1168,0,l),
(1385,700,l),
(1342,700,l),
(1143,52,l),
(952,700,l),
(902,700,l),
(703,52,l),
(512,700,l),
(462,700,l),
(270,52,l),
(71,700,l),
(26,700,l),
(243,0,l)
);
}
);
width = 1411;
},
{
background = {
shapes = (
{
closed = 1;
nodes = (
(407,0,l),
(530,476,l),
(654,0,l),
(860,0,l),
(986,478,l),
(1111,0,l),
(1317,0,l),
(1502,700,l),
(1314,700,l),
(1201,234,l),
(1082,700,l),
(857,700,l),
(744,234,l),
(625,700,l),
(440,700,l),
(322,238,l),
(208,700,l),
(14,700,l),
(200,0,l)
);
}
);
};
layerId = "9D32FE6F-9470-45EF-9689-909A6F5CE504";
shapes = (
{
closed = 1;
nodes = (
(407,0,l),
(530,476,l),
(654,0,l),
(860,0,l),
(986,478,l),
(1111,0,l),
(1317,0,l),
(1502,700,l),
(1314,700,l),
(1201,234,l),
(1082,700,l),
(857,700,l),
(744,234,l),
(625,700,l),
(440,700,l),
(322,238,l),
(208,700,l),
(14,700,l),
(200,0,l)
);
}
);
width = 1517;
}
);
metricLeft = W;
metricRight = W;
note = W;
},
{
color = 5;
glyphname = a;
kernLeft = a;
kernRight = a;
lastChange = "2023-01-10 12:34:14 +0000";
layers = (
{
background = {
shapes = (
{
closed = 1;
nodes = (
(316,-10,o),
(379,36,o),
(403,79,c),
(403,0,l),
(479,0,l),
(479,334,ls),
(479,455,o),
(399,510,o),
(282,510,cs),
(170,510,o),
(75,460,o),
(65,349,c),
(150,349,l),
(157,404,o),
(205,435,o),
(278,435,cs),
(344,435,o),
(392,401,o),
(392,355,cs),
(392,325,o),
(380,311,o),
(340,306,cs),
(225,292,ls),
(118,279,o),
(47,234,o),
(47,139,cs),
(47,47,o),
(123,-10,o),
(225,-10,cs)
);
},
{
closed = 1;
nodes = (
(173,69,o),
(134,96,o),
(134,142,cs),
(134,177,o),
(154,209,o),
(232,220,cs),
(341,236,ls),
(370,240,o),
(388,246,o),
(394,251,c),
(394,212,ls),
(394,110,o),
(319,69,o),
(238,69,cs)
);
}
);
};
layerId = "30E869CF-9A31-4D47-9626-61B8364FC2DA";
shapes = (
{
closed = 1;
nodes = (
(316,-10,o),
(379,36,o),
(403,79,c),
(403,0,l),
(479,0,l),
(479,334,ls),
(479,455,o),
(399,510,o),
(278,510,cs),
(170,510,o),
(75,458,o),
(65,349,c),
(150,349,l),
(157,404,o),
(205,435,o),
(278,435,cs),
(344,435,o),
(392,401,o),
(392,355,cs),
(392,325,o),
(380,311,o),
(340,306,cs),
(225,292,ls),
(118,279,o),
(47,234,o),
(47,139,cs),
(47,47,o),
(123,-10,o),
(225,-10,cs)
);
},
{
closed = 1;
nodes = (
(173,69,o),
(134,96,o),
(134,142,cs),
(134,177,o),
(154,209,o),
(232,220,cs),
(341,236,ls),
(370,240,o),
(388,246,o),
(394,251,c),
(394,212,ls),
(394,110,o),
(319,69,o),
(238,69,cs)
);
}
);
width = 552;
},
{
background = {
shapes = (
{
closed = 1;
nodes = (
(300,-10,o),
(378,25,o),
(411,101,c),
(411,0,l),
(451,0,l),
(451,338,ls),
(451,461,o),
(367,510,o),
(265,510,cs),
(174,510,o),
(79,468,o),
(66,360,c),
(106,360,l),
(117,437,o),
(180,475,o),
(265,475,cs),
(391,475,o),
(411,391,o),
(411,353,cs),
(411,306,o),
(364,293,o),
(317,286,cs),
(193,268,ls),
(104,255,o),
(52,205,o),
(52,128,cs),
(52,29,o),
(140,-10,o),
(222,-10,cs)
);
},
{
closed = 1;
nodes = (
(158,25,o),
(92,56,o),
(92,130,cs),
(92,183,o),
(125,219,o),
(192,229,cs),
(334,250,ls),
(367,255,o),
(398,267,o),
(411,279,c),
(411,214,ls),
(411,91,o),
(327,25,o),
(225,25,cs)
);
}
);
};
layerId = "18A01495-E50D-4F2B-A1D8-5C332C731D93";
shapes = (
{
closed = 1;
nodes = (
(300,-10,o),
(378,25,o),
(411,101,c),
(411,0,l),
(451,0,l),
(451,338,ls),
(451,461,o),
(367,510,o),
(265,510,cs),
(174,510,o),
(79,468,o),
(66,360,c),
(106,360,l),
(117,437,o),
(180,475,o),
(265,475,cs),
(391,475,o),
(411,391,o),
(411,353,cs),
(411,306,o),
(364,293,o),
(317,286,cs),
(193,268,ls),
(104,255,o),
(52,205,o),
(52,128,cs),
(52,29,o),
(140,-10,o),
(222,-10,cs)
);
},
{
closed = 1;
nodes = (
(158,25,o),
(92,56,o),
(92,130,cs),
(92,183,o),
(125,219,o),
(192,229,cs),
(334,250,ls),
(367,255,o),
(398,267,o),
(411,279,c),
(411,214,ls),
(411,91,o),
(327,25,o),
(225,25,cs)
);
}
);
width = 533;
},
{
background = {
shapes = (
{
closed = 1;
nodes = (
(286,-11,o),
(347,16,o),
(383,67,c),
(383,0,l),
(548,0,l),
(548,297,ls),
(548,439,o),
(472,510,o),
(307,510,cs),
(152,510,o),
(60,448,o),
(47,331,c),
(216,331,l),
(220,373,o),
(249,395,o),
(297,395,cs),
(337,395,o),
(370,375,o),
(370,340,cs),
(370,318,o),
(359,309,o),
(323,305,cs),
(193,291,ls),
(94,280,o),
(28,231,o),
(28,142,cs),
(28,43,o),
(109,-11,o),
(213,-11,cs)
);
},
{
closed = 1;
nodes = (
(231,101,o),
(201,117,o),
(201,150,cs),
(201,177,o),
(220,198,o),
(255,202,cs),
(314,209,ls),
(341,212,o),
(363,218,o),
(370,222,c),
(370,194,ls),
(370,132,o),
(323,101,o),
(271,101,cs)
);
}
);
};
layerId = "9D32FE6F-9470-45EF-9689-909A6F5CE504";
shapes = (
{
closed = 1;
nodes = (
(286,-11,o),
(347,16,o),
(383,67,c),
(383,0,l),
(548,0,l),
(548,297,ls),
(548,439,o),
(472,510,o),
(307,510,cs),
(152,510,o),
(60,448,o),
(47,331,c),
(216,331,l),
(220,373,o),
(249,395,o),
(297,395,cs),
(337,395,o),
(370,375,o),
(370,340,cs),
(370,318,o),
(359,309,o),
(323,305,cs),
(193,291,ls),
(94,280,o),
(28,231,o),
(28,142,cs),
(28,43,o),
(109,-11,o),
(213,-11,cs)
);
},
{
closed = 1;
nodes = (
(231,101,o),
(201,117,o),
(201,150,cs),
(201,177,o),
(220,198,o),
(255,202,cs),
(314,209,ls),
(341,212,o),
(363,218,o),
(370,222,c),
(370,194,ls),
(370,132,o),
(323,101,o),
(271,101,cs)
);
}
);
width = 599;
}
);
note = a;
unicode = 97;
},
{
color = 5;
glyphname = b;
kernRight = b;
lastChange = "2023-01-10 12:34:14 +0000";
layers = (
{
background = {
shapes = (
{
closed = 1;
nodes = (
(462,-10,o),
(561,94,o),
(561,254,cs),
(561,409,o),
(464,510,o),
(331,510,cs),
(262,510,o),
(201,482,o),
(164,427,c),
(164,700,l),
(79,700,l),
(79,0,l),
(159,0,l),
(159,82,l),
(192,22,o),
(259,-10,o),
(331,-10,cs)
);
},
{
closed = 1;
nodes = (
(217,65,o),
(159,146,o),
(159,254,cs),
(159,357,o),
(216,435,o),
(316,435,cs),
(419,435,o),
(476,357,o),
(476,254,cs),
(476,147,o),
(420,65,o),
(316,65,cs)
);
}
);
};
layerId = "30E869CF-9A31-4D47-9626-61B8364FC2DA";
shapes = (
{
closed = 1;
nodes = (
(462,-10,o),
(561,94,o),
(561,254,cs),
(561,409,o),
(464,510,o),
(331,510,cs),
(262,510,o),
(201,482,o),
(164,427,c),
(164,700,l),
(79,700,l),
(79,0,l),
(159,0,l),
(159,82,l),
(192,22,o),
(259,-10,o),
(331,-10,cs)
);
},
{
closed = 1;
nodes = (
(217,65,o),
(159,146,o),
(159,254,cs),
(159,357,o),
(216,435,o),
(316,435,cs),
(419,435,o),
(476,357,o),
(476,254,cs),
(476,147,o),
(420,65,o),
(316,65,cs)
);
}
);
width = 606;
},
{
background = {
shapes = (
{
closed = 1;
nodes = (
(440,-10,o),
(548,84,o),
(548,254,cs),
(548,394,o),
(464,510,o),
(321,510,cs),
(239,510,o),
(169,469,o),
(133,393,c),
(133,700,l),
(93,700,l),
(93,0,l),
(132,0,l),
(132,114,l),
(166,38,o),
(238,-10,o),
(322,-10,cs)
);
},
{
closed = 1;
nodes = (
(194,25,o),
(132,130,o),
(132,254,cs),
(132,373,o),
(193,475,o),
(319,475,cs),
(446,475,o),
(508,372,o),
(508,254,cs),
(508,114,o),
(433,25,o),
(319,25,cs)
);
}
);
};
layerId = "18A01495-E50D-4F2B-A1D8-5C332C731D93";
shapes = (
{
closed = 1;
nodes = (
(440,-10,o),
(548,84,o),
(548,254,cs),
(548,394,o),
(464,510,o),
(321,510,cs),
(239,510,o),
(169,469,o),
(133,393,c),
(133,700,l),
(93,700,l),
(93,0,l),
(132,0,l),
(132,114,l),
(166,38,o),
(238,-10,o),
(322,-10,cs)
);
},
{
closed = 1;
nodes = (
(194,25,o),
(132,130,o),
(132,254,cs),
(132,373,o),
(193,475,o),
(319,475,cs),
(446,475,o),
(508,372,o),
(508,254,cs),
(508,114,o),
(433,25,o),
(319,25,cs)
);
}
);
width = 591;
},
{
background = {
shapes = (
{
closed = 1;
nodes = (
(511,-11,o),
(615,78,o),
(615,250,cs),
(615,392,o),
(532,510,o),
(382,510,cs),
(321,510,o),
(269,489,o),
(234,447,c),
(234,700,l),
(52,700,l),
(52,0,l),
(226,0,l),
(226,65,l),
(259,17,o),
(314,-11,o),
(382,-11,cs)
);
},
{
closed = 1;
nodes = (
(268,117,o),
(231,172,o),
(231,250,cs),
(231,321,o),
(266,376,o),
(329,376,cs),
(391,376,o),
(427,323,o),
(427,250,cs),
(427,173,o),
(392,117,o),
(329,117,cs)
);
}
);
};
layerId = "9D32FE6F-9470-45EF-9689-909A6F5CE504";
shapes = (
{
closed = 1;
nodes = (
(511,-11,o),
(615,78,o),
(615,250,cs),
(615,392,o),
(532,510,o),
(382,510,cs),
(321,510,o),
(269,489,o),
(234,447,c),
(234,700,l),
(52,700,l),
(52,0,l),
(226,0,l),
(226,65,l),
(259,17,o),
(314,-11,o),
(382,-11,cs)
);
},
{
closed = 1;
nodes = (
(268,117,o),
(231,172,o),
(231,250,cs),
(231,321,o),
(266,376,o),
(329,376,cs),
(391,376,o),
(427,323,o),
(427,250,cs),
(427,173,o),
(392,117,o),
(329,117,cs)
);
}
);
width = 644;
}
);
note = b;
unicode = 98;
},
{
color = 5;
glyphname = c;
kernLeft = c;
kernRight = c;
lastChange = "2023-01-10 12:34:14 +0000";
layers = (
{
background = {
shapes = (
{
closed = 1;
nodes = (
(402,-10,o),
(493,59,o),
(508,171,c),
(424,171,l),
(410,104,o),
(354,65,o),
(288,65,cs),
(193,65,o),
(133,147,o),
(133,253,cs),
(133,356,o),
(191,435,o),
(288,435,cs),
(352,435,o),
(410,397,o),
(424,330,c),
(508,330,l),
(496,437,o),
(406,510,o),
(288,510,cs),
(148,510,o),
(44,406,o),
(44,253,cs),
(44,98,o),
(144,-10,o),
(287,-10,cs)
);
}
);
};
layerId = "30E869CF-9A31-4D47-9626-61B8364FC2DA";
shapes = (
{
closed = 1;
nodes = (
(402,-10,o),
(493,59,o),
(508,171,c),
(424,171,l),
(410,104,o),
(354,65,o),
(288,65,cs),
(193,65,o),
(133,147,o),
(133,253,cs),
(133,356,o),
(191,435,o),
(288,435,cs),
(352,435,o),
(410,397,o),
(424,330,c),
(508,330,l),
(496,437,o),
(406,510,o),
(288,510,cs),
(148,510,o),
(44,406,o),
(44,253,cs),
(44,98,o),
(144,-10,o),
(287,-10,cs)
);
}
);
width = 552;
},
{
background = {
shapes = (
{
closed = 1;
nodes = (
(387,-10,o),
(470,57,o),
(488,160,c),
(446,160,l),
(428,73,o),
(363,25,o),
(280,25,cs),
(166,25,o),
(88,117,o),
(88,252,cs),
(88,368,o),
(150,475,o),
(279,475,cs),
(360,475,o),
(429,430,o),
(446,343,c),
(488,343,l),
(472,443,o),
(387,510,o),
(279,510,cs),
(137,510,o),
(48,394,o),
(48,252,cs),
(48,91,o),
(152,-10,o),
(280,-10,cs)
);
}
);
};
layerId = "18A01495-E50D-4F2B-A1D8-5C332C731D93";
shapes = (
{
closed = 1;
nodes = (
(387,-10,o),
(470,57,o),
(488,160,c),
(446,160,l),
(428,73,o),
(363,25,o),
(280,25,cs),
(166,25,o),
(88,117,o),
(88,252,cs),
(88,368,o),
(150,475,o),
(279,475,cs),
(360,475,o),
(429,430,o),
(446,343,c),
(488,343,l),
(472,443,o),
(387,510,o),
(279,510,cs),
(137,510,o),
(48,394,o),
(48,252,cs),
(48,91,o),
(152,-10,o),
(280,-10,cs)
);
}
);
width = 534;
},
{
background = {
shapes = (
{
closed = 1;
nodes = (
(455,-12,o),
(567,60,o),
(583,195,c),
(398,195,l),
(391,149,o),
(358,120,o),
(313,120,cs),
(255,120,o),
(216,163,o),
(216,245,cs),
(216,325,o),
(254,377,o),
(313,377,cs),
(358,377,o),
(392,347,o),
(399,303,c),
(583,303,l),
(568,434,o),
(459,510,o),
(313,510,cs),
(137,510,o),
(28,397,o),
(28,245,cs),
(28,73,o),
(156,-12,o),
(313,-12,cs)
);
}
);
};
layerId = "9D32FE6F-9470-45EF-9689-909A6F5CE504";
shapes = (
{
closed = 1;
nodes = (
(455,-12,o),
(567,60,o),
(583,195,c),
(398,195,l),
(391,149,o),
(358,120,o),
(313,120,cs),
(255,120,o),
(216,163,o),
(216,245,cs),
(216,325,o),
(254,377,o),
(313,377,cs),
(358,377,o),
(392,347,o),
(399,303,c),
(583,303,l),
(568,434,o),
(459,510,o),
(313,510,cs),
(137,510,o),
(28,397,o),
(28,245,cs),
(28,73,o),
(156,-12,o),
(313,-12,cs)
);
}
);
width = 606;
}
);
note = c;
unicode = 99;
},
{
color = 5;
glyphname = d;
kernLeft = c;
lastChange = "2023-01-10 12:34:14 +0000";
layers = (
{
background = {
shapes = (
{
closed = 1;
nodes = (
(347,-10,o),
(414,22,o),
(447,82,c),
(447,0,l),
(527,0,l),
(527,700,l),
(442,700,l),
(441,427,l),
(404,482,o),
(343,510,o),
(274,510,cs),
(141,510,o),
(44,409,o),
(44,254,cs),
(44,94,o),
(144,-10,o),
(275,-10,cs)
);
},
{
closed = 1;
nodes = (
(186,65,o),
(129,147,o),
(129,254,cs),
(129,357,o),
(186,435,o),
(289,435,cs),
(389,435,o),
(446,357,o),
(446,254,cs),
(446,146,o),
(389,65,o),
(290,65,cs)
);
}
);
};
layerId = "30E869CF-9A31-4D47-9626-61B8364FC2DA";
shapes = (
{
closed = 1;
nodes = (
(347,-10,o),
(414,22,o),
(447,82,c),
(447,0,l),
(527,0,l),
(527,700,l),
(442,700,l),
(441,427,l),
(404,482,o),
(343,510,o),
(274,510,cs),
(141,510,o),
(44,409,o),
(44,254,cs),
(44,94,o),
(144,-10,o),
(275,-10,cs)
);
},
{
closed = 1;
nodes = (
(186,65,o),
(129,147,o),
(129,254,cs),
(129,357,o),
(186,435,o),
(289,435,cs),
(389,435,o),
(446,357,o),
(446,254,cs),
(446,146,o),
(389,65,o),
(290,65,cs)
);
}
);
width = 606;
},
{
background = {
shapes = (
{
closed = 1;
nodes = (
(359,-10,o),
(431,38,o),
(465,114,c),
(465,0,l),
(504,0,l),
(504,700,l),
(464,700,l),
(464,393,l),
(428,469,o),
(358,510,o),
(276,510,cs),
(133,510,o),
(49,394,o),
(49,254,cs),
(49,84,o),
(157,-10,o),
(275,-10,cs)
);
},
{
closed = 1;
nodes = (
(164,25,o),
(89,114,o),
(89,254,cs),
(89,372,o),
(151,475,o),
(278,475,cs),
(404,475,o),
(465,373,o),
(465,254,cs),
(465,130,o),
(403,25,o),
(278,25,cs)
);
}
);
};
layerId = "18A01495-E50D-4F2B-A1D8-5C332C731D93";
shapes = (
{
closed = 1;
nodes = (
(359,-10,o),
(431,38,o),
(465,114,c),
(465,0,l),
(504,0,l),
(504,700,l),
(464,700,l),
(464,393,l),
(428,469,o),
(358,510,o),
(276,510,cs),
(133,510,o),
(49,394,o),
(49,254,cs),
(49,84,o),
(157,-10,o),
(275,-10,cs)
);
},
{
closed = 1;
nodes = (
(164,25,o),
(89,114,o),
(89,254,cs),
(89,372,o),
(151,475,o),
(278,475,cs),
(404,475,o),
(465,373,o),
(465,254,cs),
(465,130,o),
(403,25,o),
(278,25,cs)
);
}
);
width = 591;
},
{
background = {
shapes = (
{
closed = 1;
nodes = (
(328,-11,o),
(383,16,o),
(418,65,c),
(418,0,l),
(591,0,l),
(591,700,l),
(409,700,l),
(409,447,l),
(375,487,o),
(324,510,o),
(262,510,cs),
(114,510,o),
(29,394,o),
(29,251,cs),
(29,83,o),
(128,-11,o),
(261,-11,cs)
);
},
{
closed = 1;
nodes = (
(253,117,o),
(217,173,o),
(217,251,cs),
(217,325,o),
(252,380,o),
(315,380,cs),
(376,380,o),
(412,326,o),
(412,251,cs),
(412,174,o),
(377,117,o),
(315,117,cs)
);
}
);
};
layerId = "9D32FE6F-9470-45EF-9689-909A6F5CE504";
shapes = (
{
closed = 1;
nodes = (
(328,-11,o),
(383,16,o),
(418,65,c),
(418,0,l),
(591,0,l),
(591,700,l),
(409,700,l),
(409,447,l),
(375,487,o),
(324,510,o),
(262,510,cs),
(114,510,o),
(29,394,o),
(29,251,cs),
(29,83,o),
(128,-11,o),
(261,-11,cs)
);
},
{
closed = 1;
nodes = (
(253,117,o),
(217,173,o),
(217,251,cs),
(217,325,o),
(252,380,o),
(315,380,cs),
(376,380,o),
(412,326,o),
(412,251,cs),
(412,174,o),
(377,117,o),
(315,117,cs)
);
}
);
width = 644;
}
);
note = d;
unicode = 100;
},
{
color = 5;
glyphname = e;
kernLeft = c;
kernRight = e;
lastChange = "2023-01-10 12:34:14 +0000";
layers = (
{
background = {
shapes = (
{
closed = 1;
nodes = (
(394,-10,o),
(488,44,o),
(513,148,c),
(428,148,l),
(406,92,o),
(352,65,o),
(288,65,cs),
(202,65,o),
(141,115,o),
(131,223,c),
(520,223,l),
(520,231,o),
(520,240,o),
(520,248,cs),
(520,409,o),
(424,510,o),
(285,510,cs),
(147,510,o),
(44,405,o),
(44,253,cs),
(44,95,o),
(146,-10,o),
(288,-10,cs)
);
},
{
closed = 1;
nodes = (
(143,386,o),
(201,435,o),
(285,435,cs),
(367,435,o),
(431,383,o),
(435,293,c),
(131,293,l)
);
}
);
};
layerId = "30E869CF-9A31-4D47-9626-61B8364FC2DA";
shapes = (
{
closed = 1;
nodes = (
(394,-10,o),
(488,44,o),
(513,148,c),
(428,148,l),
(406,92,o),
(352,65,o),
(288,65,cs),
(202,65,o),
(141,115,o),
(131,223,c),
(520,223,l),
(520,231,o),
(520,240,o),
(520,248,cs),
(520,409,o),
(424,510,o),
(285,510,cs),
(147,510,o),
(44,405,o),
(44,253,cs),
(44,95,o),
(146,-10,o),
(288,-10,cs)
);
},
{
closed = 1;
nodes = (
(143,386,o),
(201,435,o),
(285,435,cs),
(367,435,o),
(431,383,o),
(435,293,c),
(131,293,l)
);
}
);
width = 565;
},
{
background = {
shapes = (
{
closed = 1;
nodes = (
(380,-10,o),
(468,43,o),
(493,145,c),
(451,145,l),
(424,61,o),
(360,25,o),
(278,25,cs),
(157,25,o),
(92,125,o),
(88,240,c),
(499,240,l),
(499,245,o),
(499,250,o),
(499,255,cs),
(499,405,o),
(413,510,o),
(277,510,cs),
(140,510,o),
(48,400,o),
(48,250,cs),
(48,108,o),
(133,-10,o),
(280,-10,cs)
);
},
{
closed = 1;
nodes = (
(98,402,o),
(174,475,o),
(277,475,cs),
(388,475,o),
(455,392,o),
(459,275,c),
(89,275,l)
);
}
);
};
layerId = "18A01495-E50D-4F2B-A1D8-5C332C731D93";
shapes = (
{
closed = 1;
nodes = (
(380,-10,o),
(468,43,o),
(493,145,c),
(451,145,l),
(424,61,o),
(360,25,o),
(278,25,cs),
(157,25,o),
(92,125,o),
(88,240,c),
(499,240,l),
(499,245,o),
(499,250,o),
(499,255,cs),
(499,405,o),
(413,510,o),
(277,510,cs),
(140,510,o),
(48,400,o),
(48,250,cs),
(48,108,o),
(133,-10,o),
(280,-10,cs)
);
},
{
closed = 1;
nodes = (
(98,402,o),
(174,475,o),
(277,475,cs),
(388,475,o),
(455,392,o),
(459,275,c),
(89,275,l)
);
}
);
width = 551;
},
{
background = {
shapes = (
{
closed = 1;
nodes = (
(450,-12,o),
(557,50,o),
(583,161,c),
(403,161,l),
(389,125,o),
(353,108,o),
(312,108,cs),
(256,108,o),
(214,141,o),
(207,203,c),
(587,203,l),
(588,212,o),
(588,222,o),
(588,241,cs),
(588,407,o),
(480,510,o),
(309,510,cs),
(145,510,o),
(27,404,o),
(27,245,cs),
(27,70,o),
(158,-12,o),
(309,-12,cs)
);
},
{
closed = 1;
nodes = (
(216,355,o),
(255,391,o),
(310,391,cs),
(362,391,o),
(401,359,o),
(406,301,c),
(208,301,l)
);
}
);
};
layerId = "9D32FE6F-9470-45EF-9689-909A6F5CE504";
shapes = (
{
closed = 1;
nodes = (
(450,-12,o),
(557,50,o),
(583,161,c),
(403,161,l),
(389,125,o),
(353,108,o),
(312,108,cs),
(256,108,o),
(214,141,o),
(207,203,c),
(587,203,l),
(588,212,o),
(588,222,o),
(588,241,cs),
(588,407,o),
(480,510,o),
(309,510,cs),
(145,510,o),
(27,404,o),
(27,245,cs),
(27,70,o),
(158,-12,o),
(309,-12,cs)
);
},
{
closed = 1;
nodes = (
(216,355,o),
(255,391,o),
(310,391,cs),
(362,391,o),
(401,359,o),
(406,301,c),
(208,301,l)
);
}
);
width = 617;
}
);
note = e;
unicode = 101;
},
{
color = 5;
glyphname = f;
kernLeft = f;
lastChange = "2023-01-10 12:34:14 +0000";
layers = (
{
background = {
shapes = (
{
closed = 1;
nodes = (
(194,0,l),
(194,569,ls),
(194,608,o),
(209,625,o),
(250,625,cs),
(347,625,l),
(347,700,l),
(244,700,ls),
(149,700,o),
(111,657,o),
(111,567,cs),
(111,0,l)
);
},
{
closed = 1;
nodes = (
(327,430,l),
(327,500,l),
(3,500,l),
(3,430,l)
);
}
);
};
guides = (
{
angle = 270;
pos = (349,663);
},
{
angle = 270;
pos = (349,663);
}
);
layerId = "30E869CF-9A31-4D47-9626-61B8364FC2DA";
shapes = (
{
closed = 1;
nodes = (
(194,0,l),
(194,569,ls),
(194,608,o),
(209,625,o),
(250,625,cs),
(347,625,l),
(347,700,l),
(244,700,ls),
(149,700,o),
(111,657,o),
(111,567,cs),
(111,0,l)
);
},
{
closed = 1;
nodes = (
(327,430,l),
(327,500,l),
(3,500,l),
(3,430,l)
);
}
);
width = 351;
},
{
background = {
shapes = (
{
closed = 1;
nodes = (
(161,0,l),
(161,615,ls),
(161,647,o),
(179,665,o),
(211,665,cs),
(309,665,l),
(309,700,l),
(210,700,ls),
(152,700,o),
(120,668,o),
(120,610,cs),
(120,0,l)
);
},
{
closed = 1;
nodes = (
(309,465,l),
(309,500,l),
(8,500,l),
(8,465,l)
);
}
);
};
layerId = "18A01495-E50D-4F2B-A1D8-5C332C731D93";
shapes = (
{
closed = 1;
nodes = (
(161,0,l),
(161,615,ls),
(161,647,o),
(179,665,o),
(211,665,cs),
(309,665,l),
(309,700,l),
(210,700,ls),
(152,700,o),
(120,668,o),
(120,610,cs),
(120,0,l)
);
},
{
closed = 1;
nodes = (
(309,465,l),
(309,500,l),
(8,500,l),
(8,465,l)
);
}
);
width = 330;
},
{
background = {
shapes = (
{
closed = 1;
nodes = (
(273,0,l),
(272,520,ls),
(272,552,o),
(290,570,o),
(322,570,cs),
(404,570,l),
(404,700,l),
(269,700,ls),
(156,700,o),
(94,638,o),
(94,525,cs),
(94,0,l)
);
},
{
closed = 1;
nodes = (
(394,370,l),
(394,500,l),
(17,500,l),
(17,370,l)
);
}
);
};
guides = (
{
pos = (431,635);
}
);
layerId = "9D32FE6F-9470-45EF-9689-909A6F5CE504";
shapes = (
{
closed = 1;
nodes = (
(273,0,l),
(272,520,ls),
(272,552,o),
(290,570,o),
(322,570,cs),
(404,570,l),
(404,700,l),
(269,700,ls),
(156,700,o),
(94,638,o),
(94,525,cs),
(94,0,l)
);
},
{
closed = 1;
nodes = (
(394,370,l),
(394,500,l),
(17,500,l),
(17,370,l)
);
}
);
width = 424;
}
);
note = f;
unicode = 102;
},
{
color = 5;
glyphname = g;
kernLeft = g;
kernRight = g;
lastChange = "2023-01-10 12:34:14 +0000";
layers = (
{
background = {
shapes = (
{
closed = 1;
nodes = (
(425,-210,o),
(519,-136,o),
(519,-2,cs),
(519,500,l),
(436,500,l),
(436,428,l),
(401,481,o),
(342,510,o),
(273,510,cs),
(149,510,o),
(46,414,o),
(46,260,cs),
(46,106,o),
(147,10,o),
(274,10,cs),
(340,10,o),
(400,38,o),
(434,90,c),
(434,-2,ls),
(434,-95,o),
(373,-135,o),
(289,-135,cs),
(215,-135,o),
(159,-108,o),
(147,-47,c),
(61,-47,l),
(72,-146,o),
(157,-210,o),
(290,-210,cs)
);
},
{
closed = 1;
nodes = (
(188,85,o),
(131,160,o),
(131,261,cs),
(131,362,o),
(188,435,o),
(286,435,cs),
(381,435,o),
(438,360,o),
(438,261,cs),
(438,162,o),
(382,85,o),
(286,85,cs)
);
}
);
};
guides = (
{
pos = (288,10);
}
);
layerId = "30E869CF-9A31-4D47-9626-61B8364FC2DA";
shapes = (
{
closed = 1;
nodes = (
(425,-210,o),
(519,-136,o),
(519,-2,cs),
(519,500,l),
(436,500,l),
(436,428,l),
(401,481,o),
(342,510,o),
(273,510,cs),
(149,510,o),
(46,414,o),
(46,260,cs),
(46,106,o),
(147,10,o),
(274,10,cs),
(340,10,o),
(400,38,o),
(434,90,c),
(434,-2,ls),
(434,-95,o),
(373,-135,o),
(289,-135,cs),
(215,-135,o),
(159,-108,o),
(147,-47,c),
(61,-47,l),
(72,-146,o),
(157,-210,o),
(290,-210,cs)
);
},
{
closed = 1;
nodes = (
(188,85,o),
(131,160,o),
(131,261,cs),
(131,362,o),
(188,435,o),
(286,435,cs),
(381,435,o),
(438,360,o),
(438,261,cs),
(438,162,o),
(382,85,o),
(286,85,cs)
);
}
);
width = 597;
},
{
background = {
shapes = (
{
closed = 1;
nodes = (
(394,-210,o),
(494,-149,o),
(494,-11,cs),
(494,500,l),
(454,500,l),
(454,394,l),
(424,462,o),
(353,510,o),
(271,510,cs),
(141,510,o),
(50,405,o),
(50,260,cs),
(50,98,o),
(157,10,o),
(271,10,cs),
(351,10,o),
(423,59,o),
(454,125,c),
(454,-7,ls),
(454,-131,o),
(372,-175,o),
(279,-175,cs),
(191,-175,o),
(122,-132,o),
(108,-55,c),
(68,-55,l),
(84,-150,o),
(162,-210,o),
(278,-210,cs)
);
},
{
closed = 1;
nodes = (
(167,45,o),
(90,130,o),
(90,260,cs),
(90,373,o),
(151,475,o),
(274,475,cs),
(391,475,o),
(454,378,o),
(454,260,cs),
(454,146,o),
(393,45,o),
(274,45,cs)
);
}
);
};
guides = (
{
pos = (288,10);
}
);
layerId = "18A01495-E50D-4F2B-A1D8-5C332C731D93";
shapes = (
{
closed = 1;
nodes = (
(394,-210,o),
(494,-149,o),
(494,-11,cs),
(494,500,l),
(454,500,l),
(454,394,l),
(424,462,o),
(353,510,o),
(271,510,cs),
(141,510,o),
(50,405,o),
(50,260,cs),
(50,98,o),
(157,10,o),
(271,10,cs),
(351,10,o),
(423,59,o),
(454,125,c),
(454,-7,ls),
(454,-131,o),
(372,-175,o),
(279,-175,cs),
(191,-175,o),
(122,-132,o),
(108,-55,c),
(68,-55,l),
(84,-150,o),
(162,-210,o),
(278,-210,cs)
);
},
{
closed = 1;
nodes = (
(167,45,o),
(90,130,o),
(90,260,cs),
(90,373,o),
(151,475,o),
(274,475,cs),
(391,475,o),
(454,378,o),
(454,260,cs),
(454,146,o),
(393,45,o),
(274,45,cs)
);
}
);
width = 581;
},
{
background = {
shapes = (
{
closed = 1;
nodes = (
(458,-197,o),
(587,-138,o),
(587,39,cs),
(587,500,l),
(412,500,l),
(412,442,l),
(381,482,o),
(328,510,o),
(258,510,cs),
(126,510,o),
(30,407,o),
(30,258,cs),
(30,122,o),
(110,10,o),
(258,10,cs),
(318,10,o),
(372,32,o),
(405,75,c),
(405,19,ls),
(405,-49,o),
(373,-80,o),
(314,-80,cs),
(262,-80,o),
(229,-58,o),
(222,-18,c),
(42,-18,l),
(53,-130,o),
(142,-197,o),
(312,-197,cs)
);
},
{
closed = 1;
nodes = (
(253,141,o),
(218,188,o),
(218,258,cs),
(218,326,o),
(252,380,o),
(312,380,cs),
(372,380,o),
(407,333,o),
(407,264,cs),
(407,195,o),
(373,141,o),
(312,141,cs)
);
}
);
};
guides = (
{
pos = (288,10);
}
);
layerId = "9D32FE6F-9470-45EF-9689-909A6F5CE504";
shapes = (
{
closed = 1;
nodes = (
(458,-197,o),
(587,-138,o),
(587,39,cs),
(587,500,l),
(412,500,l),
(412,442,l),
(381,482,o),
(328,510,o),
(258,510,cs),
(126,510,o),
(30,407,o),
(30,258,cs),
(30,122,o),
(110,10,o),
(258,10,cs),
(318,10,o),
(372,32,o),
(405,75,c),
(405,19,ls),
(405,-49,o),
(373,-80,o),
(314,-80,cs),
(262,-80,o),
(229,-58,o),
(222,-18,c),
(42,-18,l),
(53,-130,o),
(142,-197,o),
(312,-197,cs)
);
},
{
closed = 1;
nodes = (
(253,141,o),
(218,188,o),
(218,258,cs),
(218,326,o),
(252,380,o),
(312,380,cs),
(372,380,o),
(407,333,o),
(407,264,cs),
(407,195,o),
(373,141,o),
(312,141,cs)
);
}
);
width = 639;
}
);
note = g;
unicode = 103;
},
{
color = 5;
glyphname = h;
kernRight = a;
lastChange = "2023-01-10 12:34:14 +0000";
layers = (
{
background = {
shapes = (
{
closed = 1;
nodes = (
(164,0,l),
(164,277,ls),
(164,365,o),
(214,435,o),
(301,435,cs),
(374,435,o),
(420,391,o),
(420,297,cs),
(420,0,l),
(505,0,l),
(505,312,ls),
(505,435,o),
(440,510,o),
(324,510,cs),
(258,510,o),
(200,484,o),
(164,430,c),
(164,700,l),
(79,700,l),
(79,0,l)
);
}
);
};
layerId = "30E869CF-9A31-4D47-9626-61B8364FC2DA";
shapes = (
{
closed = 1;
nodes = (
(164,0,l),
(164,277,ls),
(164,365,o),
(214,435,o),
(301,435,cs),
(374,435,o),
(420,391,o),
(420,297,cs),
(420,0,l),
(505,0,l),
(505,312,ls),
(505,435,o),
(440,510,o),
(324,510,cs),
(258,510,o),
(200,484,o),
(164,430,c),
(164,700,l),
(79,700,l),
(79,0,l)
);
}
);
width = 577;
},
{
background = {
shapes = (
{
closed = 1;
nodes = (
(127,0,l),
(127,297,ls),
(127,396,o),
(200,475,o),
(294,475,cs),
(381,475,o),
(440,422,o),
(440,309,cs),
(440,0,l),
(481,0,l),
(481,308,ls),
(481,441,o),
(408,510,o),
(299,510,cs),
(219,510,o),
(156,466,o),
(127,405,c),
(127,700,l),
(87,700,l),
(87,0,l)
);
}
);
};
layerId = "18A01495-E50D-4F2B-A1D8-5C332C731D93";
shapes = (
{
closed = 1;
nodes = (
(127,0,l),
(127,297,ls),
(127,396,o),
(200,475,o),
(294,475,cs),
(381,475,o),
(440,422,o),
(440,309,cs),
(440,0,l),
(481,0,l),
(481,308,ls),
(481,441,o),
(408,510,o),
(299,510,cs),
(219,510,o),
(156,466,o),
(127,405,c),
(127,700,l),
(87,700,l),
(87,0,l)
);
}
);
width = 561;
},
{
background = {
shapes = (
{
closed = 1;
nodes = (
(235,0,l),
(235,256,ls),
(235,322,o),
(264,363,o),
(315,363,cs),
(364,363,o),
(389,331,o),
(389,272,cs),
(389,0,l),
(571,0,l),
(571,314,ls),
(571,436,o),
(507,510,o),
(388,510,cs),
(323,510,o),
(266,482,o),
(235,439,c),
(235,700,l),
(53,700,l),
(53,0,l)
);
}
);
};
layerId = "9D32FE6F-9470-45EF-9689-909A6F5CE504";
shapes = (
{
closed = 1;
nodes = (
(235,0,l),
(235,256,ls),
(235,322,o),
(264,363,o),
(315,363,cs),
(364,363,o),
(389,331,o),
(389,272,cs),
(389,0,l),
(571,0,l),
(571,314,ls),
(571,436,o),
(507,510,o),
(388,510,cs),
(323,510,o),
(266,482,o),
(235,439,c),
(235,700,l),
(53,700,l),
(53,0,l)
);
}
);
width = 619;
}
);
note = h;
unicode = 104;
},
{
color = 5;
glyphname = i;
lastChange = "2023-01-10 12:34:14 +0000";
layers = (
{
background = {
shapes = (
{
closed = 1;
nodes = (
(159,0,l),
(159,500,l),
(74,500,l),
(74,0,l)
);
},
{
closed = 1;
nodes = (
(159,601,l),
(159,700,l),
(74,700,l),
(74,601,l)
);
}
);
};
layerId = "30E869CF-9A31-4D47-9626-61B8364FC2DA";
shapes = (
{
closed = 1;
nodes = (
(159,0,l),
(159,500,l),
(74,500,l),
(74,0,l)
);
},
{
closed = 1;
nodes = (
(159,601,l),
(159,700,l),
(74,700,l),
(74,601,l)
);
}
);
width = 229;
},
{
background = {
shapes = (
{
closed = 1;
nodes = (
(120,0,l),
(120,500,l),
(80,500,l),
(80,0,l)
);
},
{
closed = 1;
nodes = (
(120,626,l),
(120,700,l),
(80,700,l),
(80,626,l)
);
}
);
};
layerId = "18A01495-E50D-4F2B-A1D8-5C332C731D93";
shapes = (
{
closed = 1;
nodes = (
(120,0,l),
(120,500,l),
(80,500,l),
(80,0,l)
);
},
{
closed = 1;
nodes = (
(120,626,l),
(120,700,l),
(80,700,l),
(80,626,l)
);
}
);
width = 200;
},
{
background = {
shapes = (
{
closed = 1;
nodes = (
(235,0,l),
(235,500,l),
(53,500,l),
(53,0,l)
);
},
{
closed = 1;
nodes = (
(240,567,l),
(240,700,l),
(48,700,l),
(48,567,l)
);
}
);
};
layerId = "9D32FE6F-9470-45EF-9689-909A6F5CE504";
shapes = (
{
closed = 1;
nodes = (
(235,0,l),
(235,500,l),
(53,500,l),
(53,0,l)
);
},
{
closed = 1;
nodes = (
(240,567,l),
(240,700,l),
(48,700,l),
(48,567,l)
);
}
);
width = 288;
}
);
note = i;
unicode = 105;
},
{
color = 5;
glyphname = dotlessi;
lastChange = "2023-01-10 12:34:14 +0000";
layers = (
{
background = {
shapes = (
{
closed = 1;
nodes = (
(159,0,l),
(159,500,l),
(74,500,l),
(74,0,l)
);
},
{
closed = 1;
nodes = (
(159,601,l),
(159,700,l),
(74,700,l),
(74,601,l)
);
}
);
};
layerId = "30E869CF-9A31-4D47-9626-61B8364FC2DA";
shapes = (
{
closed = 1;
nodes = (
(159,0,l),
(159,500,l),
(74,500,l),
(74,0,l)
);
}
);
width = 229;
},
{
background = {
shapes = (
{
closed = 1;
nodes = (
(120,0,l),
(120,500,l),
(80,500,l),
(80,0,l)
);
},
{
closed = 1;
nodes = (
(120,626,l),
(120,700,l),
(80,700,l),
(80,626,l)
);
}
);
};
layerId = "18A01495-E50D-4F2B-A1D8-5C332C731D93";
shapes = (
{
closed = 1;
nodes = (
(120,0,l),
(120,500,l),
(80,500,l),
(80,0,l)
);
}
);
width = 200;
},
{
background = {
shapes = (
{
closed = 1;
nodes = (
(235,0,l),
(235,500,l),
(53,500,l),
(53,0,l)
);
},
{
closed = 1;
nodes = (
(240,567,l),
(240,700,l),
(48,700,l),
(48,567,l)
);
}
);
};
layerId = "9D32FE6F-9470-45EF-9689-909A6F5CE504";
shapes = (
{
closed = 1;
nodes = (
(235,0,l),
(235,500,l),
(53,500,l),
(53,0,l)
);
}
);
width = 288;
}
);
note = i;
unicode = 305;
},
{
color = 5;
glyphname = j;
kernLeft = j;
lastChange = "2022-05-29 18:29:24 +0000";
layers = (
{
background = {
shapes = (
{
closed = 1;
nodes = (
(78,-200,ls),
(173,-200,o),
(211,-157,o),
(211,-67,cs),
(211,500,l),
(128,500,l),
(128,-69,ls),
(128,-108,o),
(113,-125,o),
(72,-125,cs),
(-40,-125,l),
(-40,-200,l)
);
},
{
closed = 1;
nodes = (
(213,601,l),
(213,700,l),
(128,700,l),
(128,601,l)
);
}
);
};
guides = (
{
angle = 90;
pos = (-41,-163);
}
);
layerId = "30E869CF-9A31-4D47-9626-61B8364FC2DA";
shapes = (
{
closed = 1;
nodes = (
(78,-200,ls),
(173,-200,o),
(211,-157,o),
(211,-67,cs),
(211,500,l),
(128,500,l),
(128,-69,ls),
(128,-108,o),
(113,-125,o),
(72,-125,cs),
(-40,-125,l),
(-40,-200,l)
);
},
{
closed = 1;
nodes = (
(213,601,l),
(213,700,l),
(128,700,l),
(128,601,l)
);
}
);
width = 288;
},
{
background = {
shapes = (
{
closed = 1;
nodes = (
(59,-200,ls),
(117,-200,o),
(149,-168,o),
(149,-110,cs),
(149,500,l),
(108,500,l),
(108,-115,ls),
(108,-147,o),
(90,-165,o),
(58,-165,cs),
(-40,-165,l),
(-40,-200,l)
);
},
{
closed = 1;
nodes = (
(148,626,l),
(148,700,l),
(108,700,l),
(108,626,l)
);
}
);
};
layerId = "18A01495-E50D-4F2B-A1D8-5C332C731D93";
shapes = (
{
closed = 1;
nodes = (
(59,-200,ls),
(117,-200,o),
(149,-168,o),
(149,-110,cs),
(149,500,l),
(108,500,l),
(108,-115,ls),
(108,-147,o),
(90,-165,o),
(58,-165,cs),
(-40,-165,l),
(-40,-200,l)
);
},
{
closed = 1;
nodes = (
(148,626,l),
(148,700,l),
(108,700,l),
(108,626,l)
);
}
);
width = 209;
},
{
background = {
shapes = (
{
closed = 1;
nodes = (
(100,-200,ls),
(213,-200,o),
(275,-138,o),
(275,-25,cs),
(275,500,l),
(93,500,l),
(93,-20,ls),
(93,-52,o),
(75,-70,o),
(43,-70,cs),
(-40,-70,l),
(-40,-200,l)
);
},
{
closed = 1;
nodes = (
(280,555,l),
(280,700,l),
(88,700,l),
(88,555,l)
);
}
);
};
layerId = "9D32FE6F-9470-45EF-9689-909A6F5CE504";
shapes = (
{
closed = 1;
nodes = (
(100,-200,ls),
(213,-200,o),
(275,-138,o),
(275,-25,cs),
(275,500,l),
(93,500,l),
(93,-20,ls),
(93,-52,o),
(75,-70,o),
(43,-70,cs),
(-40,-70,l),
(-40,-200,l)
);
},
{
closed = 1;
nodes = (
(280,555,l),
(280,700,l),
(88,700,l),
(88,555,l)
);
}
);
width = 320;
}
);
note = j;
unicode = 106;
},
{
color = 5;
glyphname = jdotless;
kernLeft = j;
lastChange = "2023-01-10 12:34:14 +0000";
layers = (
{
background = {
shapes = (
{
closed = 1;
nodes = (
(78,-200,ls),
(173,-200,o),
(211,-157,o),
(211,-67,cs),
(211,500,l),
(128,500,l),
(128,-69,ls),
(128,-108,o),
(113,-125,o),
(72,-125,cs),
(-40,-125,l),
(-40,-200,l)
);
},
{
closed = 1;
nodes = (
(213,601,l),
(213,700,l),
(128,700,l),
(128,601,l)
);
}
);
};
guides = (
{
angle = 90;
pos = (-41,-163);
}
);
layerId = "30E869CF-9A31-4D47-9626-61B8364FC2DA";
shapes = (
{
closed = 1;
nodes = (
(78,-200,ls),
(173,-200,o),
(211,-157,o),
(211,-67,cs),
(211,500,l),
(128,500,l),
(128,-69,ls),
(128,-108,o),
(113,-125,o),
(72,-125,cs),
(-40,-125,l),
(-40,-200,l)
);
}
);
width = 288;
},
{
background = {
shapes = (
{
closed = 1;
nodes = (
(59,-200,ls),
(117,-200,o),
(149,-168,o),
(149,-110,cs),
(149,500,l),
(108,500,l),
(108,-115,ls),
(108,-147,o),
(90,-165,o),
(58,-165,cs),
(-40,-165,l),
(-40,-200,l)
);
},
{
closed = 1;
nodes = (
(148,626,l),
(148,700,l),
(108,700,l),
(108,626,l)
);
}
);
};
layerId = "18A01495-E50D-4F2B-A1D8-5C332C731D93";
shapes = (
{
closed = 1;
nodes = (
(59,-200,ls),
(117,-200,o),
(149,-168,o),
(149,-110,cs),
(149,500,l),
(108,500,l),
(108,-115,ls),
(108,-147,o),
(90,-165,o),
(58,-165,cs),
(-40,-165,l),
(-40,-200,l)
);
}
);
width = 209;
},
{
background = {
shapes = (
{
closed = 1;
nodes = (
(100,-200,ls),
(213,-200,o),
(275,-138,o),
(275,-25,cs),
(275,500,l),
(93,500,l),
(93,-20,ls),
(93,-52,o),
(75,-70,o),
(43,-70,cs),
(-40,-70,l),
(-40,-200,l)
);
},
{
closed = 1;
nodes = (
(280,555,l),
(280,700,l),
(88,700,l),
(88,555,l)
);
}
);
};
layerId = "9D32FE6F-9470-45EF-9689-909A6F5CE504";
shapes = (
{
closed = 1;
nodes = (
(100,-200,ls),
(213,-200,o),
(275,-138,o),
(275,-25,cs),
(275,500,l),
(93,500,l),
(93,-20,ls),
(93,-52,o),
(75,-70,o),
(43,-70,cs),
(-40,-70,l),
(-40,-200,l)
);
}
);
width = 320;
}
);
note = j;
unicode = 567;
},
{
color = 5;
glyphname = k;
kernRight = k;
lastChange = "2023-01-10 12:34:14 +0000";
layers = (
{
background = {
shapes = (
{
closed = 1;
nodes = (
(164,0,l),
(164,172,l),
(249,256,l),
(419,0,l),
(519,0,l),
(312,312,l),
(511,500,l),
(396,500,l),
(164,274,l),
(164,700,l),
(79,700,l),
(79,0,l)
);
}
);
};
layerId = "30E869CF-9A31-4D47-9626-61B8364FC2DA";
shapes = (
{
closed = 1;
nodes = (
(164,0,l),
(164,172,l),
(249,256,l),
(419,0,l),
(519,0,l),
(312,312,l),
(511,500,l),
(396,500,l),
(164,274,l),
(164,700,l),
(79,700,l),
(79,0,l)
);
}
);
width = 534;
},
{
background = {
shapes = (
{
closed = 1;
nodes = (
(127,0,l),
(127,196,l),
(233,292,l),
(429,0,l),
(479,0,l),
(265,318,l),
(469,500,l),
(408,500,l),
(127,247,l),
(127,700,l),
(87,700,l),
(87,0,l)
);
}
);
};
layerId = "18A01495-E50D-4F2B-A1D8-5C332C731D93";
shapes = (
{
closed = 1;
nodes = (
(127,0,l),
(127,196,l),
(233,292,l),
(429,0,l),
(479,0,l),
(265,318,l),
(469,500,l),
(408,500,l),
(127,247,l),
(127,700,l),
(87,700,l),
(87,0,l)
);
}
);
width = 501;
},
{
background = {
shapes = (
{
closed = 1;
nodes = (
(233,0,l),
(233,122,l),
(299,194,l),
(409,0,l),
(612,0,l),
(427,319,l),
(595,500,l),
(387,500,l),
(233,328,l),
(233,700,l),
(53,700,l),
(53,0,l)
);
}
);
};
layerId = "9D32FE6F-9470-45EF-9689-909A6F5CE504";
shapes = (
{
closed = 1;
nodes = (
(233,0,l),
(233,122,l),
(299,194,l),
(409,0,l),
(612,0,l),
(427,319,l),
(595,500,l),
(387,500,l),
(233,328,l),
(233,700,l),
(53,700,l),
(53,0,l)
);
}
);
width = 616;
}
);
note = k;
unicode = 107;
},
{
color = 5;
glyphname = l;
lastChange = "2023-01-10 12:34:14 +0000";
layers = (
{
background = {
shapes = (
{
closed = 1;
nodes = (
(164,0,l),
(164,700,l),
(79,700,l),
(79,0,l)
);
}
);
};
layerId = "30E869CF-9A31-4D47-9626-61B8364FC2DA";
shapes = (
{
closed = 1;
nodes = (
(164,0,l),
(164,700,l),
(79,700,l),
(79,0,l)
);
}
);
width = 242;
},
{
background = {
shapes = (
{
closed = 1;
nodes = (
(127,0,l),
(127,700,l),
(87,700,l),
(87,0,l)
);
}
);
};
layerId = "18A01495-E50D-4F2B-A1D8-5C332C731D93";
shapes = (
{
closed = 1;
nodes = (
(127,0,l),
(127,700,l),
(87,700,l),
(87,0,l)
);
}
);
width = 214;
},
{
background = {
shapes = (
{
closed = 1;
nodes = (
(235,0,l),
(235,700,l),
(53,700,l),
(53,0,l)
);
}
);
};
layerId = "9D32FE6F-9470-45EF-9689-909A6F5CE504";
shapes = (
{
closed = 1;
nodes = (
(235,0,l),
(235,700,l),
(53,700,l),
(53,0,l)
);
}
);
width = 288;
}
);
note = l;
unicode = 108;
},
{
color = 5;
glyphname = m;
kernLeft = m;
kernRight = a;
lastChange = "2023-01-10 12:34:14 +0000";
layers = (
{
background = {
shapes = (
{
closed = 1;
nodes = (
(166,0,l),
(166,280,ls),
(166,373,o),
(217,435,o),
(290,435,cs),
(363,435,o),
(404,392,o),
(404,304,cs),
(404,0,l),
(488,0,l),
(488,289,ls),
(488,378,o),
(543,435,o),
(613,435,cs),
(685,435,o),
(727,392,o),
(727,307,cs),
(727,0,l),
(811,0,l),
(811,316,ls),
(811,444,o),
(741,510,o),
(633,510,cs),
(558,510,o),
(502,477,o),
(467,420,c),
(439,479,o),
(383,510,o),
(314,510,cs),
(245,510,o),
(194,478,o),
(164,429,c),
(164,500,l),
(79,500,l),
(79,0,l)
);
}
);
};
layerId = "30E869CF-9A31-4D47-9626-61B8364FC2DA";
shapes = (
{
closed = 1;
nodes = (
(166,0,l),
(166,280,ls),
(166,373,o),
(217,435,o),
(290,435,cs),
(363,435,o),
(404,392,o),
(404,304,cs),
(404,0,l),
(488,0,l),
(488,289,ls),
(488,378,o),
(543,435,o),
(613,435,cs),
(685,435,o),
(727,392,o),
(727,307,cs),
(727,0,l),
(811,0,l),
(811,316,ls),
(811,444,o),
(741,510,o),
(633,510,cs),
(558,510,o),
(502,477,o),
(467,420,c),
(439,479,o),
(383,510,o),
(314,510,cs),
(245,510,o),
(194,478,o),
(164,429,c),
(164,500,l),
(79,500,l),
(79,0,l)
);
}
);
width = 883;
},
{
background = {
shapes = (
{
closed = 1;
nodes = (
(128,0,l),
(128,297,ls),
(128,404,o),
(195,475,o),
(282,475,cs),
(360,475,o),
(414,425,o),
(414,319,cs),
(414,0,l),
(455,0,l),
(455,303,ls),
(455,407,o),
(523,475,o),
(606,475,cs),
(688,475,o),
(741,424,o),
(741,325,cs),
(741,0,l),
(782,0,l),
(782,324,ls),
(782,437,o),
(719,510,o),
(611,510,cs),
(528,510,o),
(470,461,o),
(444,399,c),
(419,472,o),
(361,510,o),
(285,510,cs),
(210,510,o),
(151,466,o),
(127,407,c),
(127,500,l),
(87,500,l),
(87,0,l)
);
}
);
};
layerId = "18A01495-E50D-4F2B-A1D8-5C332C731D93";
shapes = (
{
closed = 1;
nodes = (
(128,0,l),
(128,297,ls),
(128,404,o),
(195,475,o),
(282,475,cs),
(360,475,o),
(414,425,o),
(414,319,cs),
(414,0,l),
(455,0,l),
(455,303,ls),
(455,407,o),
(523,475,o),
(606,475,cs),
(688,475,o),
(741,424,o),
(741,325,cs),
(741,0,l),
(782,0,l),
(782,324,ls),
(782,437,o),
(719,510,o),
(611,510,cs),
(528,510,o),
(470,461,o),
(444,399,c),
(419,472,o),
(361,510,o),
(285,510,cs),
(210,510,o),
(151,466,o),
(127,407,c),
(127,500,l),
(87,500,l),
(87,0,l)
);
}
);
width = 862;
},
{
background = {
shapes = (
{
closed = 1;
nodes = (
(235,0,l),
(235,259,ls),
(235,323,o),
(265,363,o),
(311,363,cs),
(358,363,o),
(380,328,o),
(380,269,cs),
(380,0,l),
(562,0,l),
(562,259,ls),
(562,323,o),
(592,363,o),
(638,363,cs),
(685,363,o),
(707,328,o),
(707,269,cs),
(707,0,l),
(889,0,l),
(889,313,ls),
(889,453,o),
(809,510,o),
(704,510,cs),
(630,510,o),
(571,477,o),
(536,427,c),
(505,484,o),
(447,510,o),
(385,510,cs),
(318,510,o),
(258,479,o),
(226,432,c),
(226,500,l),
(53,500,l),
(53,0,l)
);
}
);
};
layerId = "9D32FE6F-9470-45EF-9689-909A6F5CE504";
shapes = (
{
closed = 1;
nodes = (
(235,0,l),
(235,259,ls),
(235,323,o),
(265,363,o),
(311,363,cs),
(358,363,o),
(380,328,o),
(380,269,cs),
(380,0,l),
(562,0,l),
(562,259,ls),
(562,323,o),
(592,363,o),
(638,363,cs),
(685,363,o),
(707,328,o),
(707,269,cs),
(707,0,l),
(889,0,l),
(889,313,ls),
(889,453,o),
(809,510,o),
(704,510,cs),
(630,510,o),
(571,477,o),
(536,427,c),
(505,484,o),
(447,510,o),
(385,510,cs),
(318,510,o),
(258,479,o),
(226,432,c),
(226,500,l),
(53,500,l),
(53,0,l)
);
}
);
width = 937;
}
);
note = m;
unicode = 109;
},
{
color = 5;
glyphname = n;
kernLeft = m;
kernRight = a;
lastChange = "2023-01-10 12:34:14 +0000";
layers = (
{
background = {
shapes = (
{
closed = 1;
nodes = (
(164,0,l),
(164,277,ls),
(164,365,o),
(214,435,o),
(301,435,cs),
(374,435,o),
(420,391,o),
(420,297,cs),
(420,0,l),
(505,0,l),
(505,312,ls),
(505,435,o),
(440,510,o),
(324,510,cs),
(258,510,o),
(200,484,o),
(164,430,c),
(164,500,l),
(79,500,l),
(79,0,l)
);
}
);
};
layerId = "30E869CF-9A31-4D47-9626-61B8364FC2DA";
shapes = (
{
closed = 1;
nodes = (
(164,0,l),
(164,277,ls),
(164,365,o),
(214,435,o),
(301,435,cs),
(374,435,o),
(420,391,o),
(420,297,cs),
(420,0,l),
(505,0,l),
(505,312,ls),
(505,435,o),
(440,510,o),
(324,510,cs),
(258,510,o),
(200,484,o),
(164,430,c),
(164,500,l),
(79,500,l),
(79,0,l)
);
}
);
width = 577;
},
{
background = {
shapes = (
{
closed = 1;
nodes = (
(127,0,l),
(127,297,ls),
(127,396,o),
(200,475,o),
(294,475,cs),
(381,475,o),
(440,422,o),
(440,309,cs),
(440,0,l),
(481,0,l),
(481,308,ls),
(481,441,o),
(408,510,o),
(299,510,cs),
(219,510,o),
(156,466,o),
(127,405,c),
(127,500,l),
(87,500,l),
(87,0,l)
);
}
);
};
layerId = "18A01495-E50D-4F2B-A1D8-5C332C731D93";
shapes = (
{
closed = 1;
nodes = (
(127,0,l),
(127,297,ls),
(127,396,o),
(200,475,o),
(294,475,cs),
(381,475,o),
(440,422,o),
(440,309,cs),
(440,0,l),
(481,0,l),
(481,308,ls),
(481,441,o),
(408,510,o),
(299,510,cs),
(219,510,o),
(156,466,o),
(127,405,c),
(127,500,l),
(87,500,l),
(87,0,l)
);
}
);
width = 561;
},
{
background = {
shapes = (
{
closed = 1;
nodes = (
(235,0,l),
(235,256,ls),
(235,322,o),
(264,363,o),
(315,363,cs),
(364,363,o),
(389,331,o),
(389,271,cs),
(389,0,l),
(571,0,l),
(571,314,ls),
(571,436,o),
(508,510,o),
(387,510,cs),
(319,510,o),
(259,479,o),
(226,431,c),
(226,500,l),
(53,500,l),
(53,0,l)
);
}
);
};
layerId = "9D32FE6F-9470-45EF-9689-909A6F5CE504";
shapes = (
{
closed = 1;
nodes = (
(235,0,l),
(235,256,ls),
(235,322,o),
(264,363,o),
(315,363,cs),
(364,363,o),
(389,331,o),
(389,271,cs),
(389,0,l),
(571,0,l),
(571,314,ls),
(571,436,o),
(508,510,o),
(387,510,cs),
(319,510,o),
(259,479,o),
(226,431,c),
(226,500,l),
(53,500,l),
(53,0,l)
);
}
);
width = 619;
}
);
note = n;
unicode = 110;
},
{
color = 5;
glyphname = o;
kernLeft = c;
kernRight = b;
lastChange = "2023-01-10 12:34:14 +0000";
layers = (
{
background = {
shapes = (
{
closed = 1;
nodes = (
(438,-10,o),
(542,93,o),
(542,251,cs),
(542,406,o),
(439,510,o),
(293,510,cs),
(150,510,o),
(44,407,o),
(44,251,cs),
(44,93,o),
(148,-10,o),
(293,-10,cs)
);
},
{
closed = 1;
nodes = (
(190,65,o),
(129,142,o),
(129,251,cs),
(129,355,o),
(189,435,o),
(293,435,cs),
(395,435,o),
(457,357,o),
(457,251,cs),
(457,142,o),
(397,65,o),
(293,65,cs)
);
}
);
};
layerId = "30E869CF-9A31-4D47-9626-61B8364FC2DA";
shapes = (
{
closed = 1;
nodes = (
(438,-10,o),
(542,93,o),
(542,251,cs),
(542,406,o),
(439,510,o),
(293,510,cs),
(150,510,o),
(44,407,o),
(44,251,cs),
(44,93,o),
(148,-10,o),
(293,-10,cs)
);
},
{
closed = 1;
nodes = (
(190,65,o),
(129,142,o),
(129,251,cs),
(129,355,o),
(189,435,o),
(293,435,cs),
(395,435,o),
(457,357,o),
(457,251,cs),
(457,142,o),
(397,65,o),
(293,65,cs)
);
}
);
width = 586;
},
{
background = {
shapes = (
{
closed = 1;
nodes = (
(412,-10,o),
(521,87,o),
(521,252,cs),
(521,402,o),
(421,510,o),
(285,510,cs),
(139,510,o),
(48,392,o),
(48,252,cs),
(48,90,o),
(155,-10,o),
(285,-10,cs)
);
},
{
closed = 1;
nodes = (
(172,25,o),
(89,111,o),
(89,252,cs),
(89,369,o),
(155,475,o),
(285,475,cs),
(412,475,o),
(481,372,o),
(481,252,cs),
(481,114,o),
(400,25,o),
(285,25,cs)
);
}
);
};
layerId = "18A01495-E50D-4F2B-A1D8-5C332C731D93";
shapes = (
{
closed = 1;
nodes = (
(412,-10,o),
(521,87,o),
(521,252,cs),
(521,402,o),
(421,510,o),
(285,510,cs),
(139,510,o),
(48,392,o),
(48,252,cs),
(48,90,o),
(155,-10,o),
(285,-10,cs)
);
},
{
closed = 1;
nodes = (
(172,25,o),
(89,111,o),
(89,252,cs),
(89,369,o),
(155,475,o),
(285,475,cs),
(412,475,o),
(481,372,o),
(481,252,cs),
(481,114,o),
(400,25,o),
(285,25,cs)
);
}
);
width = 569;
},
{
background = {
shapes = (
{
closed = 1;
nodes = (
(469,-12,o),
(603,72,o),
(603,247,cs),
(603,410,o),
(477,510,o),
(315,510,cs),
(160,510,o),
(27,416,o),
(27,247,cs),
(27,94,o),
(133,-12,o),
(315,-12,cs)
);
},
{
closed = 1;
nodes = (
(251,116,o),
(215,169,o),
(215,247,cs),
(215,317,o),
(250,377,o),
(315,377,cs),
(378,377,o),
(415,318,o),
(415,247,cs),
(415,170,o),
(380,116,o),
(315,116,cs)
);
}
);
};
layerId = "9D32FE6F-9470-45EF-9689-909A6F5CE504";
shapes = (
{
closed = 1;
nodes = (
(469,-12,o),
(603,72,o),
(603,247,cs),
(603,410,o),
(477,510,o),
(315,510,cs),
(160,510,o),
(27,416,o),
(27,247,cs),
(27,94,o),
(133,-12,o),
(315,-12,cs)
);
},
{
closed = 1;
nodes = (
(251,116,o),
(215,169,o),
(215,247,cs),
(215,317,o),
(250,377,o),
(315,377,cs),
(378,377,o),
(415,318,o),
(415,247,cs),
(415,170,o),
(380,116,o),
(315,116,cs)
);
}
);
width = 629;
}
);
note = o;
unicode = 111;
},
{
color = 5;
glyphname = p;
kernRight = b;
lastChange = "2023-01-10 12:34:14 +0000";
layers = (
{
background = {
shapes = (
{
closed = 1;
nodes = (
(164,-200,l),
(164,73,l),
(201,18,o),
(262,-10,o),
(331,-10,cs),
(464,-10,o),
(561,91,o),
(561,246,cs),
(561,406,o),
(462,510,o),
(331,510,cs),
(259,510,o),
(192,478,o),
(159,418,c),
(159,500,l),
(79,500,l),
(79,-200,l)
);
},
{
closed = 1;
nodes = (
(216,65,o),
(159,143,o),
(159,246,cs),
(159,354,o),
(217,435,o),
(316,435,cs),
(420,435,o),
(476,353,o),
(476,246,cs),
(476,143,o),
(419,65,o),
(316,65,cs)
);
}
);
};
layerId = "30E869CF-9A31-4D47-9626-61B8364FC2DA";
shapes = (
{
closed = 1;
nodes = (
(164,-200,l),
(164,73,l),
(201,18,o),
(262,-10,o),
(331,-10,cs),
(464,-10,o),
(561,91,o),
(561,246,cs),
(561,406,o),
(462,510,o),
(331,510,cs),
(259,510,o),
(192,478,o),
(159,418,c),
(159,500,l),
(79,500,l),
(79,-200,l)
);
},
{
closed = 1;
nodes = (
(216,65,o),
(159,143,o),
(159,246,cs),
(159,354,o),
(217,435,o),
(316,435,cs),
(420,435,o),
(476,353,o),
(476,246,cs),
(476,143,o),
(419,65,o),
(316,65,cs)
);
}
);
width = 606;
},
{
background = {
shapes = (
{
closed = 1;
nodes = (
(127,-200,l),
(127,107,l),
(163,31,o),
(233,-10,o),
(315,-10,cs),
(458,-10,o),
(542,106,o),
(542,246,cs),
(542,416,o),
(434,510,o),
(316,510,cs),
(232,510,o),
(160,462,o),
(126,386,c),
(126,500,l),
(87,500,l),
(87,-200,l)
);
},
{
closed = 1;
nodes = (
(187,25,o),
(126,127,o),
(126,246,cs),
(126,370,o),
(188,475,o),
(313,475,cs),
(427,475,o),
(502,386,o),
(502,246,cs),
(502,128,o),
(440,25,o),
(313,25,cs)
);
}
);
};
layerId = "18A01495-E50D-4F2B-A1D8-5C332C731D93";
shapes = (
{
closed = 1;
nodes = (
(127,-200,l),
(127,107,l),
(163,31,o),
(233,-10,o),
(315,-10,cs),
(458,-10,o),
(542,106,o),
(542,246,cs),
(542,416,o),
(434,510,o),
(316,510,cs),
(232,510,o),
(160,462,o),
(126,386,c),
(126,500,l),
(87,500,l),
(87,-200,l)
);
},
{
closed = 1;
nodes = (
(187,25,o),
(126,127,o),
(126,246,cs),
(126,370,o),
(188,475,o),
(313,475,cs),
(427,475,o),
(502,386,o),
(502,246,cs),
(502,128,o),
(440,25,o),
(313,25,cs)
);
}
);
width = 591;
},
{
background = {
shapes = (
{
closed = 1;
nodes = (
(235,-200,l),
(235,54,l),
(269,14,o),
(318,-11,o),
(383,-11,cs),
(512,-11,o),
(616,73,o),
(616,245,cs),
(616,392,o),
(533,510,o),
(383,510,cs),
(316,510,o),
(261,485,o),
(227,437,c),
(227,500,l),
(53,500,l),
(53,-200,l)
);
},
{
closed = 1;
nodes = (
(269,121,o),
(232,176,o),
(232,251,cs),
(232,327,o),
(267,382,o),
(330,382,cs),
(392,382,o),
(428,329,o),
(428,251,cs),
(428,177,o),
(393,121,o),
(330,121,cs)
);
}
);
};
layerId = "9D32FE6F-9470-45EF-9689-909A6F5CE504";
shapes = (
{
closed = 1;
nodes = (
(235,-200,l),
(235,54,l),
(269,14,o),
(318,-11,o),
(383,-11,cs),
(512,-11,o),
(616,73,o),
(616,245,cs),
(616,392,o),
(533,510,o),
(383,510,cs),
(316,510,o),
(261,485,o),
(227,437,c),
(227,500,l),
(53,500,l),
(53,-200,l)
);
},
{
closed = 1;
nodes = (
(269,121,o),
(232,176,o),
(232,251,cs),
(232,327,o),
(267,382,o),
(330,382,cs),
(392,382,o),
(428,329,o),
(428,251,cs),
(428,177,o),
(393,121,o),
(330,121,cs)
);
}
);
width = 644;
}
);
note = p;
unicode = 112;
},
{
color = 5;
glyphname = q;
kernLeft = c;
lastChange = "2023-01-10 12:34:14 +0000";
layers = (
{
background = {
shapes = (
{
closed = 1;
nodes = (
(527,-200,l),
(527,500,l),
(447,500,l),
(447,418,l),
(414,478,o),
(347,510,o),
(275,510,cs),
(144,510,o),
(45,406,o),
(45,246,cs),
(45,91,o),
(142,-10,o),
(275,-10,cs),
(344,-10,o),
(405,18,o),
(442,73,c),
(442,-200,l)
);
},
{
closed = 1;
nodes = (
(187,65,o),
(130,143,o),
(130,246,cs),
(130,353,o),
(186,435,o),
(290,435,cs),
(389,435,o),
(447,354,o),
(447,246,cs),
(447,143,o),
(390,65,o),
(290,65,cs)
);
}
);
};
layerId = "30E869CF-9A31-4D47-9626-61B8364FC2DA";
shapes = (
{
closed = 1;
nodes = (
(527,-200,l),
(527,500,l),
(447,500,l),
(447,418,l),
(414,478,o),
(347,510,o),
(275,510,cs),
(144,510,o),
(45,406,o),
(45,246,cs),
(45,91,o),
(142,-10,o),
(275,-10,cs),
(344,-10,o),
(405,18,o),
(442,73,c),
(442,-200,l)
);
},
{
closed = 1;
nodes = (
(187,65,o),
(130,143,o),
(130,246,cs),
(130,353,o),
(186,435,o),
(290,435,cs),
(389,435,o),
(447,354,o),
(447,246,cs),
(447,143,o),
(390,65,o),
(290,65,cs)
);
}
);
width = 606;
},
{
background = {
shapes = (
{
closed = 1;
nodes = (
(504,-200,l),
(504,500,l),
(465,500,l),
(465,386,l),
(431,462,o),
(359,510,o),
(275,510,cs),
(157,510,o),
(49,416,o),
(49,246,cs),
(49,106,o),
(133,-10,o),
(276,-10,cs),
(358,-10,o),
(428,31,o),
(464,107,c),
(464,-200,l)
);
},
{
closed = 1;
nodes = (
(151,25,o),
(89,128,o),
(89,246,cs),
(89,386,o),
(164,475,o),
(278,475,cs),
(403,475,o),
(465,370,o),
(465,246,cs),
(465,127,o),
(404,25,o),
(278,25,cs)
);
}
);
};
layerId = "18A01495-E50D-4F2B-A1D8-5C332C731D93";
shapes = (
{
closed = 1;
nodes = (
(504,-200,l),
(504,500,l),
(465,500,l),
(465,386,l),
(431,462,o),
(359,510,o),
(275,510,cs),
(157,510,o),
(49,416,o),
(49,246,cs),
(49,106,o),
(133,-10,o),
(276,-10,cs),
(358,-10,o),
(428,31,o),
(464,107,c),
(464,-200,l)
);
},
{
closed = 1;
nodes = (
(151,25,o),
(89,128,o),
(89,246,cs),
(89,386,o),
(164,475,o),
(278,475,cs),
(403,475,o),
(465,370,o),
(465,246,cs),
(465,127,o),
(404,25,o),
(278,25,cs)
);
}
);
width = 591;
},
{
background = {
shapes = (
{
closed = 1;
nodes = (
(591,-200,l),
(591,500,l),
(418,500,l),
(418,440,l),
(384,486,o),
(330,510,o),
(262,510,cs),
(114,510,o),
(29,394,o),
(29,256,cs),
(29,89,o),
(128,-10,o),
(261,-10,cs),
(325,-10,o),
(375,14,o),
(409,54,c),
(409,-200,l)
);
},
{
closed = 1;
nodes = (
(253,121,o),
(217,177,o),
(217,253,cs),
(217,321,o),
(252,376,o),
(315,376,cs),
(376,376,o),
(412,322,o),
(412,253,cs),
(412,177,o),
(377,121,o),
(315,121,cs)
);
}
);
};
layerId = "9D32FE6F-9470-45EF-9689-909A6F5CE504";
shapes = (
{
closed = 1;
nodes = (
(591,-200,l),
(591,500,l),
(418,500,l),
(418,440,l),
(384,486,o),
(330,510,o),
(262,510,cs),
(114,510,o),
(29,394,o),
(29,256,cs),
(29,89,o),
(128,-10,o),
(261,-10,cs),
(325,-10,o),
(375,14,o),
(409,54,c),
(409,-200,l)
);
},
{
closed = 1;
nodes = (
(253,121,o),
(217,177,o),
(217,253,cs),
(217,321,o),
(252,376,o),
(315,376,cs),
(376,376,o),
(412,322,o),
(412,253,cs),
(412,177,o),
(377,121,o),
(315,121,cs)
);
}
);
width = 644;
}
);
note = q;
unicode = 113;
},
{
color = 5;
glyphname = r;
kernLeft = m;
kernRight = r;
lastChange = "2023-01-10 12:34:14 +0000";
layers = (
{
background = {
shapes = (
{
closed = 1;
nodes = (
(164,0,l),
(164,272,ls),
(164,360,o),
(214,430,o),
(301,430,cs),
(348,430,l),
(348,500,l),
(324,500,ls),
(258,500,o),
(200,474,o),
(164,420,c),
(164,500,l),
(79,500,l),
(79,0,l)
);
}
);
};
layerId = "30E869CF-9A31-4D47-9626-61B8364FC2DA";
shapes = (
{
closed = 1;
nodes = (
(164,0,l),
(164,267,ls),
(164,355,o),
(214,425,o),
(301,425,cs),
(348,425,l),
(348,500,l),
(324,500,ls),
(258,500,o),
(200,474,o),
(164,420,c),
(164,500,l),
(79,500,l),
(79,0,l)
);
}
);
width = 365;
},
{
background = {
shapes = (
{
closed = 1;
nodes = (
(128,0,l),
(128,289,ls),
(128,381,o),
(192,465,o),
(281,465,cs),
(315,465,l),
(315,500,l),
(285,500,ls),
(213,500,o),
(152,454,o),
(127,389,c),
(127,500,l),
(87,500,l),
(87,0,l)
);
}
);
};
layerId = "18A01495-E50D-4F2B-A1D8-5C332C731D93";
shapes = (
{
closed = 1;
nodes = (
(128,0,l),
(128,289,ls),
(128,381,o),
(192,465,o),
(281,465,cs),
(315,465,l),
(315,500,l),
(285,500,ls),
(213,500,o),
(152,454,o),
(127,389,c),
(127,500,l),
(87,500,l),
(87,0,l)
);
}
);
width = 335;
},
{
background = {
shapes = (
{
closed = 1;
nodes = (
(236,0,l),
(236,249,ls),
(236,330,o),
(284,370,o),
(358,370,cs),
(412,370,l),
(412,500,l),
(385,500,ls),
(307,500,o),
(252,466,o),
(226,401,c),
(226,500,l),
(53,500,l),
(53,0,l)
);
}
);
};
layerId = "9D32FE6F-9470-45EF-9689-909A6F5CE504";
shapes = (
{
closed = 1;
nodes = (
(236,0,l),
(236,249,ls),
(236,330,o),
(284,370,o),
(358,370,cs),
(412,370,l),
(412,500,l),
(385,500,ls),
(307,500,o),
(252,466,o),
(226,401,c),
(226,500,l),
(53,500,l),
(53,0,l)
);
}
);
width = 428;
}
);
note = r;
unicode = 114;
},
{
color = 5;
glyphname = s;
kernLeft = s;
kernRight = s;
lastChange = "2023-01-10 12:34:14 +0000";
layers = (
{
background = {
shapes = (
{
closed = 1;
nodes = (
(374,-10,o),
(459,51,o),
(459,143,cs),
(459,221,o),
(402,265,o),
(304,284,cs),
(228,299,ls),
(179,309,o),
(144,328,o),
(144,366,cs),
(144,406,o),
(193,435,o),
(248,435,cs),
(309,435,o),
(358,409,o),
(366,358,c),
(448,358,l),
(441,458,o),
(350,510,o),
(250,510,cs),
(143,510,o),
(59,452,o),
(59,361,cs),
(59,284,o),
(114,243,o),
(204,225,cs),
(280,210,ls),
(335,199,o),
(374,179,o),
(374,137,cs),
(374,94,o),
(329,65,o),
(260,65,cs),
(186,65,o),
(135,97,o),
(128,155,c),
(45,155,l),
(50,51,o),
(138,-10,o),
(258,-10,cs)
);
}
);
};
layerId = "30E869CF-9A31-4D47-9626-61B8364FC2DA";
shapes = (
{
closed = 1;
nodes = (
(374,-10,o),
(459,51,o),
(459,143,cs),
(459,221,o),
(402,265,o),
(304,284,cs),
(228,299,ls),
(179,309,o),
(144,328,o),
(144,366,cs),
(144,406,o),
(193,435,o),
(248,435,cs),
(309,435,o),
(358,409,o),
(366,358,c),
(448,358,l),
(441,458,o),
(350,510,o),
(250,510,cs),
(143,510,o),
(59,452,o),
(59,361,cs),
(59,284,o),
(114,243,o),
(204,225,cs),
(280,210,ls),
(335,199,o),
(374,179,o),
(374,137,cs),
(374,94,o),
(329,65,o),
(260,65,cs),
(186,65,o),
(135,97,o),
(128,155,c),
(45,155,l),
(50,51,o),
(138,-10,o),
(258,-10,cs)
);
}
);
width = 504;
},
{
background = {
shapes = (
{
closed = 1;
nodes = (
(347,-10,o),
(436,42,o),
(436,135,cs),
(436,208,o),
(377,242,o),
(293,261,cs),
(211,280,ls),
(147,295,o),
(105,315,o),
(105,370,cs),
(105,436,o),
(165,475,o),
(241,475,cs),
(317,475,o),
(376,438,o),
(386,367,c),
(426,367,l),
(415,461,o),
(332,510,o),
(241,510,cs),
(141,510,o),
(65,451,o),
(65,368,cs),
(65,289,o),
(126,260,o),
(200,243,cs),
(282,224,ls),
(349,209,o),
(396,186,o),
(396,133,cs),
(396,64,o),
(331,25,o),
(250,25,cs),
(155,25,o),
(96,74,o),
(88,147,c),
(48,147,l),
(57,59,o),
(130,-10,o),
(250,-10,cs)
);
}
);
};
layerId = "18A01495-E50D-4F2B-A1D8-5C332C731D93";
shapes = (
{
closed = 1;
nodes = (
(347,-10,o),
(436,42,o),
(436,135,cs),
(436,208,o),
(377,242,o),
(293,261,cs),
(211,280,ls),
(147,295,o),
(105,315,o),
(105,370,cs),
(105,436,o),
(165,475,o),
(241,475,cs),
(317,475,o),
(376,438,o),
(386,367,c),
(426,367,l),
(415,461,o),
(332,510,o),
(241,510,cs),
(141,510,o),
(65,451,o),
(65,368,cs),
(65,289,o),
(126,260,o),
(200,243,cs),
(282,224,ls),
(349,209,o),
(396,186,o),
(396,133,cs),
(396,64,o),
(331,25,o),
(250,25,cs),
(155,25,o),
(96,74,o),
(88,147,c),
(48,147,l),
(57,59,o),
(130,-10,o),
(250,-10,cs)
);
}
);
width = 487;
},
{
background = {
shapes = (
{
closed = 1;
nodes = (
(420,-10,o),
(535,38,o),
(535,159,cs),
(535,245,o),
(465,290,o),
(365,307,cs),
(276,322,ls),
(238,328,o),
(214,334,o),
(214,359,cs),
(214,383,o),
(238,400,o),
(277,400,cs),
(323,400,o),
(355,380,o),
(359,345,c),
(526,345,l),
(515,462,o),
(395,510,o),
(279,510,cs),
(144,510,o),
(38,448,o),
(38,343,cs),
(38,253,o),
(108,215,o),
(203,198,cs),
(291,182,ls),
(331,175,o),
(358,166,o),
(358,139,cs),
(358,111,o),
(326,96,o),
(289,96,cs),
(241,96,o),
(206,118,o),
(202,164,c),
(29,164,l),
(40,51,o),
(126,-10,o),
(287,-10,cs)
);
}
);
};
layerId = "9D32FE6F-9470-45EF-9689-909A6F5CE504";
shapes = (
{
closed = 1;
nodes = (
(420,-10,o),
(535,38,o),
(535,159,cs),
(535,245,o),
(465,290,o),
(365,307,cs),
(276,322,ls),
(238,328,o),
(214,334,o),
(214,359,cs),
(214,383,o),
(238,400,o),
(277,400,cs),
(323,400,o),
(355,380,o),
(359,345,c),
(526,345,l),
(515,462,o),
(395,510,o),
(279,510,cs),
(144,510,o),
(38,448,o),
(38,343,cs),
(38,253,o),
(108,215,o),
(203,198,cs),
(291,182,ls),
(331,175,o),
(358,166,o),
(358,139,cs),
(358,111,o),
(326,96,o),
(289,96,cs),
(241,96,o),
(206,118,o),
(202,164,c),
(29,164,l),
(40,51,o),
(126,-10,o),
(287,-10,cs)
);
}
);
width = 564;
}
);
note = s;
unicode = 115;
},
{
color = 5;
glyphname = t;
kernLeft = t;
kernRight = t;
lastChange = "2023-01-10 12:34:14 +0000";
layers = (
{
background = {
shapes = (
{
closed = 1;
nodes = (
(357,0,l),
(357,75,l),
(269,75,ls),
(225,75,o),
(210,91,o),
(210,134,cs),
(210,639,l),
(127,639,l),
(127,133,ls),
(127,43,o),
(162,0,o),
(260,0,cs)
);
},
{
closed = 1;
nodes = (
(357,430,l),
(357,500,l),
(23,500,l),
(23,430,l)
);
}
);
};
guides = (
{
pos = (163,639);
}
);
layerId = "30E869CF-9A31-4D47-9626-61B8364FC2DA";
shapes = (
{
closed = 1;
nodes = (
(357,0,l),
(357,75,l),
(269,75,ls),
(225,75,o),
(210,91,o),
(210,134,cs),
(210,639,l),
(127,639,l),
(127,133,ls),
(127,43,o),
(162,0,o),
(260,0,cs)
);
},
{
closed = 1;
nodes = (
(357,430,l),
(357,500,l),
(23,500,l),
(23,430,l)
);
}
);
width = 381;
},
{
background = {
shapes = (
{
closed = 1;
nodes = (
(325,0,l),
(325,35,l),
(207,35,ls),
(175,35,o),
(157,53,o),
(157,85,cs),
(157,639,l),
(116,639,l),
(116,90,ls),
(116,32,o),
(148,0,o),
(206,0,cs)
);
},
{
closed = 1;
nodes = (
(325,465,l),
(325,500,l),
(24,500,l),
(24,465,l)
);
}
);
};
guides = (
{
pos = (186,639);
}
);
layerId = "18A01495-E50D-4F2B-A1D8-5C332C731D93";
shapes = (
{
closed = 1;
nodes = (
(325,0,l),
(325,35,l),
(207,35,ls),
(175,35,o),
(157,53,o),
(157,85,cs),
(157,639,l),
(116,639,l),
(116,90,ls),
(116,32,o),
(148,0,o),
(206,0,cs)
);
},
{
closed = 1;
nodes = (
(325,465,l),
(325,500,l),
(24,500,l),
(24,465,l)
);
}
);
width = 360;
},
{
background = {
shapes = (
{
closed = 1;
nodes = (
(382,-1,l),
(382,129,l),
(319,129,ls),
(287,129,o),
(269,147,o),
(269,179,cs),
(269,635,l),
(86,635,l),
(86,165,ls),
(86,52,o),
(148,-1,o),
(261,-1,cs)
);
},
{
closed = 1;
nodes = (
(387,370,l),
(387,500,l),
(16,500,l),
(16,370,l)
);
}
);
};
guides = (
{
pos = (431,635);
}
);
layerId = "9D32FE6F-9470-45EF-9689-909A6F5CE504";
shapes = (
{
closed = 1;
nodes = (
(382,-1,l),
(382,129,l),
(319,129,ls),
(287,129,o),
(269,147,o),
(269,179,cs),
(269,635,l),
(86,635,l),
(86,165,ls),
(86,52,o),
(148,-1,o),
(261,-1,cs)
);
},
{
closed = 1;
nodes = (
(387,370,l),
(387,500,l),
(16,500,l),
(16,370,l)
);
}
);
width = 418;
}
);
note = t;
unicode = 116;
},
{
color = 5;
glyphname = u;
kernLeft = u;
kernRight = u;
lastChange = "2023-01-10 12:34:14 +0000";
layers = (
{
background = {
shapes = (
{
closed = 1;
nodes = (
(319,-10,o),
(377,16,o),
(413,70,c),
(413,0,l),
(498,0,l),
(498,500,l),
(413,500,l),
(413,223,ls),
(413,135,o),
(363,65,o),
(276,65,cs),
(203,65,o),
(157,109,o),
(157,203,cs),
(157,500,l),
(72,500,l),
(72,188,ls),
(72,65,o),
(137,-10,o),
(253,-10,cs)
);
}
);
};
layerId = "30E869CF-9A31-4D47-9626-61B8364FC2DA";
shapes = (
{
closed = 1;
nodes = (
(319,-10,o),
(377,16,o),
(413,70,c),
(413,0,l),
(498,0,l),
(498,500,l),
(413,500,l),
(413,223,ls),
(413,135,o),
(363,65,o),
(276,65,cs),
(203,65,o),
(157,109,o),
(157,203,cs),
(157,500,l),
(72,500,l),
(72,188,ls),
(72,65,o),
(137,-10,o),
(253,-10,cs)
);
}
);
width = 577;
},
{
background = {
shapes = (
{
closed = 1;
nodes = (
(342,-10,o),
(405,34,o),
(434,95,c),
(434,0,l),
(474,0,l),
(474,500,l),
(434,500,l),
(434,203,ls),
(434,104,o),
(361,25,o),
(267,25,cs),
(180,25,o),
(121,78,o),
(121,191,cs),
(121,500,l),
(80,500,l),
(80,192,ls),
(80,59,o),
(153,-10,o),
(262,-10,cs)
);
}
);
};
layerId = "18A01495-E50D-4F2B-A1D8-5C332C731D93";
shapes = (
{
closed = 1;
nodes = (
(342,-10,o),
(405,34,o),
(434,95,c),
(434,0,l),
(474,0,l),
(474,500,l),
(434,500,l),
(434,203,ls),
(434,104,o),
(361,25,o),
(267,25,cs),
(180,25,o),
(121,78,o),
(121,191,cs),
(121,500,l),
(80,500,l),
(80,192,ls),
(80,59,o),
(153,-10,o),
(262,-10,cs)
);
}
);
width = 561;
},
{
background = {
shapes = (
{
closed = 1;
nodes = (
(297,-12,o),
(354,21,o),
(387,67,c),
(387,0,l),
(560,0,l),
(560,500,l),
(378,500,l),
(378,244,ls),
(378,178,o),
(351,136,o),
(302,136,cs),
(256,136,o),
(230,168,o),
(230,230,cs),
(230,500,l),
(48,500,l),
(48,184,ls),
(48,63,o),
(111,-12,o),
(229,-12,cs)
);
}
);
};
layerId = "9D32FE6F-9470-45EF-9689-909A6F5CE504";
shapes = (
{
closed = 1;
nodes = (
(297,-12,o),
(354,21,o),
(387,67,c),
(387,0,l),
(560,0,l),
(560,500,l),
(378,500,l),
(378,244,ls),
(378,178,o),
(351,136,o),
(302,136,cs),
(256,136,o),
(230,168,o),
(230,230,cs),
(230,500,l),
(48,500,l),
(48,184,ls),
(48,63,o),
(111,-12,o),
(229,-12,cs)
);
}
);
width = 613;
}
);
note = u;
unicode = 117;
},
{
color = 5;
glyphname = v;
kernLeft = v;
kernRight = v;
lastChange = "2023-01-10 12:34:14 +0000";
layers = (
{
background = {
shapes = (
{
closed = 1;
nodes = (
(302,0,l),
(492,500,l),
(405,500,l),
(255,90,l),
(104,500,l),
(14,500,l),
(204,0,l)
);
}
);
};
layerId = "30E869CF-9A31-4D47-9626-61B8364FC2DA";
shapes = (
{
closed = 1;
nodes = (
(302,0,l),
(492,500,l),
(405,500,l),
(255,90,l),
(104,500,l),
(14,500,l),
(204,0,l)
);
}
);
width = 506;
},
{
background = {
shapes = (
{
closed = 1;
nodes = (
(263,0,l),
(463,500,l),
(420,500,l),
(242,49,l),
(64,500,l),
(20,500,l),
(219,0,l)
);
}
);
};
layerId = "18A01495-E50D-4F2B-A1D8-5C332C731D93";
shapes = (
{
closed = 1;
nodes = (
(263,0,l),
(463,500,l),
(420,500,l),
(242,49,l),
(64,500,l),
(20,500,l),
(219,0,l)
);
}
);
width = 482;
},
{
background = {
shapes = (
{
closed = 1;
nodes = (
(390,0,l),
(575,500,l),
(391,500,l),
(292,188,l),
(195,500,l),
(5,500,l),
(189,0,l)
);
}
);
};
guides = (
{
pos = (588,189);
}
);
layerId = "9D32FE6F-9470-45EF-9689-909A6F5CE504";
shapes = (
{
closed = 1;
nodes = (
(390,0,l),
(575,500,l),
(391,500,l),
(292,188,l),
(195,500,l),
(5,500,l),
(189,0,l)
);
}
);
width = 579;
}
);
note = v;
unicode = 118;
},
{
color = 5;
glyphname = w;
kernLeft = w;
kernRight = w;
lastChange = "2023-01-10 12:34:14 +0000";
layers = (
{
background = {
shapes = (
{
closed = 1;
nodes = (
(269,0,l),
(382,398,l),
(495,0,l),
(590,0,l),
(743,500,l),
(660,500,l),
(542,93,l),
(428,500,l),
(338,500,l),
(224,92,l),
(107,500,l),
(20,500,l),
(173,0,l)
);
}
);
};
layerId = "30E869CF-9A31-4D47-9626-61B8364FC2DA";
shapes = (
{
closed = 1;
nodes = (
(269,0,l),
(382,398,l),
(495,0,l),
(590,0,l),
(743,500,l),
(660,500,l),
(542,93,l),
(428,500,l),
(338,500,l),
(224,92,l),
(107,500,l),
(20,500,l),
(173,0,l)
);
}
);
width = 763;
},
{
background = {
shapes = (
{
closed = 1;
nodes = (
(234,0,l),
(368,450,l),
(503,0,l),
(550,0,l),
(710,500,l),
(668,500,l),
(527,48,l),
(393,500,l),
(345,500,l),
(211,48,l),
(69,500,l),
(27,500,l),
(187,0,l)
);
}
);
};
layerId = "18A01495-E50D-4F2B-A1D8-5C332C731D93";
shapes = (
{
closed = 1;
nodes = (
(234,0,l),
(368,450,l),
(503,0,l),
(550,0,l),
(710,500,l),
(668,500,l),
(527,48,l),
(393,500,l),
(345,500,l),
(211,48,l),
(69,500,l),
(27,500,l),
(187,0,l)
);
}
);
width = 736;
},
{
background = {
shapes = (
{
closed = 1;
nodes = (
(349,0,l),
(434,303,l),
(519,0,l),
(701,0,l),
(859,500,l),
(680,500,l),
(599,199,l),
(518,500,l),
(356,500,l),
(275,199,l),
(195,500,l),
(10,500,l),
(168,0,l)
);
}
);
};
layerId = "9D32FE6F-9470-45EF-9689-909A6F5CE504";
shapes = (
{
closed = 1;
nodes = (
(349,0,l),
(434,303,l),
(519,0,l),
(701,0,l),
(859,500,l),
(680,500,l),
(599,199,l),
(518,500,l),
(356,500,l),
(275,199,l),
(195,500,l),
(10,500,l),
(168,0,l)
);
}
);
width = 868;
}
);
note = w;
unicode = 119;
},
{
color = 5;
glyphname = x;
kernLeft = x;
kernRight = x;
lastChange = "2023-01-10 12:34:14 +0000";
layers = (
{
background = {
shapes = (
{
closed = 1;
nodes = (
(116,0,l),
(252,195,l),
(388,0,l),
(488,0,l),
(305,257,l),
(484,500,l),
(388,500,l),
(256,314,l),
(121,500,l),
(21,500,l),
(203,254,l),
(19,0,l)
);
}
);
};
layerId = "30E869CF-9A31-4D47-9626-61B8364FC2DA";
shapes = (
{
closed = 1;
nodes = (
(116,0,l),
(252,195,l),
(388,0,l),
(488,0,l),
(305,257,l),
(484,500,l),
(388,500,l),
(256,314,l),
(121,500,l),
(21,500,l),
(203,254,l),
(19,0,l)
);
}
);
width = 506;
},
{
background = {
shapes = (
{
closed = 1;
nodes = (
(76,0,l),
(242,224,l),
(407,0,l),
(457,0,l),
(268,254,l),
(454,500,l),
(406,500,l),
(243,282,l),
(79,500,l),
(30,500,l),
(217,252,l),
(27,0,l)
);
}
);
};
layerId = "18A01495-E50D-4F2B-A1D8-5C332C731D93";
shapes = (
{
closed = 1;
nodes = (
(76,0,l),
(242,224,l),
(407,0,l),
(457,0,l),
(268,254,l),
(454,500,l),
(406,500,l),
(243,282,l),
(79,500,l),
(30,500,l),
(217,252,l),
(27,0,l)
);
}
);
width = 484;
},
{
background = {
shapes = (
{
closed = 1;
nodes = (
(202,0,l),
(297,146,l),
(389,0,l),
(592,0,l),
(414,258,l),
(585,500,l),
(388,500,l),
(301,366,l),
(216,500,l),
(13,500,l),
(184,256,l),
(5,0,l)
);
}
);
};
layerId = "9D32FE6F-9470-45EF-9689-909A6F5CE504";
shapes = (
{
closed = 1;
nodes = (
(202,0,l),
(297,146,l),
(389,0,l),
(592,0,l),
(414,258,l),
(585,500,l),
(388,500,l),
(301,366,l),
(216,500,l),
(13,500,l),
(184,256,l),
(5,0,l)
);
}
);
width = 597;
}
);
note = x;
unicode = 120;
},
{
color = 5;
glyphname = y;
kernLeft = v;
kernRight = v;
lastChange = "2023-01-10 12:34:14 +0000";
layers = (
{
background = {
shapes = (
{
closed = 1;
nodes = (
(140,-200,ls),
(187,-200,o),
(225,-173,o),
(242,-130,cs),
(486,500,l),
(404,500,l),
(256,102,l),
(101,500,l),
(16,500,l),
(216,4,l),
(179,-87,ls),
(169,-111,o),
(149,-125,o),
(124,-125,cs),
(33,-125,l),
(31,-200,l)
);
}
);
};
layerId = "30E869CF-9A31-4D47-9626-61B8364FC2DA";
shapes = (
{
closed = 1;
nodes = (
(140,-200,ls),
(187,-200,o),
(225,-173,o),
(242,-130,cs),
(486,500,l),
(404,500,l),
(256,102,l),
(101,500,l),
(16,500,l),
(216,4,l),
(179,-87,ls),
(169,-111,o),
(149,-125,o),
(124,-125,cs),
(33,-125,l),
(31,-200,l)
);
}
);
width = 502;
},
{
background = {
shapes = (
{
closed = 1;
nodes = (
(112,-200,ls),
(158,-200,o),
(197,-173,o),
(214,-130,cs),
(457,500,l),
(415,500,l),
(246,55,l),
(68,500,l),
(24,500,l),
(225,2,l),
(179,-113,ls),
(166,-146,o),
(136,-165,o),
(102,-165,cs),
(33,-165,l),
(33,-200,l)
);
}
);
};
layerId = "18A01495-E50D-4F2B-A1D8-5C332C731D93";
shapes = (
{
closed = 1;
nodes = (
(112,-200,ls),
(158,-200,o),
(197,-173,o),
(214,-130,cs),
(457,500,l),
(415,500,l),
(246,55,l),
(68,500,l),
(24,500,l),
(225,2,l),
(179,-113,ls),
(166,-146,o),
(136,-165,o),
(102,-165,cs),
(33,-165,l),
(33,-200,l)
);
}
);
width = 481;
},
{
background = {
shapes = (
{
closed = 1;
nodes = (
(228,-200,ls),
(276,-200,o),
(316,-172,o),
(334,-127,cs),
(578,500,l),
(393,500,l),
(295,204,l),
(193,500,l),
(2,500,l),
(198,15,l),
(179,-39,ls),
(172,-58,o),
(156,-70,o),
(136,-70,cs),
(31,-70,l),
(31,-200,l)
);
}
);
};
layerId = "9D32FE6F-9470-45EF-9689-909A6F5CE504";
shapes = (
{
closed = 1;
nodes = (
(228,-200,ls),
(276,-200,o),
(316,-172,o),
(334,-127,cs),
(578,500,l),
(393,500,l),
(295,204,l),
(193,500,l),
(2,500,l),
(198,15,l),
(179,-39,ls),
(172,-58,o),
(156,-70,o),
(136,-70,cs),
(31,-70,l),
(31,-200,l)
);
}
);
width = 580;
}
);
note = y;
unicode = 121;
},
{
color = 5;
glyphname = z;
kernLeft = z;
kernRight = z;
lastChange = "2023-01-10 12:34:14 +0000";
layers = (
{
background = {
shapes = (
{
closed = 1;
nodes = (
(445,0,l),
(445,75,l),
(145,75,l),
(445,428,l),
(445,500,l),
(49,500,l),
(49,425,l),
(340,425,l),
(40,72,l),
(40,0,l)
);
}
);
};
layerId = "30E869CF-9A31-4D47-9626-61B8364FC2DA";
shapes = (
{
closed = 1;
nodes = (
(445,0,l),
(445,75,l),
(145,75,l),
(445,428,l),
(445,500,l),
(49,500,l),
(49,425,l),
(340,425,l),
(40,72,l),
(40,0,l)
);
}
);
width = 489;
},
{
background = {
shapes = (
{
closed = 1;
nodes = (
(420,0,l),
(420,35,l),
(90,35,l),
(422,465,l),
(422,500,l),
(49,500,l),
(49,465,l),
(372,465,l),
(41,35,l),
(41,0,l)
);
}
);
};
layerId = "18A01495-E50D-4F2B-A1D8-5C332C731D93";
shapes = (
{
closed = 1;
nodes = (
(420,0,l),
(420,35,l),
(90,35,l),
(422,465,l),
(422,500,l),
(49,500,l),
(49,465,l),
(372,465,l),
(41,35,l),
(41,0,l)
);
}
);
width = 464;
},
{
background = {
shapes = (
{
closed = 1;
nodes = (
(513,0,l),
(513,134,l),
(256,134,l),
(495,368,l),
(495,500,l),
(38,500,l),
(38,366,l),
(273,366,l),
(33,133,l),
(33,0,l)
);
}
);
};
layerId = "9D32FE6F-9470-45EF-9689-909A6F5CE504";
shapes = (
{
closed = 1;
nodes = (
(513,0,l),
(513,134,l),
(256,134,l),
(495,368,l),
(495,500,l),
(38,500,l),
(38,366,l),
(273,366,l),
(33,133,l),
(33,0,l)
);
}
);
width = 546;
}
);
note = z;
unicode = 122;
},
{
color = 9;
export = 0;
glyphname = a.002;
kernLeft = a;
kernRight = a;
lastChange = "2022-05-29 18:29:24 +0000";
layers = (
{
background = {
shapes = (
{
closed = 1;
nodes = (
(316,-10,o),
(379,36,o),
(403,79,c),
(403,0,l),
(479,0,l),
(479,334,ls),
(479,455,o),
(399,510,o),
(282,510,cs),
(170,510,o),
(75,460,o),
(65,349,c),
(150,349,l),
(157,404,o),
(205,435,o),
(274,435,cs),
(345,435,o),
(394,405,o),
(394,333,cs),
(394,320,o),
(390,312,o),
(378,311,cs),
(225,292,ls),
(118,279,o),
(47,234,o),
(47,139,cs),
(47,47,o),
(123,-10,o),
(225,-10,cs)
);
},
{
closed = 1;
nodes = (
(173,69,o),
(134,96,o),
(134,142,cs),
(134,177,o),
(154,208,o),
(232,220,cs),
(394,244,l),
(394,212,ls),
(394,110,o),
(319,69,o),
(238,69,cs)
);
}
);
};
layerId = "30E869CF-9A31-4D47-9626-61B8364FC2DA";
shapes = (
{
closed = 1;
nodes = (
(316,-10,o),
(379,36,o),
(403,79,c),
(403,0,l),
(479,0,l),
(479,334,ls),
(479,455,o),
(399,510,o),
(282,510,cs),
(170,510,o),
(75,460,o),
(65,349,c),
(150,349,l),
(157,404,o),
(205,435,o),
(274,435,cs),
(345,435,o),
(394,405,o),
(394,333,cs),
(394,320,o),
(390,312,o),
(378,311,cs),
(225,292,ls),
(118,279,o),
(47,234,o),
(47,139,cs),
(47,47,o),
(123,-10,o),
(225,-10,cs)
);
},
{
closed = 1;
nodes = (
(173,69,o),
(134,96,o),
(134,142,cs),
(134,177,o),
(154,208,o),
(232,220,cs),
(394,244,l),
(394,212,ls),
(394,110,o),
(319,69,o),
(238,69,cs)
);
}
);
width = 552;
},
{
background = {
shapes = (
{
closed = 1;
nodes = (
(300,-10,o),
(378,25,o),
(411,101,c),
(411,0,l),
(451,0,l),
(451,344,ls),
(451,461,o),
(367,510,o),
(267,510,cs),
(174,510,o),
(79,468,o),
(66,360,c),
(109,360,l),
(120,437,o),
(180,475,o),
(263,475,cs),
(351,475,o),
(411,441,o),
(411,327,cs),
(411,306,o),
(406,299,o),
(393,297,cs),
(193,268,ls),
(104,255,o),
(52,205,o),
(52,128,cs),
(52,29,o),
(140,-10,o),
(222,-10,cs)
);
},
{
closed = 1;
nodes = (
(158,25,o),
(92,56,o),
(92,130,cs),
(92,183,o),
(125,219,o),
(192,229,cs),
(411,262,l),
(411,214,ls),
(411,91,o),
(327,25,o),
(225,25,cs)
);
}
);
};
layerId = "18A01495-E50D-4F2B-A1D8-5C332C731D93";
shapes = (
{
closed = 1;
nodes = (
(300,-10,o),
(378,25,o),
(411,101,c),
(411,0,l),
(451,0,l),
(451,344,ls),
(451,461,o),
(367,510,o),
(267,510,cs),
(174,510,o),
(79,468,o),
(66,360,c),
(109,360,l),
(120,437,o),
(180,475,o),
(263,475,cs),
(351,475,o),
(411,441,o),
(411,327,cs),
(411,306,o),
(406,299,o),
(393,297,cs),
(193,268,ls),
(104,255,o),
(52,205,o),
(52,128,cs),
(52,29,o),
(140,-10,o),
(222,-10,cs)
);
},
{
closed = 1;
nodes = (
(158,25,o),
(92,56,o),
(92,130,cs),
(92,183,o),
(125,219,o),
(192,229,cs),
(411,262,l),
(411,214,ls),
(411,91,o),
(327,25,o),
(225,25,cs)
);
}
);
width = 533;
},
{
background = {
shapes = (
{
closed = 1;
nodes = (
(286,-11,o),
(347,16,o),
(383,67,c),
(383,0,l),
(548,0,l),
(548,297,ls),
(548,439,o),
(472,510,o),
(307,510,cs),
(152,510,o),
(60,448,o),
(47,331,c),
(216,331,l),
(220,373,o),
(249,395,o),
(297,395,cs),
(342,395,o),
(370,375,o),
(370,329,cs),
(370,317,o),
(363,309,o),
(351,308,cs),
(193,291,ls),
(93,280,o),
(28,231,o),
(28,142,cs),
(28,43,o),
(109,-11,o),
(213,-11,cs)
);
},
{
closed = 1;
nodes = (
(231,101,o),
(201,117,o),
(201,150,cs),
(201,177,o),
(221,198,o),
(255,202,cs),
(370,216,l),
(370,194,ls),
(370,132,o),
(323,101,o),
(271,101,cs)
);
}
);
};
layerId = "9D32FE6F-9470-45EF-9689-909A6F5CE504";
shapes = (
{
closed = 1;
nodes = (
(286,-11,o),
(347,16,o),
(383,67,c),
(383,0,l),
(548,0,l),
(548,297,ls),
(548,439,o),
(472,510,o),
(307,510,cs),
(152,510,o),
(60,448,o),
(47,331,c),
(216,331,l),
(220,373,o),
(249,395,o),
(297,395,cs),
(342,395,o),
(370,375,o),
(370,329,cs),
(370,317,o),
(363,309,o),
(351,308,cs),
(193,291,ls),
(93,280,o),
(28,231,o),
(28,142,cs),
(28,43,o),
(109,-11,o),
(213,-11,cs)
);
},
{
closed = 1;
nodes = (
(231,101,o),
(201,117,o),
(201,150,cs),
(201,177,o),
(221,198,o),
(255,202,cs),
(370,216,l),
(370,194,ls),
(370,132,o),
(323,101,o),
(271,101,cs)
);
}
);
width = 599;
}
);
note = a;
},
{
color = 5;
export = 0;
glyphname = a.ss02;
kernLeft = c;
lastChange = "2022-06-23 21:17:16 +0000";
layers = (
{
background = {
shapes = (
{
closed = 1;
nodes = (
(347,-10,o),
(414,22,o),
(447,82,c),
(447,0,l),
(527,0,l),
(527,500,l),
(442,500,l),
(441,427,l),
(404,482,o),
(343,510,o),
(274,510,cs),
(141,510,o),
(44,409,o),
(44,254,cs),
(44,94,o),
(144,-10,o),
(275,-10,cs)
);
},
{
closed = 1;
nodes = (
(186,65,o),
(129,147,o),
(129,254,cs),
(129,357,o),
(186,435,o),
(289,435,cs),
(389,435,o),
(446,357,o),
(446,254,cs),
(446,146,o),
(389,65,o),
(290,65,cs)
);
}
);
};
layerId = "30E869CF-9A31-4D47-9626-61B8364FC2DA";
shapes = (
{
closed = 1;
nodes = (
(347,-10,o),
(414,22,o),
(447,82,c),
(447,0,l),
(527,0,l),
(527,500,l),
(442,500,l),
(441,427,l),
(404,482,o),
(343,510,o),
(274,510,cs),
(141,510,o),
(44,409,o),
(44,254,cs),
(44,94,o),
(144,-10,o),
(275,-10,cs)
);
},
{
closed = 1;
nodes = (
(186,65,o),
(129,147,o),
(129,254,cs),
(129,357,o),
(186,435,o),
(289,435,cs),
(389,435,o),
(446,357,o),
(446,254,cs),
(446,146,o),
(389,65,o),
(290,65,cs)
);
}
);
width = 606;
},
{
background = {
shapes = (
{
closed = 1;
nodes = (
(359,-10,o),
(431,38,o),
(465,114,c),
(465,0,l),
(504,0,l),
(504,500,l),
(464,500,l),
(464,393,l),
(428,469,o),
(358,510,o),
(276,510,cs),
(133,510,o),
(49,394,o),
(49,254,cs),
(49,84,o),
(157,-10,o),
(275,-10,cs)
);
},
{
closed = 1;
nodes = (
(164,25,o),
(89,114,o),
(89,254,cs),
(89,372,o),
(151,475,o),
(278,475,cs),
(404,475,o),
(465,373,o),
(465,254,cs),
(465,130,o),
(403,25,o),
(278,25,cs)
);
}
);
};
layerId = "18A01495-E50D-4F2B-A1D8-5C332C731D93";
shapes = (
{
closed = 1;
nodes = (
(359,-10,o),
(431,38,o),
(465,114,c),
(465,0,l),
(504,0,l),
(504,500,l),
(464,500,l),
(464,393,l),
(428,469,o),
(358,510,o),
(276,510,cs),
(133,510,o),
(49,394,o),
(49,254,cs),
(49,84,o),
(157,-10,o),
(275,-10,cs)
);
},
{
closed = 1;
nodes = (
(164,25,o),
(89,114,o),
(89,254,cs),
(89,372,o),
(151,475,o),
(278,475,cs),
(404,475,o),
(465,373,o),
(465,254,cs),
(465,130,o),
(403,25,o),
(278,25,cs)
);
}
);
width = 591;
},
{
background = {
shapes = (
{
closed = 1;
nodes = (
(328,-11,o),
(383,16,o),
(418,65,c),
(418,0,l),
(591,0,l),
(591,500,l),
(409,500,l),
(409,447,l),
(375,487,o),
(324,510,o),
(262,510,cs),
(114,510,o),
(29,394,o),
(29,251,cs),
(29,83,o),
(128,-11,o),
(261,-11,cs)
);
},
{
closed = 1;
nodes = (
(253,118,o),
(217,174,o),
(217,251,cs),
(217,321,o),
(252,376,o),
(315,376,cs),
(376,376,o),
(412,322,o),
(412,251,cs),
(412,175,o),
(377,118,o),
(315,118,cs)
);
}
);
};
layerId = "9D32FE6F-9470-45EF-9689-909A6F5CE504";
shapes = (
{
closed = 1;
nodes = (
(328,-11,o),
(383,16,o),
(418,65,c),
(418,0,l),
(591,0,l),
(591,500,l),
(409,500,l),
(409,447,l),
(375,487,o),
(324,510,o),
(262,510,cs),
(114,510,o),
(29,394,o),
(29,251,cs),
(29,83,o),
(128,-11,o),
(261,-11,cs)
);
},
{
closed = 1;
nodes = (
(253,118,o),
(217,174,o),
(217,251,cs),
(217,321,o),
(252,376,o),
(315,376,cs),
(376,376,o),
(412,322,o),
(412,251,cs),
(412,175,o),
(377,118,o),
(315,118,cs)
);
}
);
width = 644;
}
);
note = d;
},
{
color = 5;
export = 0;
glyphname = y.ss02;
kernLeft = v;
kernRight = v;
lastChange = "2022-06-23 21:17:16 +0000";
layers = (
{
background = {
shapes = (
{
closed = 1;
nodes = (
(215,-200,l),
(486,500,l),
(404,500,l),
(256,102,l),
(101,500,l),
(16,500,l),
(216,4,l),
(135,-200,l)
);
}
);
};
layerId = "30E869CF-9A31-4D47-9626-61B8364FC2DA";
shapes = (
{
closed = 1;
nodes = (
(215,-200,l),
(486,500,l),
(404,500,l),
(256,102,l),
(101,500,l),
(16,500,l),
(216,4,l),
(135,-200,l)
);
}
);
width = 502;
},
{
background = {
shapes = (
{
closed = 1;
nodes = (
(187,-200,l),
(461,500,l),
(419,500,l),
(246,55,l),
(65,500,l),
(21,500,l),
(225,2,l),
(144,-200,l)
);
}
);
};
layerId = "18A01495-E50D-4F2B-A1D8-5C332C731D93";
shapes = (
{
closed = 1;
nodes = (
(187,-200,l),
(461,500,l),
(419,500,l),
(246,55,l),
(65,500,l),
(21,500,l),
(225,2,l),
(144,-200,l)
);
}
);
width = 481;
},
{
background = {
shapes = (
{
closed = 1;
nodes = (
(306,-200,l),
(578,500,l),
(393,500,l),
(295,204,l),
(193,500,l),
(2,500,l),
(198,15,l),
(116,-200,l)
);
}
);
};
layerId = "9D32FE6F-9470-45EF-9689-909A6F5CE504";
shapes = (
{
closed = 1;
nodes = (
(306,-200,l),
(578,500,l),
(393,500,l),
(295,204,l),
(193,500,l),
(2,500,l),
(198,15,l),
(116,-200,l)
);
}
);
width = 580;
}
);
note = y;
},
{
color = 5;
export = 0;
glyphname = f.ss03;
kernLeft = f;
lastChange = "2022-06-23 21:17:16 +0000";
layers = (
{
background = {
shapes = (
{
closed = 1;
nodes = (
(162,0,l),
(162,565,ls),
(162,604,o),
(183,625,o),
(222,625,cs),
(295,625,l),
(295,700,l),
(209,700,ls),
(125,700,o),
(79,654,o),
(79,570,cs),
(79,0,l)
);
},
{
closed = 1;
nodes = (
(295,430,l),
(295,500,l),
(146,500,l),
(146,430,l)
);
}
);
};
layerId = "30E869CF-9A31-4D47-9626-61B8364FC2DA";
shapes = (
{
closed = 1;
nodes = (
(162,0,l),
(162,565,ls),
(162,604,o),
(183,625,o),
(222,625,cs),
(295,625,l),
(295,700,l),
(209,700,ls),
(125,700,o),
(79,654,o),
(79,570,cs),
(79,0,l)
);
},
{
closed = 1;
nodes = (
(295,430,l),
(295,500,l),
(146,500,l),
(146,430,l)
);
}
);
width = 319;
},
{
background = {
shapes = (
{
closed = 1;
nodes = (
(128,0,l),
(128,615,ls),
(128,647,o),
(146,665,o),
(178,665,cs),
(276,665,l),
(276,700,l),
(177,700,ls),
(119,700,o),
(87,668,o),
(87,610,cs),
(87,0,l)
);
},
{
closed = 1;
nodes = (
(276,465,l),
(276,500,l),
(119,500,l),
(119,465,l)
);
}
);
};
layerId = "18A01495-E50D-4F2B-A1D8-5C332C731D93";
shapes = (
{
closed = 1;
nodes = (
(128,0,l),
(128,615,ls),
(128,647,o),
(146,665,o),
(178,665,cs),
(276,665,l),
(276,700,l),
(177,700,ls),
(119,700,o),
(87,668,o),
(87,610,cs),
(87,0,l)
);
},
{
closed = 1;
nodes = (
(276,465,l),
(276,500,l),
(119,500,l),
(119,465,l)
);
}
);
width = 297;
},
{
background = {
shapes = (
{
closed = 1;
nodes = (
(232,0,l),
(231,523,ls),
(231,555,o),
(249,573,o),
(281,573,cs),
(349,573,l),
(349,700,l),
(228,700,ls),
(115,700,o),
(53,638,o),
(53,525,cs),
(53,0,l)
);
},
{
closed = 1;
nodes = (
(353,378,l),
(353,500,l),
(215,500,l),
(215,378,l)
);
}
);
};
layerId = "9D32FE6F-9470-45EF-9689-909A6F5CE504";
shapes = (
{
closed = 1;
nodes = (
(232,0,l),
(231,523,ls),
(231,555,o),
(249,573,o),
(281,573,cs),
(349,573,l),
(349,700,l),
(228,700,ls),
(115,700,o),
(53,638,o),
(53,525,cs),
(53,0,l)
);
},
{
closed = 1;
nodes = (
(353,378,l),
(353,500,l),
(215,500,l),
(215,378,l)
);
}
);
width = 371;
}
);
note = f;
},
{
color = 5;
export = 0;
glyphname = r.ss03;
kernLeft = f;
lastChange = "2022-06-23 21:17:16 +0000";
layers = (
{
background = {
shapes = (
{
closed = 1;
nodes = (
(162,0,l),
(162,365,ls),
(162,404,o),
(183,425,o),
(222,425,cs),
(295,425,l),
(295,500,l),
(209,500,ls),
(125,500,o),
(79,454,o),
(79,370,cs),
(79,0,l)
);
}
);
};
layerId = "30E869CF-9A31-4D47-9626-61B8364FC2DA";
shapes = (
{
closed = 1;
nodes = (
(162,0,l),
(162,365,ls),
(162,404,o),
(183,425,o),
(222,425,cs),
(295,425,l),
(295,500,l),
(209,500,ls),
(125,500,o),
(79,454,o),
(79,370,cs),
(79,0,l)
);
}
);
width = 319;
},
{
background = {
shapes = (
{
closed = 1;
nodes = (
(128,0,l),
(128,415,ls),
(128,447,o),
(146,465,o),
(178,465,cs),
(276,465,l),
(276,500,l),
(177,500,ls),
(119,500,o),
(87,468,o),
(87,410,cs),
(87,0,l)
);
}
);
};
layerId = "18A01495-E50D-4F2B-A1D8-5C332C731D93";
shapes = (
{
closed = 1;
nodes = (
(128,0,l),
(128,415,ls),
(128,447,o),
(146,465,o),
(178,465,cs),
(276,465,l),
(276,500,l),
(177,500,ls),
(119,500,o),
(87,468,o),
(87,410,cs),
(87,0,l)
);
}
);
width = 297;
},
{
background = {
shapes = (
{
closed = 1;
nodes = (
(232,0,l),
(231,323,ls),
(231,355,o),
(249,373,o),
(281,373,cs),
(349,373,l),
(349,500,l),
(228,500,ls),
(115,500,o),
(53,438,o),
(53,325,cs),
(53,0,l)
);
}
);
};
layerId = "9D32FE6F-9470-45EF-9689-909A6F5CE504";
shapes = (
{
closed = 1;
nodes = (
(232,0,l),
(231,323,ls),
(231,355,o),
(249,373,o),
(281,373,cs),
(349,373,l),
(349,500,l),
(228,500,ls),
(115,500,o),
(53,438,o),
(53,325,cs),
(53,0,l)
);
}
);
width = 371;
}
);
note = f;
},
{
color = 5;
export = 0;
glyphname = t.ss03;
kernLeft = t;
kernRight = t;
lastChange = "2022-06-23 21:17:16 +0000";
layers = (
{
background = {
shapes = (
{
closed = 1;
nodes = (
(299,0,l),
(299,75,l),
(221,75,ls),
(177,75,o),
(162,91,o),
(162,134,cs),
(162,639,l),
(79,639,l),
(79,133,ls),
(79,43,o),
(114,0,o),
(212,0,cs)
);
},
{
closed = 1;
nodes = (
(299,425,l),
(299,500,l),
(114,500,l),
(114,425,l)
);
}
);
};
guides = (
{
pos = (115,639);
}
);
layerId = "30E869CF-9A31-4D47-9626-61B8364FC2DA";
shapes = (
{
closed = 1;
nodes = (
(299,0,l),
(299,75,l),
(221,75,ls),
(177,75,o),
(162,91,o),
(162,134,cs),
(162,639,l),
(79,639,l),
(79,133,ls),
(79,43,o),
(114,0,o),
(212,0,cs)
);
},
{
closed = 1;
nodes = (
(299,425,l),
(299,500,l),
(114,500,l),
(114,425,l)
);
}
);
width = 323;
},
{
background = {
shapes = (
{
closed = 1;
nodes = (
(281,0,l),
(281,35,l),
(178,35,ls),
(146,35,o),
(128,53,o),
(128,85,cs),
(128,639,l),
(87,639,l),
(87,90,ls),
(87,32,o),
(119,0,o),
(177,0,cs)
);
},
{
closed = 1;
nodes = (
(281,465,l),
(281,500,l),
(108,500,l),
(108,465,l)
);
}
);
};
guides = (
{
pos = (157,639);
}
);
layerId = "18A01495-E50D-4F2B-A1D8-5C332C731D93";
shapes = (
{
closed = 1;
nodes = (
(281,0,l),
(281,35,l),
(178,35,ls),
(146,35,o),
(128,53,o),
(128,85,cs),
(128,639,l),
(87,639,l),
(87,90,ls),
(87,32,o),
(119,0,o),
(177,0,cs)
);
},
{
closed = 1;
nodes = (
(281,465,l),
(281,500,l),
(108,500,l),
(108,465,l)
);
}
);
width = 317;
},
{
background = {
shapes = (
{
closed = 1;
nodes = (
(349,-1,l),
(349,138,l),
(286,138,ls),
(254,138,o),
(236,156,o),
(236,188,cs),
(236,639,l),
(53,639,l),
(53,174,ls),
(53,61,o),
(115,-1,o),
(228,-1,cs)
);
},
{
closed = 1;
nodes = (
(354,360,l),
(354,500,l),
(140,500,l),
(140,360,l)
);
}
);
};
guides = (
{
pos = (110,639);
}
);
layerId = "9D32FE6F-9470-45EF-9689-909A6F5CE504";
shapes = (
{
closed = 1;
nodes = (
(349,-1,l),
(349,138,l),
(286,138,ls),
(254,138,o),
(236,156,o),
(236,188,cs),
(236,639,l),
(53,639,l),
(53,174,ls),
(53,61,o),
(115,-1,o),
(228,-1,cs)
);
},
{
closed = 1;
nodes = (
(354,360,l),
(354,500,l),
(140,500,l),
(140,360,l)
);
}
);
width = 385;
}
);
note = t;
},
{
color = 4;
glyphname = w_w;
lastChange = "2022-05-29 18:29:24 +0000";
layers = (
{
background = {
shapes = (
{
closed = 1;
nodes = (
(234,0,l),
(368,450,l),
(503,0,l),
(550,0,l),
(689,435,l),
(820,0,l),
(867,0,l),
(1027,500,l),
(985,500,l),
(844,48,l),
(710,500,l),
(668,500,l),
(527,48,l),
(393,500,l),
(345,500,l),
(211,48,l),
(69,500,l),
(27,500,l),
(187,0,l)
);
}
);
};
layerId = "18A01495-E50D-4F2B-A1D8-5C332C731D93";
shapes = (
{
closed = 1;
nodes = (
(234,0,l),
(368,450,l),
(503,0,l),
(550,0,l),
(689,435,l),
(820,0,l),
(867,0,l),
(1027,500,l),
(985,500,l),
(844,48,l),
(710,500,l),
(668,500,l),
(527,48,l),
(393,500,l),
(345,500,l),
(211,48,l),
(69,500,l),
(27,500,l),
(187,0,l)
);
}
);
width = 1053;
},
{
background = {
shapes = (
{
closed = 1;
nodes = (
(269,0,l),
(382,398,l),
(495,0,l),
(590,0,l),
(706,380,l),
(814,0,l),
(909,0,l),
(1062,500,l),
(979,500,l),
(861,93,l),
(747,500,l),
(660,500,l),
(542,93,l),
(428,500,l),
(338,500,l),
(224,92,l),
(107,500,l),
(20,500,l),
(173,0,l)
);
}
);
};
layerId = "30E869CF-9A31-4D47-9626-61B8364FC2DA";
shapes = (
{
closed = 1;
nodes = (
(269,0,l),
(382,398,l),
(495,0,l),
(590,0,l),
(706,380,l),
(814,0,l),
(909,0,l),
(1062,500,l),
(979,500,l),
(861,93,l),
(747,500,l),
(660,500,l),
(542,93,l),
(428,500,l),
(338,500,l),
(224,92,l),
(107,500,l),
(20,500,l),
(173,0,l)
);
}
);
width = 1082;
},
{
background = {
shapes = (
{
closed = 1;
nodes = (
(349,0,l),
(434,303,l),
(519,0,l),
(701,0,l),
(788,275,l),
(865,0,l),
(1047,0,l),
(1205,500,l),
(1026,500,l),
(945,199,l),
(864,500,l),
(680,500,l),
(599,199,l),
(518,500,l),
(356,500,l),
(275,199,l),
(195,500,l),
(10,500,l),
(168,0,l)
);
}
);
};
layerId = "9D32FE6F-9470-45EF-9689-909A6F5CE504";
shapes = (
{
closed = 1;
nodes = (
(349,0,l),
(434,303,l),
(519,0,l),
(701,0,l),
(788,275,l),
(865,0,l),
(1047,0,l),
(1205,500,l),
(1026,500,l),
(945,199,l),
(864,500,l),
(680,500,l),
(599,199,l),
(518,500,l),
(356,500,l),
(275,199,l),
(195,500,l),
(10,500,l),
(168,0,l)
);
}
);
width = 1214;
}
);
metricLeft = w;
metricRight = w;
},
{
color = 5;
glyphname = zero;
lastChange = "2022-05-29 18:29:24 +0000";
layers = (
{
background = {
shapes = (
{
closed = 1;
nodes = (
(485,-10,o),
(584,126,o),
(584,351,cs),
(584,577,o),
(485,710,o),
(321,710,cs),
(157,710,o),
(58,579,o),
(58,351,cs),
(58,128,o),
(154,-10,o),
(321,-10,cs)
);
},
{
closed = 1;
nodes = (
(204,70,o),
(148,184,o),
(148,351,cs),
(148,522,o),
(206,630,o),
(321,630,cs),
(434,630,o),
(494,523,o),
(494,351,cs),
(494,188,o),
(439,70,o),
(321,70,cs)
);
}
);
};
layerId = "30E869CF-9A31-4D47-9626-61B8364FC2DA";
shapes = (
{
closed = 1;
nodes = (
(485,-10,o),
(584,126,o),
(584,351,cs),
(584,577,o),
(485,710,o),
(321,710,cs),
(157,710,o),
(58,579,o),
(58,351,cs),
(58,128,o),
(154,-10,o),
(321,-10,cs)
);
},
{
closed = 1;
nodes = (
(204,70,o),
(148,184,o),
(148,351,cs),
(148,522,o),
(206,630,o),
(321,630,cs),
(434,630,o),
(494,523,o),
(494,351,cs),
(494,188,o),
(439,70,o),
(321,70,cs)
);
}
);
width = 642;
},
{
background = {
shapes = (
{
closed = 1;
nodes = (
(463,-10,o),
(556,126,o),
(556,350,cs),
(556,542,o),
(483,710,o),
(309,710,cs),
(137,710,o),
(63,545,o),
(63,350,cs),
(63,159,o),
(136,-10,o),
(309,-10,cs)
);
},
{
closed = 1;
nodes = (
(166,30,o),
(108,183,o),
(108,350,cs),
(108,516,o),
(165,670,o),
(309,670,cs),
(454,670,o),
(511,517,o),
(511,350,cs),
(511,157,o),
(438,30,o),
(309,30,cs)
);
}
);
};
layerId = "18A01495-E50D-4F2B-A1D8-5C332C731D93";
shapes = (
{
closed = 1;
nodes = (
(463,-10,o),
(556,126,o),
(556,350,cs),
(556,542,o),
(483,710,o),
(309,710,cs),
(137,710,o),
(63,545,o),
(63,350,cs),
(63,159,o),
(136,-10,o),
(309,-10,cs)
);
},
{
closed = 1;
nodes = (
(166,30,o),
(108,183,o),
(108,350,cs),
(108,516,o),
(165,670,o),
(309,670,cs),
(454,670,o),
(511,517,o),
(511,350,cs),
(511,157,o),
(438,30,o),
(309,30,cs)
);
}
);
width = 619;
},
{
background = {
shapes = (
{
closed = 1;
nodes = (
(500,-12,o),
(647,91,o),
(647,350,cs),
(647,578,o),
(527,710,o),
(342,710,cs),
(186,710,o),
(37,610,o),
(37,350,cs),
(37,121,o),
(157,-12,o),
(342,-12,cs)
);
},
{
closed = 1;
nodes = (
(274,143,o),
(234,208,o),
(234,350,cs),
(234,492,o),
(274,555,o),
(342,555,cs),
(408,555,o),
(450,494,o),
(450,350,cs),
(450,208,o),
(410,143,o),
(342,143,cs)
);
}
);
};
layerId = "9D32FE6F-9470-45EF-9689-909A6F5CE504";
shapes = (
{
closed = 1;
nodes = (
(500,-12,o),
(647,91,o),
(647,350,cs),
(647,578,o),
(527,710,o),
(342,710,cs),
(186,710,o),
(37,610,o),
(37,350,cs),
(37,121,o),
(157,-12,o),
(342,-12,cs)
);
},
{
closed = 1;
nodes = (
(274,143,o),
(234,208,o),
(234,350,cs),
(234,492,o),
(274,555,o),
(342,555,cs),
(408,555,o),
(450,494,o),
(450,350,cs),
(450,208,o),
(410,143,o),
(342,143,cs)
);
}
);
width = 684;
}
);
note = zero;
unicode = 48;
},
{
color = 5;
glyphname = one;
lastChange = "2022-05-29 18:29:24 +0000";
layers = (
{
background = {
shapes = (
{
closed = 1;
nodes = (
(300,0,l),
(300,700,l),
(223,700,l),
(41,571,l),
(41,478,l),
(210,594,l),
(210,0,l)
);
}
);
};
layerId = "30E869CF-9A31-4D47-9626-61B8364FC2DA";
shapes = (
{
closed = 1;
nodes = (
(300,0,l),
(300,700,l),
(223,700,l),
(41,571,l),
(41,478,l),
(210,594,l),
(210,0,l)
);
}
);
width = 408;
},
{
background = {
shapes = (
{
closed = 1;
nodes = (
(262,0,l),
(262,700,l),
(226,700,l),
(40,565,l),
(40,516,l),
(222,648,l),
(222,0,l)
);
}
);
};
layerId = "18A01495-E50D-4F2B-A1D8-5C332C731D93";
shapes = (
{
closed = 1;
nodes = (
(262,0,l),
(262,700,l),
(226,700,l),
(40,565,l),
(40,516,l),
(222,648,l),
(222,0,l)
);
}
);
width = 378;
},
{
background = {
shapes = (
{
closed = 1;
nodes = (
(373,0,l),
(373,700,l),
(204,700,l),
(30,589,l),
(30,407,l),
(183,496,l),
(183,0,l)
);
}
);
};
layerId = "9D32FE6F-9470-45EF-9689-909A6F5CE504";
shapes = (
{
closed = 1;
nodes = (
(373,0,l),
(373,700,l),
(204,700,l),
(30,589,l),
(30,407,l),
(183,496,l),
(183,0,l)
);
}
);
width = 449;
}
);
note = one;
unicode = 49;
},
{
color = 5;
glyphname = two;
lastChange = "2022-05-29 18:29:24 +0000";
layers = (
{
background = {
shapes = (
{
closed = 1;
nodes = (
(519,0,l),
(519,75,l),
(162,75,l),
(198,145,o),
(277,206,o),
(347,262,cs),
(441,338,o),
(514,403,o),
(514,506,cs),
(514,621,o),
(426,710,o),
(290,710,cs),
(155,710,o),
(60,625,o),
(55,486,c),
(146,486,l),
(148,581,o),
(205,635,o),
(289,635,cs),
(369,635,o),
(424,583,o),
(424,505,cs),
(424,431,o),
(360,379,o),
(293,323,cs),
(180,228,o),
(52,124,o),
(52,0,c)
);
}
);
};
layerId = "30E869CF-9A31-4D47-9626-61B8364FC2DA";
shapes = (
{
closed = 1;
nodes = (
(519,0,l),
(519,75,l),
(162,75,l),
(198,145,o),
(277,206,o),
(347,262,cs),
(441,338,o),
(514,403,o),
(514,506,cs),
(514,621,o),
(426,710,o),
(290,710,cs),
(155,710,o),
(60,625,o),
(55,486,c),
(146,486,l),
(148,581,o),
(205,635,o),
(289,635,cs),
(369,635,o),
(424,583,o),
(424,505,cs),
(424,431,o),
(360,379,o),
(293,323,cs),
(180,228,o),
(52,124,o),
(52,0,c)
);
}
);
width = 573;
},
{
background = {
shapes = (
{
closed = 1;
nodes = (
(507,0,l),
(507,35,l),
(108,35,l),
(129,116,o),
(233,194,o),
(320,266,cs),
(417,346,o),
(493,413,o),
(493,514,cs),
(493,623,o),
(411,710,o),
(283,710,cs),
(161,710,o),
(66,625,o),
(61,496,c),
(105,496,l),
(108,606,o),
(182,676,o),
(283,676,cs),
(384,676,o),
(453,612,o),
(453,515,cs),
(453,425,o),
(380,368,o),
(296,299,cs),
(194,215,o),
(58,102,o),
(58,0,c)
);
}
);
};
layerId = "18A01495-E50D-4F2B-A1D8-5C332C731D93";
shapes = (
{
closed = 1;
nodes = (
(507,0,l),
(507,35,l),
(108,35,l),
(129,116,o),
(233,194,o),
(320,266,cs),
(417,346,o),
(493,413,o),
(493,514,cs),
(493,623,o),
(411,710,o),
(283,710,cs),
(161,710,o),
(66,625,o),
(61,496,c),
(105,496,l),
(108,606,o),
(182,676,o),
(283,676,cs),
(384,676,o),
(453,612,o),
(453,515,cs),
(453,425,o),
(380,368,o),
(296,299,cs),
(194,215,o),
(58,102,o),
(58,0,c)
);
}
);
width = 559;
},
{
background = {
shapes = (
{
closed = 1;
nodes = (
(595,0,l),
(595,149,l),
(269,149,l),
(283,179,o),
(337,204,o),
(388,227,cs),
(517,286,o),
(602,349,o),
(602,476,cs),
(602,638,o),
(458,710,o),
(330,710,cs),
(199,710,o),
(55,633,o),
(42,460,c),
(231,460,l),
(235,515,o),
(271,553,o),
(327,553,cs),
(378,553,o),
(414,521,o),
(414,474,cs),
(414,416,o),
(351,382,o),
(264,339,cs),
(95,255,o),
(24,150,o),
(24,0,c)
);
}
);
};
layerId = "9D32FE6F-9470-45EF-9689-909A6F5CE504";
shapes = (
{
closed = 1;
nodes = (
(595,0,l),
(595,149,l),
(269,149,l),
(283,179,o),
(337,204,o),
(388,227,cs),
(517,286,o),
(602,349,o),
(602,476,cs),
(602,638,o),
(458,710,o),
(330,710,cs),
(199,710,o),
(55,633,o),
(42,460,c),
(231,460,l),
(235,515,o),
(271,553,o),
(327,553,cs),
(378,553,o),
(414,521,o),
(414,474,cs),
(414,416,o),
(351,382,o),
(264,339,cs),
(95,255,o),
(24,150,o),
(24,0,c)
);
}
);
width = 638;
}
);
note = two;
unicode = 50;
},
{
color = 5;
glyphname = three;
lastChange = "2022-05-29 18:29:24 +0000";
layers = (
{
background = {
shapes = (
{
closed = 1;
nodes = (
(428,-10,o),
(531,73,o),
(531,195,cs),
(531,290,o),
(471,352,o),
(389,362,c),
(467,382,o),
(518,443,o),
(518,520,cs),
(518,632,o),
(423,710,o),
(290,710,cs),
(154,710,o),
(65,631,o),
(54,508,c),
(144,508,l),
(151,585,o),
(205,635,o),
(289,635,cs),
(368,635,o),
(428,591,o),
(428,519,cs),
(428,448,o),
(369,396,o),
(271,396,cs),
(227,396,l),
(227,323,l),
(275,323,ls),
(377,323,o),
(441,283,o),
(441,196,cs),
(441,117,o),
(379,65,o),
(287,65,cs),
(196,65,o),
(140,118,o),
(133,200,c),
(43,200,l),
(51,70,o),
(148,-10,o),
(287,-10,cs)
);
}
);
};
layerId = "30E869CF-9A31-4D47-9626-61B8364FC2DA";
shapes = (
{
closed = 1;
nodes = (
(428,-10,o),
(531,73,o),
(531,195,cs),
(531,290,o),
(471,352,o),
(389,362,c),
(467,382,o),
(518,443,o),
(518,520,cs),
(518,632,o),
(423,710,o),
(290,710,cs),
(154,710,o),
(65,631,o),
(54,508,c),
(144,508,l),
(151,585,o),
(205,635,o),
(289,635,cs),
(368,635,o),
(428,591,o),
(428,519,cs),
(428,448,o),
(369,396,o),
(271,396,cs),
(227,396,l),
(227,323,l),
(275,323,ls),
(377,323,o),
(441,283,o),
(441,196,cs),
(441,117,o),
(379,65,o),
(287,65,cs),
(196,65,o),
(140,118,o),
(133,200,c),
(43,200,l),
(51,70,o),
(148,-10,o),
(287,-10,cs)
);
}
);
width = 589;
},
{
background = {
shapes = (
{
closed = 1;
nodes = (
(396,-10,o),
(508,59,o),
(508,187,cs),
(508,283,o),
(447,344,o),
(362,362,c),
(438,384,o),
(493,448,o),
(493,528,cs),
(493,627,o),
(412,710,o),
(282,710,cs),
(168,710,o),
(72,632,o),
(62,511,c),
(102,511,l),
(110,613,o),
(187,675,o),
(283,675,cs),
(377,675,o),
(453,622,o),
(453,528,cs),
(453,440,o),
(378,378,o),
(271,378,cs),
(224,378,l),
(224,343,l),
(271,343,ls),
(388,343,o),
(468,287,o),
(468,187,cs),
(468,85,o),
(389,25,o),
(280,25,cs),
(164,25,o),
(97,100,o),
(89,192,c),
(49,192,l),
(59,79,o),
(146,-10,o),
(280,-10,cs)
);
}
);
};
layerId = "18A01495-E50D-4F2B-A1D8-5C332C731D93";
shapes = (
{
closed = 1;
nodes = (
(396,-10,o),
(508,59,o),
(508,187,cs),
(508,283,o),
(447,344,o),
(362,362,c),
(438,384,o),
(493,448,o),
(493,528,cs),
(493,627,o),
(412,710,o),
(282,710,cs),
(168,710,o),
(72,632,o),
(62,511,c),
(102,511,l),
(110,613,o),
(187,675,o),
(283,675,cs),
(377,675,o),
(453,622,o),
(453,528,cs),
(453,440,o),
(378,378,o),
(271,378,cs),
(224,378,l),
(224,343,l),
(271,343,ls),
(388,343,o),
(468,287,o),
(468,187,cs),
(468,85,o),
(389,25,o),
(280,25,cs),
(164,25,o),
(97,100,o),
(89,192,c),
(49,192,l),
(59,79,o),
(146,-10,o),
(280,-10,cs)
);
}
);
width = 573;
},
{
background = {
shapes = (
{
closed = 1;
nodes = (
(485,-12,o),
(601,67,o),
(601,199,cs),
(601,287,o),
(546,343,o),
(478,363,c),
(546,386,o),
(587,439,o),
(587,513,cs),
(587,638,o),
(463,710,o),
(321,710,cs),
(160,710,o),
(55,636,o),
(43,492,c),
(230,492,l),
(234,543,o),
(265,573,o),
(317,573,cs),
(363,573,o),
(400,546,o),
(400,500,cs),
(400,444,o),
(356,421,o),
(296,421,cs),
(237,421,l),
(237,290,l),
(303,291,ls),
(363,291,o),
(411,268,o),
(411,208,cs),
(411,157,o),
(369,126,o),
(316,126,cs),
(261,126,o),
(223,159,o),
(218,212,c),
(29,212,l),
(42,62,o),
(153,-12,o),
(317,-12,cs)
);
}
);
};
layerId = "9D32FE6F-9470-45EF-9689-909A6F5CE504";
shapes = (
{
closed = 1;
nodes = (
(485,-12,o),
(601,67,o),
(601,199,cs),
(601,287,o),
(546,343,o),
(478,363,c),
(546,386,o),
(587,439,o),
(587,513,cs),
(587,638,o),
(463,710,o),
(321,710,cs),
(160,710,o),
(55,636,o),
(43,492,c),
(230,492,l),
(234,543,o),
(265,573,o),
(317,573,cs),
(363,573,o),
(400,546,o),
(400,500,cs),
(400,444,o),
(356,421,o),
(296,421,cs),
(237,421,l),
(237,290,l),
(303,291,ls),
(363,291,o),
(411,268,o),
(411,208,cs),
(411,157,o),
(369,126,o),
(316,126,cs),
(261,126,o),
(223,159,o),
(218,212,c),
(29,212,l),
(42,62,o),
(153,-12,o),
(317,-12,cs)
);
}
);
width = 642;
}
);
note = three;
unicode = 51;
},
{
color = 5;
glyphname = four;
lastChange = "2022-05-29 18:29:24 +0000";
layers = (
{
background = {
shapes = (
{
closed = 1;
nodes = (
(469,0,l),
(469,171,l),
(572,171,l),
(572,247,l),
(469,247,l),
(469,700,l),
(359,700,l),
(35,248,l),
(35,171,l),
(384,171,l),
(384,0,l)
);
},
{
closed = 1;
nodes = (
(384,604,l),
(384,247,l),
(129,247,l)
);
}
);
};
layerId = "30E869CF-9A31-4D47-9626-61B8364FC2DA";
shapes = (
{
closed = 1;
nodes = (
(469,0,l),
(469,171,l),
(572,171,l),
(572,247,l),
(469,247,l),
(469,700,l),
(359,700,l),
(35,248,l),
(35,171,l),
(384,171,l),
(384,0,l)
);
},
{
closed = 1;
nodes = (
(384,604,l),
(384,247,l),
(129,247,l)
);
}
);
width = 611;
},
{
background = {
shapes = (
{
closed = 1;
nodes = (
(439,0,l),
(439,190,l),
(555,190,l),
(555,229,l),
(439,229,l),
(439,700,l),
(388,700,l),
(38,229,l),
(38,190,l),
(396,190,l),
(396,0,l)
);
},
{
closed = 1;
nodes = (
(396,645,l),
(396,229,l),
(88,229,l)
);
}
);
};
layerId = "18A01495-E50D-4F2B-A1D8-5C332C731D93";
shapes = (
{
closed = 1;
nodes = (
(439,0,l),
(439,190,l),
(555,190,l),
(555,229,l),
(439,229,l),
(439,700,l),
(388,700,l),
(38,229,l),
(38,190,l),
(396,190,l),
(396,0,l)
);
},
{
closed = 1;
nodes = (
(396,645,l),
(396,229,l),
(88,229,l)
);
}
);
width = 595;
},
{
background = {
shapes = (
{
closed = 1;
nodes = (
(550,0,l),
(550,139,l),
(634,139,l),
(634,286,l),
(550,286,l),
(550,700,l),
(318,700,l),
(25,285,l),
(25,139,l),
(370,139,l),
(370,0,l)
);
},
{
closed = 1;
nodes = (
(370,522,l),
(370,286,l),
(208,286,l)
);
}
);
};
layerId = "9D32FE6F-9470-45EF-9689-909A6F5CE504";
shapes = (
{
closed = 1;
nodes = (
(550,0,l),
(550,139,l),
(634,139,l),
(634,286,l),
(550,286,l),
(550,700,l),
(318,700,l),
(25,285,l),
(25,139,l),
(370,139,l),
(370,0,l)
);
},
{
closed = 1;
nodes = (
(370,522,l),
(370,286,l),
(208,286,l)
);
}
);
width = 664;
}
);
note = four;
unicode = 52;
},
{
color = 5;
glyphname = five;
lastChange = "2022-05-29 18:29:24 +0000";
layers = (
{
background = {
shapes = (
{
closed = 1;
nodes = (
(435,-10,o),
(534,90,o),
(534,228,cs),
(534,368,o),
(431,462,o),
(307,462,cs),
(249,462,o),
(193,441,o),
(159,407,c),
(179,622,l),
(497,622,l),
(497,700,l),
(110,700,l),
(73,307,l),
(154,307,l),
(179,357,o),
(229,387,o),
(292,387,cs),
(379,387,o),
(444,320,o),
(444,227,cs),
(444,135,o),
(384,65,o),
(287,65,cs),
(200,65,o),
(144,117,o),
(137,194,c),
(47,194,l),
(55,69,o),
(153,-10,o),
(287,-10,cs)
);
}
);
};
layerId = "30E869CF-9A31-4D47-9626-61B8364FC2DA";
shapes = (
{
closed = 1;
nodes = (
(435,-10,o),
(534,90,o),
(534,228,cs),
(534,368,o),
(431,462,o),
(307,462,cs),
(249,462,o),
(193,441,o),
(159,407,c),
(179,622,l),
(497,622,l),
(497,700,l),
(110,700,l),
(73,307,l),
(154,307,l),
(179,357,o),
(229,387,o),
(292,387,cs),
(379,387,o),
(444,320,o),
(444,227,cs),
(444,135,o),
(384,65,o),
(287,65,cs),
(200,65,o),
(144,117,o),
(137,194,c),
(47,194,l),
(55,69,o),
(153,-10,o),
(287,-10,cs)
);
}
);
width = 581;
},
{
background = {
shapes = (
{
closed = 1;
nodes = (
(409,-11,o),
(513,79,o),
(513,225,cs),
(513,345,o),
(429,455,o),
(288,455,cs),
(221,455,o),
(159,424,o),
(125,382,c),
(152,665,l),
(483,665,l),
(483,700,l),
(116,700,l),
(79,317,l),
(120,317,l),
(148,376,o),
(210,420,o),
(286,420,cs),
(403,420,o),
(473,333,o),
(473,225,cs),
(473,100,o),
(392,24,o),
(282,24,cs),
(174,24,o),
(103,94,o),
(93,193,c),
(54,193,l),
(64,77,o),
(150,-11,o),
(282,-11,cs)
);
}
);
};
layerId = "18A01495-E50D-4F2B-A1D8-5C332C731D93";
shapes = (
{
closed = 1;
nodes = (
(409,-11,o),
(513,79,o),
(513,225,cs),
(513,345,o),
(429,455,o),
(288,455,cs),
(221,455,o),
(159,424,o),
(125,382,c),
(152,665,l),
(483,665,l),
(483,700,l),
(116,700,l),
(79,317,l),
(120,317,l),
(148,376,o),
(210,420,o),
(286,420,cs),
(403,420,o),
(473,333,o),
(473,225,cs),
(473,100,o),
(392,24,o),
(282,24,cs),
(174,24,o),
(103,94,o),
(93,193,c),
(54,193,l),
(64,77,o),
(150,-11,o),
(282,-11,cs)
);
}
);
width = 563;
},
{
background = {
shapes = (
{
closed = 1;
nodes = (
(463,-12,o),
(592,74,o),
(592,230,cs),
(592,364,o),
(502,461,o),
(359,461,cs),
(307,461,o),
(264,448,o),
(230,424,c),
(246,548,l),
(545,548,l),
(545,700,l),
(97,700,l),
(54,276,l),
(227,276,l),
(241,307,o),
(272,326,o),
(309,326,cs),
(365,326,o),
(402,287,o),
(402,226,cs),
(402,170,o),
(369,126,o),
(310,126,cs),
(265,126,o),
(227,157,o),
(224,200,c),
(35,200,l),
(42,83,o),
(135,-12,o),
(313,-12,cs)
);
}
);
};
layerId = "9D32FE6F-9470-45EF-9689-909A6F5CE504";
shapes = (
{
closed = 1;
nodes = (
(463,-12,o),
(592,74,o),
(592,230,cs),
(592,364,o),
(502,461,o),
(359,461,cs),
(307,461,o),
(264,448,o),
(230,424,c),
(246,548,l),
(545,548,l),
(545,700,l),
(97,700,l),
(54,276,l),
(227,276,l),
(241,307,o),
(272,326,o),
(309,326,cs),
(365,326,o),
(402,287,o),
(402,226,cs),
(402,170,o),
(369,126,o),
(310,126,cs),
(265,126,o),
(227,157,o),
(224,200,c),
(35,200,l),
(42,83,o),
(135,-12,o),
(313,-12,cs)
);
}
);
width = 624;
}
);
note = five;
unicode = 53;
},
{
color = 5;
glyphname = six;
lastChange = "2022-05-29 18:29:24 +0000";
layers = (
{
background = {
shapes = (
{
closed = 1;
nodes = (
(446,-10,o),
(552,82,o),
(552,227,cs),
(552,366,o),
(453,454,o),
(326,454,cs),
(248,454,o),
(178,416,o),
(146,346,c),
(149,536,o),
(210,635,o),
(317,635,cs),
(390,635,o),
(437,597,o),
(447,533,c),
(537,533,l),
(526,640,o),
(441,710,o),
(318,710,cs),
(157,710,o),
(59,579,o),
(59,333,cs),
(59,109,o),
(153,-10,o),
(309,-10,cs)
);
},
{
closed = 1;
nodes = (
(222,69,o),
(164,136,o),
(164,225,cs),
(164,310,o),
(225,379,o),
(313,379,cs),
(398,379,o),
(462,319,o),
(462,225,cs),
(462,133,o),
(404,69,o),
(309,69,cs)
);
}
);
};
layerId = "30E869CF-9A31-4D47-9626-61B8364FC2DA";
shapes = (
{
closed = 1;
nodes = (
(446,-10,o),
(552,82,o),
(552,227,cs),
(552,366,o),
(453,454,o),
(326,454,cs),
(248,454,o),
(178,416,o),
(146,346,c),
(149,536,o),
(210,635,o),
(317,635,cs),
(390,635,o),
(437,597,o),
(447,533,c),
(537,533,l),
(526,640,o),
(441,710,o),
(318,710,cs),
(157,710,o),
(59,579,o),
(59,333,cs),
(59,109,o),
(153,-10,o),
(309,-10,cs)
);
},
{
closed = 1;
nodes = (
(222,69,o),
(164,136,o),
(164,225,cs),
(164,310,o),
(225,379,o),
(313,379,cs),
(398,379,o),
(462,319,o),
(462,225,cs),
(462,133,o),
(404,69,o),
(309,69,cs)
);
}
);
width = 606;
},
{
background = {
shapes = (
{
closed = 1;
nodes = (
(423,-10,o),
(529,78,o),
(529,223,cs),
(529,348,o),
(442,451,o),
(306,451,cs),
(213,451,o),
(131,395,o),
(108,302,c),
(109,483,o),
(142,675,o),
(309,675,cs),
(398,675,o),
(464,621,o),
(473,540,c),
(513,540,l),
(502,642,o),
(419,710,o),
(309,710,cs),
(129,710,o),
(65,522,o),
(65,315,cs),
(65,115,o),
(152,-10,o),
(303,-10,cs)
);
},
{
closed = 1;
nodes = (
(193,25,o),
(122,115,o),
(122,223,cs),
(122,339,o),
(203,416,o),
(303,416,cs),
(413,416,o),
(489,338,o),
(489,223,cs),
(489,99,o),
(409,25,o),
(303,25,cs)
);
}
);
};
layerId = "18A01495-E50D-4F2B-A1D8-5C332C731D93";
shapes = (
{
closed = 1;
nodes = (
(423,-10,o),
(529,78,o),
(529,223,cs),
(529,348,o),
(442,451,o),
(306,451,cs),
(213,451,o),
(131,395,o),
(108,302,c),
(109,483,o),
(142,675,o),
(309,675,cs),
(398,675,o),
(464,621,o),
(473,540,c),
(513,540,l),
(502,642,o),
(419,710,o),
(309,710,cs),
(129,710,o),
(65,522,o),
(65,315,cs),
(65,115,o),
(152,-10,o),
(303,-10,cs)
);
},
{
closed = 1;
nodes = (
(193,25,o),
(122,115,o),
(122,223,cs),
(122,339,o),
(203,416,o),
(303,416,cs),
(413,416,o),
(489,338,o),
(489,223,cs),
(489,99,o),
(409,25,o),
(303,25,cs)
);
}
);
width = 592;
},
{
background = {
shapes = (
{
closed = 1;
nodes = (
(461,-12,o),
(608,65,o),
(608,229,cs),
(608,380,o),
(495,457,o),
(376,457,cs),
(323,457,o),
(265,437,o),
(226,395,c),
(228,509,o),
(263,572,o),
(329,572,cs),
(372,572,o),
(402,551,o),
(411,507,c),
(599,507,l),
(583,635,o),
(485,710,o),
(334,710,cs),
(117,710,o),
(38,549,o),
(38,332,cs),
(38,106,o),
(150,-12,o),
(330,-12,cs)
);
},
{
closed = 1;
nodes = (
(278,126,o),
(240,165,o),
(240,224,cs),
(240,282,o),
(278,321,o),
(330,321,cs),
(380,321,o),
(419,283,o),
(419,224,cs),
(419,166,o),
(383,126,o),
(330,126,cs)
);
}
);
};
layerId = "9D32FE6F-9470-45EF-9689-909A6F5CE504";
shapes = (
{
closed = 1;
nodes = (
(461,-12,o),
(608,65,o),
(608,229,cs),
(608,380,o),
(495,457,o),
(376,457,cs),
(323,457,o),
(265,437,o),
(226,395,c),
(228,509,o),
(263,572,o),
(329,572,cs),
(372,572,o),
(402,551,o),
(411,507,c),
(599,507,l),
(583,635,o),
(485,710,o),
(334,710,cs),
(117,710,o),
(38,549,o),
(38,332,cs),
(38,106,o),
(150,-12,o),
(330,-12,cs)
);
},
{
closed = 1;
nodes = (
(278,126,o),
(240,165,o),
(240,224,cs),
(240,282,o),
(278,321,o),
(330,321,cs),
(380,321,o),
(419,283,o),
(419,224,cs),
(419,166,o),
(383,126,o),
(330,126,cs)
);
}
);
width = 643;
}
);
note = six;
unicode = 54;
},
{
color = 5;
glyphname = seven;
lastChange = "2022-05-29 18:29:24 +0000";
layers = (
{
background = {
shapes = (
{
closed = 1;
nodes = (
(235,0,l),
(496,626,l),
(496,700,l),
(34,700,l),
(34,620,l),
(401,620,l),
(145,0,l)
);
}
);
};
layerId = "30E869CF-9A31-4D47-9626-61B8364FC2DA";
shapes = (
{
closed = 1;
nodes = (
(235,0,l),
(496,626,l),
(496,700,l),
(34,700,l),
(34,620,l),
(401,620,l),
(145,0,l)
);
}
);
width = 529;
},
{
background = {
shapes = (
{
closed = 1;
nodes = (
(199,0,l),
(477,667,l),
(477,700,l),
(35,700,l),
(35,665,l),
(432,665,l),
(154,0,l)
);
}
);
};
layerId = "18A01495-E50D-4F2B-A1D8-5C332C731D93";
shapes = (
{
closed = 1;
nodes = (
(199,0,l),
(477,667,l),
(477,700,l),
(35,700,l),
(35,665,l),
(432,665,l),
(154,0,l)
);
}
);
width = 512;
},
{
background = {
shapes = (
{
closed = 1;
nodes = (
(315,0,l),
(548,538,l),
(548,700,l),
(28,700,l),
(28,537,l),
(347,537,l),
(116,0,l)
);
}
);
};
layerId = "9D32FE6F-9470-45EF-9689-909A6F5CE504";
shapes = (
{
closed = 1;
nodes = (
(315,0,l),
(548,538,l),
(548,700,l),
(28,700,l),
(28,537,l),
(347,537,l),
(116,0,l)
);
}
);
width = 576;
}
);
note = seven;
unicode = 55;
},
{
color = 5;
glyphname = eight;
lastChange = "2022-05-29 18:29:24 +0000";
layers = (
{
background = {
shapes = (
{
closed = 1;
nodes = (
(446,-10,o),
(550,67,o),
(550,190,cs),
(550,271,o),
(494,341,o),
(411,360,c),
(488,388,o),
(530,451,o),
(530,520,cs),
(530,632,o),
(433,710,o),
(304,710,cs),
(179,710,o),
(78,633,o),
(78,520,cs),
(78,451,o),
(122,386,o),
(197,360,c),
(116,341,o),
(58,269,o),
(58,190,cs),
(58,67,o),
(162,-10,o),
(304,-10,cs)
);
},
{
closed = 1;
nodes = (
(211,65,o),
(148,117,o),
(148,194,cs),
(148,269,o),
(210,323,o),
(304,323,cs),
(397,323,o),
(460,269,o),
(460,194,cs),
(460,118,o),
(399,65,o),
(304,65,cs)
);
},
{
closed = 1;
nodes = (
(225,396,o),
(168,446,o),
(168,518,cs),
(168,589,o),
(227,635,o),
(304,635,cs),
(379,635,o),
(440,589,o),
(440,518,cs),
(440,445,o),
(383,396,o),
(304,396,cs)
);
}
);
};
layerId = "30E869CF-9A31-4D47-9626-61B8364FC2DA";
shapes = (
{
closed = 1;
nodes = (
(446,-10,o),
(550,67,o),
(550,190,cs),
(550,271,o),
(494,341,o),
(411,360,c),
(488,388,o),
(530,451,o),
(530,520,cs),
(530,632,o),
(433,710,o),
(304,710,cs),
(179,710,o),
(78,633,o),
(78,520,cs),
(78,451,o),
(122,386,o),
(197,360,c),
(116,341,o),
(58,269,o),
(58,190,cs),
(58,67,o),
(162,-10,o),
(304,-10,cs)
);
},
{
closed = 1;
nodes = (
(211,65,o),
(148,117,o),
(148,194,cs),
(148,269,o),
(210,323,o),
(304,323,cs),
(397,323,o),
(460,269,o),
(460,194,cs),
(460,118,o),
(399,65,o),
(304,65,cs)
);
},
{
closed = 1;
nodes = (
(225,396,o),
(168,446,o),
(168,518,cs),
(168,589,o),
(227,635,o),
(304,635,cs),
(379,635,o),
(440,589,o),
(440,518,cs),
(440,445,o),
(383,396,o),
(304,396,cs)
);
}
);
width = 608;
},
{
background = {
shapes = (
{
closed = 1;
nodes = (
(408,-10,o),
(517,61,o),
(517,185,cs),
(517,269,o),
(461,341,o),
(374,361,c),
(446,384,o),
(499,450,o),
(499,527,cs),
(499,628,o),
(414,710,o),
(291,710,cs),
(188,710,o),
(82,642,o),
(82,527,cs),
(82,451,o),
(133,385,o),
(208,361,c),
(124,341,o),
(64,271,o),
(64,185,cs),
(64,76,o),
(153,-10,o),
(291,-10,cs)
);
},
{
closed = 1;
nodes = (
(179,25,o),
(104,89,o),
(104,186,cs),
(104,270,o),
(174,341,o),
(291,341,cs),
(406,341,o),
(477,270,o),
(477,186,cs),
(477,90,o),
(403,25,o),
(291,25,cs)
);
},
{
closed = 1;
nodes = (
(191,379,o),
(122,443,o),
(122,526,cs),
(122,620,o),
(201,675,o),
(291,675,cs),
(391,675,o),
(459,612,o),
(459,526,cs),
(459,444,o),
(391,379,o),
(291,379,cs)
);
}
);
};
layerId = "18A01495-E50D-4F2B-A1D8-5C332C731D93";
shapes = (
{
closed = 1;
nodes = (
(408,-10,o),
(517,61,o),
(517,185,cs),
(517,269,o),
(461,341,o),
(374,361,c),
(446,384,o),
(499,450,o),
(499,527,cs),
(499,628,o),
(414,710,o),
(291,710,cs),
(188,710,o),
(82,642,o),
(82,527,cs),
(82,451,o),
(133,385,o),
(208,361,c),
(124,341,o),
(64,271,o),
(64,185,cs),
(64,76,o),
(153,-10,o),
(291,-10,cs)
);
},
{
closed = 1;
nodes = (
(179,25,o),
(104,89,o),
(104,186,cs),
(104,270,o),
(174,341,o),
(291,341,cs),
(406,341,o),
(477,270,o),
(477,186,cs),
(477,90,o),
(403,25,o),
(291,25,cs)
);
},
{
closed = 1;
nodes = (
(191,379,o),
(122,443,o),
(122,526,cs),
(122,620,o),
(201,675,o),
(291,675,cs),
(391,675,o),
(459,612,o),
(459,526,cs),
(459,444,o),
(391,379,o),
(291,379,cs)
);
}
);
width = 581;
},
{
background = {
shapes = (
{
closed = 1;
nodes = (
(475,-12,o),
(613,50,o),
(613,195,cs),
(613,274,o),
(568,338,o),
(492,363,c),
(555,388,o),
(598,440,o),
(598,513,cs),
(598,632,o),
(487,710,o),
(327,710,cs),
(194,710,o),
(56,647,o),
(56,513,cs),
(56,440,o),
(99,387,o),
(163,363,c),
(89,338,o),
(41,275,o),
(41,195,cs),
(41,65,o),
(151,-12,o),
(327,-12,cs)
);
},
{
closed = 1;
nodes = (
(272,122,o),
(229,154,o),
(229,206,cs),
(229,260,o),
(272,294,o),
(327,294,cs),
(382,294,o),
(425,259,o),
(425,206,cs),
(425,154,o),
(382,122,o),
(327,122,cs)
);
},
{
closed = 1;
nodes = (
(281,422,o),
(241,451,o),
(241,501,cs),
(241,548,o),
(279,576,o),
(327,576,cs),
(373,576,o),
(413,549,o),
(413,501,cs),
(413,452,o),
(375,422,o),
(327,422,cs)
);
}
);
};
layerId = "9D32FE6F-9470-45EF-9689-909A6F5CE504";
shapes = (
{
closed = 1;
nodes = (
(475,-12,o),
(613,50,o),
(613,195,cs),
(613,274,o),
(568,338,o),
(492,363,c),
(555,388,o),
(598,440,o),
(598,513,cs),
(598,632,o),
(487,710,o),
(327,710,cs),
(194,710,o),
(56,647,o),
(56,513,cs),
(56,440,o),
(99,387,o),
(163,363,c),
(89,338,o),
(41,275,o),
(41,195,cs),
(41,65,o),
(151,-12,o),
(327,-12,cs)
);
},
{
closed = 1;
nodes = (
(272,122,o),
(229,154,o),
(229,206,cs),
(229,260,o),
(272,294,o),
(327,294,cs),
(382,294,o),
(425,259,o),
(425,206,cs),
(425,154,o),
(382,122,o),
(327,122,cs)
);
},
{
closed = 1;
nodes = (
(281,422,o),
(241,451,o),
(241,501,cs),
(241,548,o),
(279,576,o),
(327,576,cs),
(373,576,o),
(413,549,o),
(413,501,cs),
(413,452,o),
(375,422,o),
(327,422,cs)
);
}
);
width = 654;
}
);
note = eight;
unicode = 56;
},
{
color = 5;
glyphname = nine;
lastChange = "2022-05-29 18:29:24 +0000";
layers = (
{
background = {
shapes = (
{
closed = 1;
nodes = (
(449,-10,o),
(547,121,o),
(547,367,cs),
(547,591,o),
(453,710,o),
(297,710,cs),
(160,710,o),
(54,618,o),
(54,473,cs),
(54,334,o),
(153,246,o),
(280,246,cs),
(358,246,o),
(428,284,o),
(460,354,c),
(457,164,o),
(396,65,o),
(289,65,cs),
(216,65,o),
(169,103,o),
(159,167,c),
(69,167,l),
(80,60,o),
(165,-10,o),
(288,-10,cs)
);
},
{
closed = 1;
nodes = (
(208,321,o),
(144,381,o),
(144,475,cs),
(144,567,o),
(202,631,o),
(297,631,cs),
(384,631,o),
(442,564,o),
(442,475,cs),
(442,390,o),
(381,321,o),
(293,321,cs)
);
}
);
};
layerId = "30E869CF-9A31-4D47-9626-61B8364FC2DA";
shapes = (
{
closed = 1;
nodes = (
(449,-10,o),
(547,121,o),
(547,367,cs),
(547,591,o),
(453,710,o),
(297,710,cs),
(160,710,o),
(54,618,o),
(54,473,cs),
(54,334,o),
(153,246,o),
(280,246,cs),
(358,246,o),
(428,284,o),
(460,354,c),
(457,164,o),
(396,65,o),
(289,65,cs),
(216,65,o),
(169,103,o),
(159,167,c),
(69,167,l),
(80,60,o),
(165,-10,o),
(288,-10,cs)
);
},
{
closed = 1;
nodes = (
(208,321,o),
(144,381,o),
(144,475,cs),
(144,567,o),
(202,631,o),
(297,631,cs),
(384,631,o),
(442,564,o),
(442,475,cs),
(442,390,o),
(381,321,o),
(293,321,cs)
);
}
);
width = 606;
},
{
background = {
shapes = (
{
closed = 1;
nodes = (
(463,-10,o),
(527,178,o),
(527,385,cs),
(527,585,o),
(440,710,o),
(289,710,cs),
(169,710,o),
(63,622,o),
(63,477,cs),
(63,352,o),
(150,249,o),
(286,249,cs),
(379,249,o),
(461,305,o),
(484,398,c),
(483,217,o),
(450,25,o),
(283,25,cs),
(194,25,o),
(128,79,o),
(119,160,c),
(79,160,l),
(90,58,o),
(173,-10,o),
(283,-10,cs)
);
},
{
closed = 1;
nodes = (
(179,284,o),
(103,362,o),
(103,477,cs),
(103,601,o),
(183,675,o),
(289,675,cs),
(399,675,o),
(470,585,o),
(470,477,cs),
(470,361,o),
(389,284,o),
(289,284,cs)
);
}
);
};
layerId = "18A01495-E50D-4F2B-A1D8-5C332C731D93";
shapes = (
{
closed = 1;
nodes = (
(463,-10,o),
(527,178,o),
(527,385,cs),
(527,585,o),
(440,710,o),
(289,710,cs),
(169,710,o),
(63,622,o),
(63,477,cs),
(63,352,o),
(150,249,o),
(286,249,cs),
(379,249,o),
(461,305,o),
(484,398,c),
(483,217,o),
(450,25,o),
(283,25,cs),
(194,25,o),
(128,79,o),
(119,160,c),
(79,160,l),
(90,58,o),
(173,-10,o),
(283,-10,cs)
);
},
{
closed = 1;
nodes = (
(179,284,o),
(103,362,o),
(103,477,cs),
(103,601,o),
(183,675,o),
(289,675,cs),
(399,675,o),
(470,585,o),
(470,477,cs),
(470,361,o),
(389,284,o),
(289,284,cs)
);
}
);
width = 592;
},
{
background = {
shapes = (
{
closed = 1;
nodes = (
(528,-12,o),
(604,151,o),
(604,366,cs),
(604,592,o),
(493,710,o),
(313,710,cs),
(160,710,o),
(35,616,o),
(35,470,cs),
(35,326,o),
(139,242,o),
(267,242,cs),
(320,242,o),
(378,261,o),
(417,303,c),
(415,189,o),
(382,127,o),
(314,127,cs),
(271,127,o),
(240,147,o),
(231,192,c),
(43,192,l),
(57,73,o),
(147,-12,o),
(309,-12,cs)
);
},
{
closed = 1;
nodes = (
(263,377,o),
(224,416,o),
(224,475,cs),
(224,533,o),
(260,573,o),
(313,573,cs),
(365,573,o),
(403,533,o),
(403,475,cs),
(403,417,o),
(365,377,o),
(313,377,cs)
);
}
);
};
layerId = "9D32FE6F-9470-45EF-9689-909A6F5CE504";
shapes = (
{
closed = 1;
nodes = (
(528,-12,o),
(604,151,o),
(604,366,cs),
(604,592,o),
(493,710,o),
(313,710,cs),
(160,710,o),
(35,616,o),
(35,470,cs),
(35,326,o),
(139,242,o),
(267,242,cs),
(320,242,o),
(378,261,o),
(417,303,c),
(415,189,o),
(382,127,o),
(314,127,cs),
(271,127,o),
(240,147,o),
(231,192,c),
(43,192,l),
(57,73,o),
(147,-12,o),
(309,-12,cs)
);
},
{
closed = 1;
nodes = (
(263,377,o),
(224,416,o),
(224,475,cs),
(224,533,o),
(260,573,o),
(313,573,cs),
(365,573,o),
(403,533,o),
(403,475,cs),
(403,417,o),
(365,377,o),
(313,377,cs)
);
}
);
width = 643;
}
);
note = nine;
unicode = 57;
},
{
color = 5;
glyphname = zero.dnom;
kernLeft = zero.dnom;
kernRight = zero.dnom;
lastChange = "2022-05-29 19:10:02 +0000";
layers = (
{
background = {
shapes = (
{
closed = 1;
nodes = (
(282,-6,o),
(347,60,o),
(347,190,cs),
(347,318,o),
(283,382,o),
(192,382,cs),
(102,382,o),
(37,318,o),
(37,190,cs),
(37,59,o),
(100,-6,o),
(192,-6,cs)
);
},
{
closed = 1;
nodes = (
(134,48,o),
(102,101,o),
(102,190,cs),
(102,276,o),
(134,328,o),
(192,328,cs),
(250,328,o),
(281,278,o),
(281,190,cs),
(281,103,o),
(251,48,o),
(192,48,cs)
);
}
);
};
layerId = "30E869CF-9A31-4D47-9626-61B8364FC2DA";
shapes = (
{
closed = 1;
nodes = (
(282,-6,o),
(347,60,o),
(347,190,cs),
(347,318,o),
(283,382,o),
(192,382,cs),
(102,382,o),
(37,318,o),
(37,190,cs),
(37,59,o),
(100,-6,o),
(192,-6,cs)
);
},
{
closed = 1;
nodes = (
(134,48,o),
(102,101,o),
(102,190,cs),
(102,276,o),
(134,328,o),
(192,328,cs),
(250,328,o),
(281,278,o),
(281,190,cs),
(281,103,o),
(251,48,o),
(192,48,cs)
);
}
);
width = 384;
},
{
background = {
shapes = (
{
closed = 1;
nodes = (
(275,-7,o),
(337,62,o),
(337,189,cs),
(337,315,o),
(276,382,o),
(189,382,cs),
(103,382,o),
(41,315,o),
(41,189,cs),
(41,63,o),
(101,-7,o),
(189,-7,cs)
);
},
{
closed = 1;
nodes = (
(119,26,o),
(77,88,o),
(77,189,cs),
(77,288,o),
(118,350,o),
(189,350,cs),
(258,350,o),
(300,290,o),
(300,189,cs),
(300,90,o),
(260,26,o),
(189,26,cs)
);
}
);
};
layerId = "18A01495-E50D-4F2B-A1D8-5C332C731D93";
shapes = (
{
closed = 1;
nodes = (
(275,-7,o),
(337,62,o),
(337,189,cs),
(337,315,o),
(276,382,o),
(189,382,cs),
(103,382,o),
(41,315,o),
(41,189,cs),
(41,63,o),
(101,-7,o),
(189,-7,cs)
);
},
{
closed = 1;
nodes = (
(119,26,o),
(77,88,o),
(77,189,cs),
(77,288,o),
(118,350,o),
(189,350,cs),
(258,350,o),
(300,290,o),
(300,189,cs),
(300,90,o),
(260,26,o),
(189,26,cs)
);
}
);
width = 378;
},
{
background = {
shapes = (
{
closed = 1;
nodes = (
(309,-8,o),
(378,62,o),
(378,188,cs),
(378,329,o),
(295,383,o),
(201,383,cs),
(94,383,o),
(25,313,o),
(25,188,cs),
(25,60,o),
(96,-8,o),
(201,-8,cs)
);
},
{
closed = 1;
nodes = (
(167,87,o),
(149,119,o),
(149,188,cs),
(149,257,o),
(167,288,o),
(201,288,cs),
(236,288,o),
(254,257,o),
(254,188,cs),
(254,122,o),
(238,87,o),
(201,87,cs)
);
}
);
};
layerId = "9D32FE6F-9470-45EF-9689-909A6F5CE504";
shapes = (
{
closed = 1;
nodes = (
(309,-8,o),
(378,62,o),
(378,188,cs),
(378,329,o),
(295,383,o),
(201,383,cs),
(94,383,o),
(25,313,o),
(25,188,cs),
(25,60,o),
(96,-8,o),
(201,-8,cs)
);
},
{
closed = 1;
nodes = (
(167,87,o),
(149,119,o),
(149,188,cs),
(149,257,o),
(167,288,o),
(201,288,cs),
(236,288,o),
(254,257,o),
(254,188,cs),
(254,122,o),
(238,87,o),
(201,87,cs)
);
}
);
width = 403;
}
);
note = zero.dnom;
},
{
color = 5;
glyphname = one.dnom;
kernLeft = one.dnom;
lastChange = "2022-05-29 19:10:02 +0000";
layers = (
{
background = {
shapes = (
{
closed = 1;
nodes = (
(132,0,l),
(195,0,l),
(195,375,l),
(139,375,l),
(33,306,l),
(33,243,l),
(132,304,l)
);
}
);
};
layerId = "30E869CF-9A31-4D47-9626-61B8364FC2DA";
shapes = (
{
closed = 1;
nodes = (
(132,0,l),
(195,0,l),
(195,375,l),
(139,375,l),
(33,306,l),
(33,243,l),
(132,304,l)
);
}
);
width = 264;
},
{
background = {
shapes = (
{
closed = 1;
nodes = (
(139,0,l),
(174,0,l),
(174,375,l),
(142,375,l),
(35,304,l),
(35,267,l),
(139,334,l)
);
}
);
};
layerId = "18A01495-E50D-4F2B-A1D8-5C332C731D93";
shapes = (
{
closed = 1;
nodes = (
(139,0,l),
(174,0,l),
(174,375,l),
(142,375,l),
(35,304,l),
(35,267,l),
(139,334,l)
);
}
);
width = 253;
},
{
background = {
shapes = (
{
closed = 1;
nodes = (
(121,0,l),
(243,0,l),
(243,375,l),
(135,375,l),
(29,311,l),
(29,199,l),
(121,250,l)
);
}
);
};
layerId = "9D32FE6F-9470-45EF-9689-909A6F5CE504";
shapes = (
{
closed = 1;
nodes = (
(121,0,l),
(243,0,l),
(243,375,l),
(135,375,l),
(29,311,l),
(29,199,l),
(121,250,l)
);
}
);
width = 289;
}
);
note = one.dnom;
},
{
color = 5;
glyphname = two.dnom;
kernLeft = two.dnom;
lastChange = "2022-05-29 19:10:02 +0000";
layers = (
{
background = {
shapes = (
{
closed = 1;
nodes = (
(23,0,l),
(309,0,l),
(309,52,l),
(106,52,l),
(116,82,o),
(150,103,o),
(189,122,cs),
(261,160,o),
(309,195,o),
(309,263,cs),
(309,335,o),
(250,382,o),
(174,382,cs),
(96,382,o),
(39,334,o),
(33,259,c),
(99,259,l),
(100,298,o),
(127,328,o),
(174,328,cs),
(215,328,o),
(243,301,o),
(243,262,cs),
(243,220,o),
(204,195,o),
(148,164,cs),
(83,129,o),
(38,88,o),
(27,25,cs)
);
}
);
};
layerId = "30E869CF-9A31-4D47-9626-61B8364FC2DA";
shapes = (
{
closed = 1;
nodes = (
(23,0,l),
(309,0,l),
(309,52,l),
(106,52,l),
(116,82,o),
(150,103,o),
(189,122,cs),
(261,160,o),
(309,195,o),
(309,263,cs),
(309,335,o),
(250,382,o),
(174,382,cs),
(96,382,o),
(39,334,o),
(33,259,c),
(99,259,l),
(100,298,o),
(127,328,o),
(174,328,cs),
(215,328,o),
(243,301,o),
(243,262,cs),
(243,220,o),
(204,195,o),
(148,164,cs),
(83,129,o),
(38,88,o),
(27,25,cs)
);
}
);
width = 343;
},
{
background = {
shapes = (
{
closed = 1;
nodes = (
(26,0,l),
(298,0,l),
(298,28,l),
(69,28,l),
(80,69,o),
(121,100,o),
(168,125,cs),
(241,164,o),
(292,202,o),
(292,269,cs),
(292,334,o),
(241,383,o),
(167,383,cs),
(95,383,o),
(42,336,o),
(37,266,c),
(71,266,l),
(74,315,o),
(110,354,o),
(167,354,cs),
(221,354,o),
(258,320,o),
(258,269,cs),
(258,217,o),
(214,184,o),
(149,148,cs),
(90,116,o),
(43,76,o),
(30,16,cs)
);
}
);
};
layerId = "18A01495-E50D-4F2B-A1D8-5C332C731D93";
shapes = (
{
closed = 1;
nodes = (
(26,0,l),
(298,0,l),
(298,28,l),
(69,28,l),
(80,69,o),
(121,100,o),
(168,125,cs),
(241,164,o),
(292,202,o),
(292,269,cs),
(292,334,o),
(241,383,o),
(167,383,cs),
(95,383,o),
(42,336,o),
(37,266,c),
(71,266,l),
(74,315,o),
(110,354,o),
(167,354,cs),
(221,354,o),
(258,320,o),
(258,269,cs),
(258,217,o),
(214,184,o),
(149,148,cs),
(90,116,o),
(43,76,o),
(30,16,cs)
);
}
);
width = 330;
},
{
background = {
shapes = (
{
closed = 1;
nodes = (
(19,0,l),
(348,0,l),
(348,90,l),
(174,90,l),
(181,102,o),
(208,113,o),
(235,123,cs),
(307,152,o),
(353,184,o),
(353,253,cs),
(353,332,o),
(285,384,o),
(196,384,cs),
(103,384,o),
(37,327,o),
(29,243,c),
(147,243,l),
(149,265,o),
(165,288,o),
(194,288,cs),
(218,288,o),
(236,274,o),
(236,252,cs),
(236,225,o),
(204,211,o),
(155,189,cs),
(86,159,o),
(33,113,o),
(24,38,cs)
);
}
);
};
layerId = "9D32FE6F-9470-45EF-9689-909A6F5CE504";
shapes = (
{
closed = 1;
nodes = (
(19,0,l),
(348,0,l),
(348,90,l),
(174,90,l),
(181,102,o),
(208,113,o),
(235,123,cs),
(307,152,o),
(353,184,o),
(353,253,cs),
(353,332,o),
(285,384,o),
(196,384,cs),
(103,384,o),
(37,327,o),
(29,243,c),
(147,243,l),
(149,265,o),
(165,288,o),
(194,288,cs),
(218,288,o),
(236,274,o),
(236,252,cs),
(236,225,o),
(204,211,o),
(155,189,cs),
(86,159,o),
(33,113,o),
(24,38,cs)
);
}
);
width = 376;
}
);
note = two.dnom;
},
{
color = 5;
glyphname = three.dnom;
kernRight = three.dnom;
lastChange = "2022-05-29 19:14:23 +0000";
layers = (
{
background = {
shapes = (
{
closed = 1;
nodes = (
(252,-7,o),
(313,33,o),
(313,105,cs),
(313,156,o),
(278,188,o),
(238,194,c),
(274,207,o),
(304,235,o),
(304,278,cs),
(304,341,o),
(249,382,o),
(174,382,cs),
(95,382,o),
(41,339,o),
(37,269,c),
(100,269,l),
(103,306,o),
(129,331,o),
(172,331,cs),
(211,331,o),
(241,311,o),
(241,276,cs),
(241,238,o),
(208,217,o),
(162,217,cs),
(135,217,l),
(135,168,l),
(164,168,ls),
(214,168,o),
(249,151,o),
(249,108,cs),
(249,69,o),
(218,43,o),
(171,43,cs),
(127,43,o),
(97,69,o),
(94,107,c),
(31,107,l),
(36,36,o),
(91,-7,o),
(171,-7,cs)
);
}
);
};
layerId = "30E869CF-9A31-4D47-9626-61B8364FC2DA";
shapes = (
{
closed = 1;
nodes = (
(252,-7,o),
(313,33,o),
(313,105,cs),
(313,156,o),
(278,188,o),
(238,194,c),
(274,207,o),
(304,235,o),
(304,278,cs),
(304,341,o),
(249,382,o),
(174,382,cs),
(95,382,o),
(41,339,o),
(37,269,c),
(100,269,l),
(103,306,o),
(129,331,o),
(172,331,cs),
(211,331,o),
(241,311,o),
(241,276,cs),
(241,238,o),
(208,217,o),
(162,217,cs),
(135,217,l),
(135,168,l),
(164,168,ls),
(214,168,o),
(249,151,o),
(249,108,cs),
(249,69,o),
(218,43,o),
(171,43,cs),
(127,43,o),
(97,69,o),
(94,107,c),
(31,107,l),
(36,36,o),
(91,-7,o),
(171,-7,cs)
);
}
);
width = 351;
},
{
background = {
shapes = (
{
closed = 1;
nodes = (
(244,-7,o),
(300,33,o),
(300,103,cs),
(300,149,o),
(269,185,o),
(224,196,c),
(265,210,o),
(291,238,o),
(291,281,cs),
(291,342,o),
(240,382,o),
(170,382,cs),
(98,382,o),
(48,338,o),
(43,271,c),
(79,271,l),
(82,318,o),
(117,351,o),
(170,351,cs),
(217,351,o),
(255,325,o),
(255,281,cs),
(255,237,o),
(218,210,o),
(164,210,cs),
(135,210,l),
(135,177,l),
(164,177,ls),
(222,177,o),
(264,152,o),
(264,103,cs),
(264,54,o),
(227,25,o),
(171,25,cs),
(116,25,o),
(77,58,o),
(74,105,c),
(38,105,l),
(42,37,o),
(96,-7,o),
(171,-7,cs)
);
}
);
};
layerId = "18A01495-E50D-4F2B-A1D8-5C332C731D93";
shapes = (
{
closed = 1;
nodes = (
(244,-7,o),
(300,33,o),
(300,103,cs),
(300,149,o),
(269,185,o),
(224,196,c),
(265,210,o),
(291,238,o),
(291,281,cs),
(291,342,o),
(240,382,o),
(170,382,cs),
(98,382,o),
(48,338,o),
(43,271,c),
(79,271,l),
(82,318,o),
(117,351,o),
(170,351,cs),
(217,351,o),
(255,325,o),
(255,281,cs),
(255,237,o),
(218,210,o),
(164,210,cs),
(135,210,l),
(135,177,l),
(164,177,ls),
(222,177,o),
(264,152,o),
(264,103,cs),
(264,54,o),
(227,25,o),
(171,25,cs),
(116,25,o),
(77,58,o),
(74,105,c),
(38,105,l),
(42,37,o),
(96,-7,o),
(171,-7,cs)
);
}
);
width = 344;
},
{
background = {
shapes = (
{
closed = 1;
nodes = (
(284,-8,o),
(351,35,o),
(351,106,cs),
(351,153,o),
(320,183,o),
(281,195,c),
(314,205,o),
(341,236,o),
(341,276,cs),
(341,337,o),
(280,383,o),
(190,383,cs),
(96,383,o),
(34,344,o),
(29,264,c),
(146,264,l),
(148,288,o),
(163,300,o),
(187,300,cs),
(208,300,o),
(225,288,o),
(225,266,cs),
(225,238,o),
(200,228,o),
(171,228,cs),
(139,228,l),
(139,152,l),
(175,152,ls),
(206,152,o),
(229,142,o),
(229,114,cs),
(229,91,o),
(211,76,o),
(185,76,cs),
(161,76,o),
(142,89,o),
(140,115,c),
(21,115,l),
(28,34,o),
(86,-8,o),
(189,-8,cs)
);
}
);
};
layerId = "9D32FE6F-9470-45EF-9689-909A6F5CE504";
shapes = (
{
closed = 1;
nodes = (
(284,-8,o),
(351,35,o),
(351,106,cs),
(351,153,o),
(320,183,o),
(281,195,c),
(314,205,o),
(341,236,o),
(341,276,cs),
(341,337,o),
(280,383,o),
(190,383,cs),
(96,383,o),
(34,344,o),
(29,264,c),
(146,264,l),
(148,288,o),
(163,300,o),
(187,300,cs),
(208,300,o),
(225,288,o),
(225,266,cs),
(225,238,o),
(200,228,o),
(171,228,cs),
(139,228,l),
(139,152,l),
(175,152,ls),
(206,152,o),
(229,142,o),
(229,114,cs),
(229,91,o),
(211,76,o),
(185,76,cs),
(161,76,o),
(142,89,o),
(140,115,c),
(21,115,l),
(28,34,o),
(86,-8,o),
(189,-8,cs)
);
}
);
width = 378;
}
);
note = three.dnom;
},
{
color = 5;
glyphname = four.dnom;
kernLeft = four.dnom;
kernRight = four.dnom;
lastChange = "2022-05-29 19:10:02 +0000";
layers = (
{
background = {
shapes = (
{
closed = 1;
nodes = (
(217,0,l),
(277,0,l),
(277,87,l),
(332,87,l),
(332,139,l),
(277,139,l),
(277,375,l),
(201,375,l),
(25,139,l),
(25,87,l),
(217,87,l)
);
},
{
closed = 1;
nodes = (
(89,139,l),
(217,311,l),
(217,139,l)
);
}
);
};
layerId = "30E869CF-9A31-4D47-9626-61B8364FC2DA";
shapes = (
{
closed = 1;
nodes = (
(217,0,l),
(277,0,l),
(277,87,l),
(332,87,l),
(332,139,l),
(277,139,l),
(277,375,l),
(201,375,l),
(25,139,l),
(25,87,l),
(217,87,l)
);
},
{
closed = 1;
nodes = (
(89,139,l),
(217,311,l),
(217,139,l)
);
}
);
width = 359;
},
{
background = {
shapes = (
{
closed = 1;
nodes = (
(222,0,l),
(256,0,l),
(256,96,l),
(320,96,l),
(320,128,l),
(256,128,l),
(256,375,l),
(213,375,l),
(27,128,l),
(27,96,l),
(222,96,l)
);
},
{
closed = 1;
nodes = (
(65,128,l),
(222,335,l),
(222,128,l)
);
}
);
};
layerId = "18A01495-E50D-4F2B-A1D8-5C332C731D93";
shapes = (
{
closed = 1;
nodes = (
(222,0,l),
(256,0,l),
(256,96,l),
(320,96,l),
(320,128,l),
(256,128,l),
(256,375,l),
(213,375,l),
(27,128,l),
(27,96,l),
(222,96,l)
);
},
{
closed = 1;
nodes = (
(65,128,l),
(222,335,l),
(222,128,l)
);
}
);
width = 347;
},
{
background = {
shapes = (
{
closed = 1;
nodes = (
(212,0,l),
(322,0,l),
(322,70,l),
(371,70,l),
(371,160,l),
(322,160,l),
(322,375,l),
(180,375,l),
(21,159,l),
(21,70,l),
(212,70,l)
);
},
{
closed = 1;
nodes = (
(134,160,l),
(212,268,l),
(212,160,l)
);
}
);
};
layerId = "9D32FE6F-9470-45EF-9689-909A6F5CE504";
shapes = (
{
closed = 1;
nodes = (
(212,0,l),
(322,0,l),
(322,70,l),
(371,70,l),
(371,160,l),
(322,160,l),
(322,375,l),
(180,375,l),
(21,159,l),
(21,70,l),
(212,70,l)
);
},
{
closed = 1;
nodes = (
(134,160,l),
(212,268,l),
(212,160,l)
);
}
);
width = 397;
}
);
note = four.dnom;
},
{
color = 5;
glyphname = five.dnom;
kernRight = five.dnom;
lastChange = "2022-05-29 19:10:02 +0000";
layers = (
{
background = {
shapes = (
{
closed = 1;
nodes = (
(256,-7,o),
(312,48,o),
(312,124,cs),
(312,200,o),
(257,248,o),
(187,248,cs),
(154,248,o),
(121,237,o),
(103,221,c),
(114,321,l),
(291,321,l),
(291,375,l),
(66,375,l),
(45,161,l),
(103,161,l),
(112,181,o),
(138,198,o),
(172,198,cs),
(216,198,o),
(249,168,o),
(249,122,cs),
(249,78,o),
(219,43,o),
(171,43,cs),
(131,43,o),
(100,66,o),
(96,104,c),
(34,104,l),
(37,33,o),
(96,-7,o),
(171,-7,cs)
);
}
);
};
layerId = "30E869CF-9A31-4D47-9626-61B8364FC2DA";
shapes = (
{
closed = 1;
nodes = (
(256,-7,o),
(312,48,o),
(312,124,cs),
(312,200,o),
(257,248,o),
(187,248,cs),
(154,248,o),
(121,237,o),
(103,221,c),
(114,321,l),
(291,321,l),
(291,375,l),
(66,375,l),
(45,161,l),
(103,161,l),
(112,181,o),
(138,198,o),
(172,198,cs),
(216,198,o),
(249,168,o),
(249,122,cs),
(249,78,o),
(219,43,o),
(171,43,cs),
(131,43,o),
(100,66,o),
(96,104,c),
(34,104,l),
(37,33,o),
(96,-7,o),
(171,-7,cs)
);
}
);
width = 345;
},
{
background = {
shapes = (
{
closed = 1;
nodes = (
(246,-7,o),
(299,50,o),
(299,122,cs),
(299,197,o),
(244,247,o),
(174,247,cs),
(140,247,o),
(107,236,o),
(85,211,c),
(99,343,l),
(282,343,l),
(282,375,l),
(70,375,l),
(49,168,l),
(83,168,l),
(98,195,o),
(127,216,o),
(167,216,cs),
(222,216,o),
(263,177,o),
(263,121,cs),
(263,68,o),
(225,25,o),
(167,25,cs),
(115,25,o),
(79,60,o),
(76,104,c),
(39,104,l),
(43,34,o),
(99,-7,o),
(167,-7,cs)
);
}
);
};
layerId = "18A01495-E50D-4F2B-A1D8-5C332C731D93";
shapes = (
{
closed = 1;
nodes = (
(246,-7,o),
(299,50,o),
(299,122,cs),
(299,197,o),
(244,247,o),
(174,247,cs),
(140,247,o),
(107,236,o),
(85,211,c),
(99,343,l),
(282,343,l),
(282,375,l),
(70,375,l),
(49,168,l),
(83,168,l),
(98,195,o),
(127,216,o),
(167,216,cs),
(222,216,o),
(263,177,o),
(263,121,cs),
(263,68,o),
(225,25,o),
(167,25,cs),
(115,25,o),
(79,60,o),
(76,104,c),
(39,104,l),
(43,34,o),
(99,-7,o),
(167,-7,cs)
);
}
);
width = 337;
},
{
background = {
shapes = (
{
closed = 1;
nodes = (
(281,-8,o),
(346,42,o),
(346,126,cs),
(346,202,o),
(288,247,o),
(218,247,cs),
(189,247,o),
(163,241,o),
(145,230,c),
(153,281,l),
(317,281,l),
(317,375,l),
(60,375,l),
(34,142,l),
(143,142,l),
(150,157,o),
(165,166,o),
(184,166,cs),
(208,166,o),
(228,148,o),
(228,122,cs),
(228,95,o),
(211,76,o),
(183,76,cs),
(160,76,o),
(145,90,o),
(142,109,c),
(23,109,l),
(28,37,o),
(86,-8,o),
(186,-8,cs)
);
}
);
};
layerId = "9D32FE6F-9470-45EF-9689-909A6F5CE504";
shapes = (
{
closed = 1;
nodes = (
(281,-8,o),
(346,42,o),
(346,126,cs),
(346,202,o),
(288,247,o),
(218,247,cs),
(189,247,o),
(163,241,o),
(145,230,c),
(153,281,l),
(317,281,l),
(317,375,l),
(60,375,l),
(34,142,l),
(143,142,l),
(150,157,o),
(165,166,o),
(184,166,cs),
(208,166,o),
(228,148,o),
(228,122,cs),
(228,95,o),
(211,76,o),
(183,76,cs),
(160,76,o),
(145,90,o),
(142,109,c),
(23,109,l),
(28,37,o),
(86,-8,o),
(186,-8,cs)
);
}
);
width = 369;
}
);
note = five.dnom;
},
